<svg width="17" height="17" viewBox="0 0 17 17" fill="none" xmlns="http://www.w3.org/2000/svg">
<path d="M8.98828 0.5C13.4076 0.5 16.9883 4.08065 16.9883 8.5C16.9883 12.9194 13.4076 16.5 8.98828 16.5C4.56893 16.5 0.988281 12.9194 0.988281 8.5C0.988281 4.08065 4.56893 0.5 8.98828 0.5ZM11.956 10.5968C12.0205 10.5323 12.0851 10.4032 12.0851 10.2742C12.0851 10.1129 11.9883 9.98387 11.8915 9.8871L10.0205 8.5V3.85484C10.0205 3.59677 9.76248 3.33871 9.50441 3.33871H8.47215C8.18183 3.33871 7.95602 3.59677 7.95602 3.85484V8.8871C7.95602 9.30645 8.11731 9.66129 8.43989 9.8871L10.6012 11.5C10.6657 11.5645 10.7947 11.629 10.8915 11.629C11.0851 11.629 11.2141 11.5323 11.3109 11.4032L11.956 10.5968Z" fill="white"/>
</svg>
