<svg width="182" height="47" viewBox="0 0 182 47" fill="none" xmlns="http://www.w3.org/2000/svg">
<path d="M149.623 14.9466C149.623 21.9599 144.239 27.3793 136.446 27.3793H127.839V2.58472H136.446C144.239 2.58472 149.623 7.93326 149.623 14.9466ZM146.718 15.0174C146.718 9.49177 142.716 5.17044 136.446 5.17044H130.637V24.7936H136.446C142.716 24.7936 146.718 20.5431 146.718 15.0174Z" fill="white"/>
<path d="M105.983 2.40759L117.282 27.3793H114.271L111.367 20.8264H97.8715L94.9316 27.3793H92.0625L103.362 2.40759H105.983ZM110.269 18.3115L104.637 5.66631L98.9696 18.3115H110.269Z" fill="white"/>
<path d="M83.622 23.4476C81.0363 26.0688 78.2026 27.8044 73.7042 27.8044C66.5492 27.8044 61.2715 22.1725 61.2715 15.0175C61.2715 7.93332 66.5138 2.15973 73.8104 2.15973C78.3089 2.15973 81.0009 3.75366 83.4803 6.09144L81.5676 8.14584C79.4778 6.16228 77.14 4.74545 73.775 4.74545C68.2848 4.74545 64.176 9.17305 64.176 14.9466C64.176 20.7202 68.3202 25.2187 73.775 25.2187C77.1754 25.2187 79.4069 23.9081 81.7801 21.6412L83.622 23.4476Z" fill="white"/>
<path d="M36.2063 8.78338C36.2063 11.1566 37.4814 12.4671 42.9362 13.636C48.4619 14.8403 51.0122 16.8593 51.0122 20.6848C51.0122 24.9707 47.4701 27.7335 42.5466 27.7335C38.6149 27.7335 35.3916 26.4229 32.4163 23.7664L34.1519 21.712C36.7376 24.0497 39.2171 25.2186 42.6529 25.2186C45.9824 25.2186 48.1785 23.483 48.1785 20.9681C48.1785 18.6304 46.9388 17.3198 41.7319 16.2217C36.0292 14.982 33.408 13.1401 33.408 9.03132C33.408 5.06419 36.8439 2.23053 41.5548 2.23053C45.1677 2.23053 47.7535 3.25773 50.2683 5.27672L48.639 7.43739C46.3366 5.56008 44.0343 4.74541 41.484 4.74541C38.2607 4.74541 36.2063 6.51645 36.2063 8.78338Z" fill="white"/>
<path d="M147.403 35.5298V44.1111H146.309V35.5298H143.092V34.5307H150.62V35.5298H147.403Z" fill="white"/>
<path d="M141.904 44.1111H140.576L137.798 40.3884H135.061V44.1111H133.979V34.5307H138.099C140.207 34.5307 141.562 35.6667 141.562 37.3911C141.562 38.9924 140.467 39.9231 138.961 40.1968L141.904 44.1111ZM140.467 37.4322C140.467 36.2415 139.563 35.5298 138.017 35.5298H135.061V39.4167H138.003C139.44 39.4167 140.467 38.6776 140.467 37.4322Z" fill="white"/>
<path d="M127.725 34.4623L132.091 44.1111H130.927L129.805 41.5791H124.59L123.455 44.1111H122.346L126.712 34.4623H127.725ZM129.381 40.6074L127.205 35.7214L125.015 40.6074H129.381Z" fill="white"/>
<path d="M116.966 34.5307V35.5298H111.163V38.9514H116.351V39.9368H111.163V44.1111H110.082V34.5307H116.966Z" fill="white"/>
<path d="M107.802 39.3072C107.802 41.9623 105.817 44.2753 102.902 44.2753C99.9869 44.2753 98.0298 41.9897 98.0298 39.3346C98.0298 36.6794 100.014 34.3665 102.929 34.3665C105.845 34.3665 107.802 36.6521 107.802 39.3072ZM106.68 39.3346C106.68 37.1448 105.092 35.3656 102.902 35.3656C100.712 35.3656 99.1521 37.1174 99.1521 39.3072C99.1521 41.497 100.74 43.2762 102.929 43.2762C105.119 43.2762 106.68 41.5244 106.68 39.3346Z" fill="white"/>
<path d="M90.5576 36.351L87.0676 41.4833H87.0128L83.5228 36.3647V44.1111H82.469V34.5307H83.5639L87.0539 39.7589L90.5439 34.5307H91.6388V44.1111H90.5576V36.351Z" fill="white"/>
<path d="M79.9124 34.5307V40.0189C79.9124 42.8109 78.3112 44.2616 75.9161 44.2616C73.5483 44.2616 71.9333 42.8109 71.9333 40.101V34.5307H73.0146V40.0326C73.0146 42.0992 74.1095 43.2625 75.9434 43.2625C77.709 43.2625 78.8312 42.195 78.8312 40.101V34.5307H79.9124Z" fill="white"/>
<path d="M69.8403 34.5307V35.5161H63.9963V38.7871H69.2244V39.7725H63.9963V43.1257H69.9087V44.1111H62.915V34.5307H69.8403Z" fill="white"/>
<path d="M54.9957 36.9258C54.9957 37.8428 55.4884 38.3492 57.5961 38.8008C59.7311 39.2662 60.7165 40.0463 60.7165 41.5244C60.7165 43.1804 59.3479 44.248 57.4455 44.248C55.9263 44.248 54.6809 43.7416 53.5312 42.7151L54.2019 41.9213C55.201 42.8246 56.159 43.2762 57.4866 43.2762C58.7731 43.2762 59.6216 42.6056 59.6216 41.6339C59.6216 40.7306 59.1426 40.2242 57.1307 39.7999C54.9272 39.3209 53.9145 38.6092 53.9145 37.0216C53.9145 35.4888 55.242 34.3939 57.0623 34.3939C58.4583 34.3939 59.4574 34.7908 60.4291 35.5709L59.7996 36.4057C58.91 35.6804 58.0203 35.3656 57.0349 35.3656C55.7895 35.3656 54.9957 36.0499 54.9957 36.9258Z" fill="white"/>
<path d="M51.6046 34.5307V40.0189C51.6046 42.8109 50.0033 44.2616 47.6082 44.2616C45.2405 44.2616 43.6255 42.8109 43.6255 40.101V34.5307H44.7067V40.0326C44.7067 42.0992 45.8016 43.2625 47.6356 43.2625C49.4011 43.2625 50.5234 42.195 50.5234 40.101V34.5307H51.6046Z" fill="white"/>
<path d="M39.9824 36.351L36.4924 41.4833H36.4376L32.9476 36.3647V44.1111H31.8938V34.5307H32.9887L36.4787 39.7589L39.9687 34.5307H41.0636V44.1111H39.9824V36.351Z" fill="white"/>
</svg>
