<svg width="182" height="47" viewBox="0 0 182 47" fill="none" xmlns="http://www.w3.org/2000/svg">
<path d="M64.0049 23.2722C64.0049 18.7549 64.0049 14.2389 64.0049 9.72158C64.0049 9.15878 64.0389 9.12479 64.6098 9.12479C67.0581 9.12479 69.5064 9.11664 71.9561 9.12887C75.9283 9.1479 79.3106 10.5902 82.1014 13.3988C83.9693 15.2789 85.0718 17.5654 85.5122 20.1646C85.9826 22.9392 85.9173 25.6974 85.0405 28.3959C84.0658 31.3975 82.1368 33.6528 79.509 35.3466C77.5909 36.5823 75.4892 37.2715 73.2149 37.4224C71.1541 37.5597 69.0891 37.4632 67.0269 37.485C66.1867 37.4945 65.348 37.485 64.5079 37.4836C64.0552 37.4836 64.0062 37.4333 64.0062 36.9738C64.0062 32.4062 64.0062 27.8399 64.0062 23.2722H64.0049ZM69.9224 22.5762C69.9224 22.5762 69.9197 22.5762 69.9183 22.5762C69.9183 23.4449 69.9183 24.3149 69.9183 25.1836C69.9183 26.8013 69.9156 28.4176 69.9143 30.0353C69.9143 30.4078 69.8381 30.7789 69.9116 31.1541C69.9523 31.3581 70.0556 31.4587 70.2582 31.4559C71.4803 31.4437 72.7079 31.5375 73.915 31.2561C76.6216 30.624 78.5547 29.0715 79.5321 26.4451C80.1928 24.6724 80.3084 22.8332 79.9046 20.9871C79.1855 17.7027 77.1912 15.6255 73.9001 14.8343C72.7582 14.5597 71.5891 14.6223 70.4268 14.6141C69.9224 14.6114 69.9211 14.6141 69.9211 15.1171C69.9211 17.6035 69.9224 20.0899 69.9224 22.5762Z" fill="white"/>
<path d="M136.991 37.4003C135.727 37.3105 134.402 37.3731 133.076 37.354C132.581 37.3472 132.091 37.4383 131.593 37.3676C131.219 37.3146 130.961 37.1556 130.787 36.8157C129.985 35.251 129.165 33.6958 128.363 32.1312C126.868 29.2179 125.377 26.3033 123.891 23.386C122.915 21.4679 121.964 19.5362 120.972 17.6262C120.639 16.9859 120.587 16.419 120.901 15.7366C121.77 13.8456 122.569 11.9234 123.395 10.0134C123.449 9.88837 123.506 9.77146 123.664 9.76059C123.843 9.74835 123.903 9.88294 123.967 10.0107C124.49 11.0371 125.018 12.0607 125.536 13.0898C126.903 15.8059 128.321 18.4976 129.674 21.2232C131.313 24.5266 132.966 27.8245 134.64 31.1116C135.617 33.0297 136.559 34.9642 137.516 36.8918C137.759 37.3826 137.747 37.403 137.201 37.4016C137.15 37.4016 137.1 37.4016 136.99 37.4016L136.991 37.4003Z" fill="white"/>
<path d="M108.547 31.9358C108.547 32.2594 108.547 32.5829 108.547 32.9064C108.546 33.3999 108.445 33.4611 107.986 33.249C107.279 32.9228 106.568 32.6033 105.864 32.2702C102.452 30.6607 99.0151 29.1001 95.6519 27.3899C94.1089 26.6055 92.6816 25.6485 91.4839 24.3911C89.7643 22.5871 88.447 20.5357 87.7958 18.1024C87.5566 17.2065 87.528 16.2862 87.5321 15.3672C87.5334 14.9485 87.6857 14.8561 88.0663 15.0274C89.6161 15.7248 91.1645 16.4235 92.7101 17.1304C95.2114 18.275 97.71 19.4265 100.209 20.5765C102 21.4017 103.716 22.3587 105.111 23.7766C107.013 25.7097 108.188 28.0166 108.517 30.7232C108.566 31.1215 108.524 31.5307 108.524 31.9345C108.531 31.9345 108.539 31.9345 108.546 31.9345L108.547 31.9358Z" fill="white"/>
<path d="M60.7017 23.3158C60.7017 27.7924 60.7017 32.2676 60.7017 36.7442C60.7017 36.8652 60.7017 36.9861 60.6976 37.1085C60.6867 37.3627 60.563 37.4891 60.2939 37.4891C58.634 37.4851 56.9755 37.4851 55.3157 37.4891C55.0587 37.4891 54.9446 37.3654 54.9228 37.1302C54.9106 36.9997 54.9065 36.8679 54.9065 36.7374C54.9065 27.7951 54.9065 18.8529 54.9065 9.91064C54.9065 9.84946 54.9065 9.78965 54.9065 9.72847C54.916 9.21597 55.0017 9.12897 55.5114 9.12897C57.0489 9.12897 58.5878 9.12897 60.1253 9.12897C60.6364 9.12897 60.7003 9.19286 60.7003 9.70536C60.7003 14.2417 60.7003 18.7795 60.7003 23.3158H60.7017Z" fill="white"/>
<path d="M109.87 14.5227C109.865 16.7889 108.353 18.3889 106.247 18.4066C104.389 18.4229 102.749 17.0662 102.658 14.9958C102.632 14.4248 102.827 13.8838 103.057 13.3604C103.386 12.61 103.602 11.8433 103.44 11.0086C103.358 10.5858 103.19 10.2011 102.982 9.82864C102.918 9.71309 102.827 9.58667 102.911 9.46432C102.997 9.34061 103.153 9.39227 103.28 9.40451C105.044 9.58259 106.64 10.1753 107.998 11.3376C108.592 11.846 109.126 12.4088 109.498 13.1062C109.76 13.5997 109.856 14.1298 109.869 14.5214L109.87 14.5227Z" fill="white"/>
<path d="M48.4245 15.6495C47.1915 15.6495 45.9572 15.6495 44.7242 15.6495C44.2552 15.6495 44.1397 15.5421 44.1505 15.0853C44.1723 14.1677 44.0812 13.2474 44.2117 12.3339C44.4646 10.5585 46.21 9.02641 48.0058 9.00195C48.5115 8.99515 49.0132 9.00059 49.5121 9.11206C51.0632 9.46007 52.0202 10.4266 52.477 11.9179C52.8087 12.9986 52.7556 14.1134 52.7312 15.2226C52.7244 15.5312 52.5558 15.6454 52.1847 15.6468C50.9313 15.6495 49.6766 15.6468 48.4232 15.6468L48.4245 15.6495ZM48.3742 13.798C49.0716 13.798 49.769 13.7966 50.4664 13.7966C50.6934 13.7966 50.8715 13.7354 50.8878 13.4717C50.9204 12.9375 50.8443 12.425 50.5547 11.9614C49.9702 11.0248 48.7725 10.6047 47.6266 10.931C46.6043 11.2219 45.8919 12.1884 45.8851 13.295C45.8824 13.7667 45.9096 13.798 46.3433 13.7993C47.0203 13.8007 47.6973 13.798 48.3742 13.798Z" fill="white"/>
<path d="M96.9068 37.3085C96.0191 37.4553 95.1423 37.4064 94.2641 37.3833C94.0425 37.3778 93.8209 37.3547 93.598 37.3534C91.6065 37.3466 89.6135 37.3438 87.622 37.3384C86.7207 37.3357 86.6718 37.2867 86.6718 36.3759C86.6718 34.3164 86.6718 32.2555 86.6704 30.196C86.6704 29.9459 86.6826 29.6998 86.8186 29.4171C89.4232 33.0494 92.8299 35.5984 96.9068 37.3085Z" fill="white"/>
<path d="M115.085 37.4009C113.426 37.4009 111.767 37.4009 110.108 37.4009C110.017 37.4009 109.926 37.4036 109.835 37.3968C109.639 37.3805 109.604 37.2922 109.731 37.144C109.877 36.9754 110.018 36.8028 110.176 36.6478C111.801 35.0464 113.115 33.2098 114.281 31.2618C114.644 30.6568 114.725 30.6596 115.089 31.2509C116.274 33.1704 117.668 34.92 119.37 36.4112C119.673 36.6777 120.01 36.9047 120.328 37.1535C120.391 37.2011 120.495 37.2473 120.476 37.3289C120.449 37.4471 120.325 37.3995 120.242 37.3995C118.523 37.4023 116.803 37.4023 115.084 37.4023L115.085 37.4009Z" fill="white"/>
<path d="M52.7517 27.3999C52.8618 29.5682 51.0551 31.7079 48.5524 31.7637C46.6656 31.8058 45.2531 30.9222 44.4416 29.2297C43.6545 27.5875 43.9562 26.0269 45.056 24.6063C45.2545 24.3494 45.4203 24.3426 45.6664 24.571C45.888 24.7776 46.1014 24.9924 46.3121 25.2113C46.6153 25.5267 46.6153 25.5742 46.3611 25.929C45.7928 26.7229 45.718 27.5671 46.1232 28.448C46.5473 29.3725 47.6443 30.0209 48.5783 29.9203C49.7242 29.7966 50.6133 29.0679 50.8485 27.9981C51.0075 27.2735 50.9165 26.5721 50.476 25.944C50.2463 25.6164 50.2544 25.5321 50.5372 25.2398C50.7615 25.0074 50.9871 24.7749 51.221 24.552C51.4657 24.3181 51.5771 24.3249 51.7865 24.5968C52.42 25.4233 52.7938 26.341 52.7517 27.3999Z" fill="white"/>
<path d="M52.7392 17.2062C52.7392 17.2565 52.7351 17.3081 52.7392 17.3571C52.7949 17.9539 52.5842 18.3522 51.9765 18.5561C51.4504 18.7342 51.4015 18.8715 51.4056 19.4166C51.4097 20.012 51.4178 20.6088 51.4056 21.2042C51.4001 21.4884 51.5239 21.661 51.7713 21.7698C51.9561 21.8513 52.1369 21.9424 52.3259 22.0145C52.6087 22.1232 52.7337 22.3285 52.7351 22.6208C52.7351 22.9443 52.746 23.2678 52.7351 23.59C52.7229 24.0169 52.5937 24.1039 52.2063 23.9326C50.6239 23.2366 49.0443 22.5337 47.4646 21.8323C46.4301 21.3728 45.3942 20.9147 44.3597 20.4525C44.2347 20.3967 44.062 20.3696 44.0647 20.1915C44.0674 20.0311 44.2265 20.0025 44.3434 19.9495C46.9481 18.7886 49.5513 17.6276 52.156 16.4694C52.6236 16.2614 52.7365 16.3362 52.7378 16.8392C52.7378 16.9601 52.7378 17.0811 52.7378 17.2035L52.7392 17.2062ZM49.8042 20.1915C49.7933 20.061 49.7906 19.9291 49.7688 19.8013C49.7457 19.664 49.6764 19.5784 49.5146 19.6477C49.1884 19.7864 48.8594 19.9142 48.5359 20.0569C48.3564 20.1357 48.3632 20.2526 48.5291 20.3356C48.737 20.4389 48.9559 20.5191 49.1721 20.6061C49.7784 20.8494 49.796 20.8372 49.8055 20.1942L49.8042 20.1915Z" fill="white"/>
<path d="M44.0255 34.8795C44.0255 33.6357 44.7066 32.6909 45.8376 32.3401C46.2414 32.2137 46.3637 32.2844 46.4562 32.6963C46.5092 32.9329 46.5676 33.168 46.6139 33.4059C46.6954 33.8246 46.6329 33.9633 46.2794 34.1903C45.9056 34.4309 45.7887 34.6974 45.9015 35.0522C46.013 35.4029 46.3977 35.6571 46.7702 35.6313C47.0475 35.6123 47.2188 35.4491 47.318 35.214C47.5233 34.7314 47.715 34.242 47.9094 33.7539C48.0453 33.4127 48.2261 33.0973 48.4667 32.8214C49.3558 31.8045 51.1122 31.8249 51.9876 32.8758C52.564 33.5677 52.8821 34.3371 52.7503 35.2778C52.5926 36.4034 51.9604 37.1049 50.9382 37.5019C50.6228 37.6242 50.4311 37.5209 50.3441 37.1919C50.2585 36.8697 50.1905 36.5435 50.1212 36.2186C50.0654 35.9562 50.2163 35.8107 50.4202 35.6816C50.8851 35.388 51.0197 34.9733 50.8199 34.4812C50.6962 34.1754 50.476 33.9823 50.1347 33.9687C49.7976 33.9538 49.576 34.1441 49.4496 34.4296C49.3313 34.696 49.2511 34.9801 49.1614 35.2588C49.0622 35.5674 48.9398 35.8651 48.7916 36.1533C47.8197 38.0538 45.4896 37.82 44.5068 36.4184C44.1791 35.9508 43.9915 35.4355 44.0242 34.8823L44.0255 34.8795Z" fill="white"/>
</svg>
