<svg width="182" height="47" viewBox="0 0 182 47" fill="none" xmlns="http://www.w3.org/2000/svg">
<path fill-rule="evenodd" clip-rule="evenodd" d="M92.1468 7.81411H92.9661V11.3664H92.1468C88.0384 11.3664 80.6702 15.2424 80.6702 24.6192C80.6702 27.1454 81.9624 30.1459 84.2045 32.5427C86.4312 34.923 89.4044 36.5057 92.5567 36.5057C94.8495 36.5057 96.3423 36.1512 97.5359 35.6748L99.0598 38.8888C97.4948 39.5419 95.5181 40.058 92.5567 40.058C88.1945 40.058 84.3364 37.8834 81.6104 34.9694C78.8999 32.072 77.1179 28.2412 77.1179 24.6192C77.1179 12.9555 86.4182 7.81413 92.1468 7.81411ZM102.993 36.9803C103.78 36.6841 104.635 36.5057 105.809 36.5057C106.7 36.5057 107.036 36.7371 107.896 37.3294C108.167 37.5159 108.489 37.7382 108.897 38.0003C110.585 39.0834 112.868 40.058 117.286 40.058C125.372 40.058 132.998 32.9779 132.998 23.7994C132.998 18.6165 130.596 14.6151 127.694 11.9449C124.863 9.33991 121.346 7.81411 118.789 7.81411H96.7917V11.3664H118.789C120.195 11.3664 122.893 12.3545 125.289 14.5588C127.613 16.6978 129.446 19.801 129.446 23.7994C129.446 31.0161 123.41 36.5057 117.286 36.5057C113.506 36.5057 111.896 35.7041 110.817 35.011C110.638 34.8965 110.449 34.7623 110.247 34.6184C109.244 33.9057 107.904 32.9534 105.809 32.9534C103.978 32.9534 102.609 33.3016 101.468 33.7622L102.993 36.9803Z" fill="white"/>
<path d="M57.0059 39.8589V7.72209H64.7646C68.0242 7.72209 70.6869 8.73211 72.4315 10.4767C74.0384 12.0835 74.9565 14.4708 74.9565 17.3631V17.5009C74.9565 22.3673 72.3397 25.3514 68.621 26.591L75.7829 39.8589H72.1101L65.4073 27.3255C64.9941 27.3714 64.581 27.3714 64.1678 27.3714H60.2195V39.8589H57.0059ZM60.2195 24.4332H63.8005C69.4933 24.4332 71.7888 21.5868 71.7888 17.5468V17.5009C71.7888 13.0017 68.9883 10.7062 64.535 10.7062H60.2195V24.4332Z" fill="white"/>
<path d="M49.1201 39.8589V7.72209H52.3338V39.8589H49.1201Z" fill="white"/>
</svg>
