<svg width="182" height="47" viewBox="0 0 182 47" fill="none" xmlns="http://www.w3.org/2000/svg">
<path d="M163.187 27.2127C163.729 27.2127 164.245 27.1253 164.734 26.9504C165.241 26.7581 165.678 26.4958 166.046 26.1636C166.413 25.8139 166.701 25.4117 166.911 24.957C167.139 24.4849 167.252 23.9691 167.252 23.4095V23.3571C167.252 22.7801 167.139 22.2642 166.911 21.8096C166.701 21.3375 166.413 20.9353 166.046 20.6031C165.678 20.2534 165.241 19.9911 164.734 19.8162C164.245 19.6239 163.729 19.5277 163.187 19.5277C162.627 19.5277 162.111 19.6239 161.639 19.8162C161.167 19.9911 160.747 20.2446 160.38 20.5768C160.031 20.9091 159.751 21.3112 159.541 21.7834C159.349 22.238 159.252 22.7538 159.252 23.3309V23.3833C159.252 23.9604 159.357 24.4849 159.567 24.957C159.777 25.4117 160.057 25.8139 160.406 26.1636C160.756 26.4958 161.167 26.7581 161.639 26.9504C162.129 27.1253 162.645 27.2127 163.187 27.2127ZM162.924 35.2387C160.616 35.2387 158.553 34.6879 156.734 33.5863L157.915 31.1995C158.649 31.6541 159.419 32.0126 160.223 32.2749C161.027 32.5372 161.901 32.6683 162.846 32.6683C164.262 32.6683 165.346 32.3098 166.098 31.5929C166.85 30.876 167.226 29.8181 167.226 28.4192V27.3439C166.649 28.0958 165.976 28.7078 165.206 29.1799C164.437 29.652 163.484 29.8881 162.347 29.8881C161.526 29.8881 160.739 29.7394 159.987 29.4422C159.235 29.1449 158.562 28.7252 157.967 28.1832C157.39 27.6236 156.927 26.9417 156.577 26.1373C156.227 25.333 156.052 24.4237 156.052 23.4095V23.3571C156.052 22.3429 156.227 21.4336 156.577 20.6293C156.927 19.8075 157.39 19.1255 157.967 18.5835C158.562 18.0239 159.235 17.5955 159.987 17.2982C160.756 17.001 161.543 16.8524 162.347 16.8524C163.519 16.8524 164.481 17.0884 165.233 17.5605C166.002 18.0152 166.658 18.566 167.2 19.2129V17.1409H170.373V28.157C170.373 30.4651 169.788 32.2049 168.616 33.3765C167.987 34.006 167.191 34.4693 166.229 34.7666C165.285 35.0814 164.183 35.2387 162.924 35.2387Z" fill="white"/>
<path d="M140.496 17.1409H143.67V19.2916C143.897 18.9594 144.142 18.6534 144.404 18.3736C144.684 18.0764 144.999 17.8141 145.348 17.5868C145.716 17.3594 146.109 17.1846 146.529 17.0622C146.966 16.9223 147.455 16.8524 147.998 16.8524C149.571 16.8524 150.787 17.3332 151.643 18.2949C152.5 19.2567 152.929 20.5506 152.929 22.1768V30.9897H149.755V23.121C149.755 22.0369 149.493 21.2063 148.968 20.6293C148.461 20.0348 147.735 19.7375 146.791 19.7375C145.864 19.7375 145.112 20.0435 144.535 20.6555C143.958 21.25 143.67 22.0894 143.67 23.1735V30.9897H140.496V17.1409Z" fill="white"/>
<path d="M133.174 17.1408H136.348V30.9896H133.174V17.1408ZM133.043 12H136.453V15.0163H133.043V12Z" fill="white"/>
<path d="M116.081 17.1409H119.49L123.215 27.3176L126.966 17.1409H130.297L124.631 31.0946H121.772L116.081 17.1409Z" fill="white"/>
<path d="M110.071 17.1408H113.245V30.9896H110.071V17.1408ZM109.94 12H113.349V15.0163H109.94V12Z" fill="white"/>
<path d="M98.7419 27.2127C99.284 27.2127 99.7998 27.1253 100.289 26.9504C100.796 26.7581 101.234 26.4958 101.601 26.1636C101.968 25.8139 102.257 25.4117 102.466 24.957C102.694 24.4849 102.807 23.9691 102.807 23.4095V23.3571C102.807 22.7801 102.694 22.2642 102.466 21.8096C102.257 21.3375 101.968 20.9353 101.601 20.6031C101.234 20.2534 100.796 19.9911 100.289 19.8162C99.7998 19.6239 99.284 19.5277 98.7419 19.5277C98.1823 19.5277 97.6665 19.6239 97.1944 19.8162C96.7223 19.9911 96.3026 20.2446 95.9354 20.5768C95.5857 20.9091 95.3059 21.3112 95.0961 21.7834C94.9037 22.238 94.8076 22.7538 94.8076 23.3309V23.3833C94.8076 23.9604 94.9125 24.4849 95.1223 24.957C95.3321 25.4117 95.6119 25.8139 95.9616 26.1636C96.3114 26.4958 96.7223 26.7581 97.1944 26.9504C97.684 27.1253 98.1998 27.2127 98.7419 27.2127ZM98.4796 35.2387C96.1715 35.2387 94.1081 34.6879 92.2896 33.5863L93.4699 31.1995C94.2043 31.6541 94.9737 32.0126 95.778 32.2749C96.5824 32.5372 97.4567 32.6683 98.4009 32.6683C99.8173 32.6683 100.901 32.3098 101.653 31.5929C102.405 30.876 102.781 29.8181 102.781 28.4192V27.3439C102.204 28.0958 101.531 28.7078 100.762 29.1799C99.9921 29.652 99.0391 29.8881 97.9026 29.8881C97.0807 29.8881 96.2939 29.7394 95.542 29.4422C94.7901 29.1449 94.1169 28.7252 93.5224 28.1832C92.9453 27.6236 92.482 26.9417 92.1322 26.1373C91.7825 25.333 91.6077 24.4237 91.6077 23.4095V23.3571C91.6077 22.3429 91.7825 21.4336 92.1322 20.6293C92.482 19.8075 92.9453 19.1255 93.5224 18.5835C94.1169 18.0239 94.7901 17.5955 95.542 17.2982C96.3114 17.001 97.0982 16.8524 97.9026 16.8524C99.0741 16.8524 100.036 17.0884 100.788 17.5605C101.557 18.0152 102.213 18.566 102.755 19.2129V17.1409H105.929V28.157C105.929 30.4651 105.343 32.2049 104.171 33.3765C103.542 34.006 102.746 34.4693 101.784 34.7666C100.84 35.0814 99.7386 35.2387 98.4796 35.2387Z" fill="white"/>
<path d="M76.9417 28.052C77.9034 28.052 78.7777 27.9034 79.5645 27.6061C80.3514 27.2914 81.0159 26.863 81.5579 26.3209C82.1175 25.7614 82.5459 25.1057 82.8431 24.3538C83.1579 23.5844 83.3153 22.7538 83.3153 21.862V21.8096C83.3153 20.9178 83.1579 20.0872 82.8431 19.3179C82.5459 18.5485 82.1175 17.8928 81.5579 17.3507C81.0159 16.7911 80.3514 16.354 79.5645 16.0393C78.7777 15.7245 77.9034 15.5671 76.9417 15.5671H73.3221V28.052H76.9417ZM70.0959 12.6295H76.9417C78.3755 12.6295 79.6869 12.8656 80.876 13.3377C82.0825 13.7923 83.1142 14.4306 83.971 15.2524C84.8453 16.0742 85.5185 17.0447 85.9906 18.1638C86.4627 19.2654 86.6988 20.4632 86.6988 21.7571V21.8096C86.6988 23.1035 86.4627 24.3101 85.9906 25.4292C85.5185 26.5483 84.8453 27.5187 83.971 28.3406C83.1142 29.1624 82.0825 29.8094 80.876 30.2815C79.6869 30.7536 78.3755 30.9897 76.9417 30.9897H70.0959V12.6295Z" fill="white"/>
<path d="M60.4953 23.6981L57.3216 16.354L54.1741 23.6981H60.4953ZM55.879 12.4984H58.8691L66.9475 30.9897H63.5378L61.6756 26.557H52.9938L51.1054 30.9897H47.8005L55.879 12.4984Z" fill="white"/>
<path d="M38.5342 31.3044C37.1878 31.3044 35.9463 31.0596 34.8097 30.57C33.6732 30.0804 32.6852 29.4159 31.8459 28.5766C31.024 27.7198 30.3771 26.7144 29.905 25.5603C29.4328 24.4062 29.1968 23.1735 29.1968 21.862V21.8096C29.1968 20.4981 29.4241 19.2741 29.8787 18.1375C30.3508 16.9835 31.0066 15.978 31.8459 15.1212C32.6852 14.2469 33.6819 13.565 34.836 13.0754C35.99 12.5683 37.2665 12.3148 38.6654 12.3148C39.5047 12.3148 40.2653 12.3847 40.9473 12.5246C41.6467 12.6645 42.2849 12.8656 42.862 13.1278C43.439 13.3727 43.9723 13.6699 44.4619 14.0196C44.9515 14.3693 45.4149 14.754 45.852 15.1737L43.78 17.5605C43.0456 16.8786 42.2674 16.3278 41.4456 15.9081C40.6238 15.4884 39.6883 15.2786 38.6391 15.2786C37.7648 15.2786 36.9517 15.4535 36.1999 15.8032C35.4655 16.1354 34.8272 16.5988 34.2852 17.1933C33.7431 17.7703 33.3234 18.4523 33.0262 19.2392C32.7289 20.026 32.5803 20.8653 32.5803 21.7571V21.8096C32.5803 22.7014 32.7289 23.5494 33.0262 24.3538C33.3234 25.1406 33.7431 25.8313 34.2852 26.4258C34.8272 27.0204 35.4655 27.4925 36.1999 27.8422C36.9517 28.1744 37.7648 28.3405 38.6391 28.3405C39.7582 28.3405 40.7199 28.1307 41.5243 27.711C42.3286 27.2739 43.1243 26.6881 43.9111 25.9537L45.9832 28.052C45.5111 28.5591 45.0127 29.0137 44.4881 29.4159C43.9811 29.8006 43.4303 30.1416 42.8357 30.4388C42.2412 30.7186 41.5855 30.9284 40.8686 31.0683C40.1691 31.2257 39.391 31.3044 38.5342 31.3044Z" fill="white"/>
<path d="M19.6588 31.252C18.2424 31.252 16.8873 31.0159 15.5933 30.5438C14.2994 30.0542 13.1016 29.311 12 28.3143L13.9409 26.0062C14.8327 26.7756 15.7332 27.3701 16.6425 27.7898C17.5518 28.1919 18.5834 28.393 19.7375 28.393C20.7342 28.393 21.521 28.1832 22.0981 27.7635C22.6926 27.3439 22.9899 26.7843 22.9899 26.0849V26.0324C22.9899 25.7002 22.9287 25.4117 22.8063 25.1669C22.7013 24.9046 22.4915 24.6598 22.1768 24.4325C21.8795 24.2052 21.4598 23.9953 20.9178 23.803C20.3932 23.6106 19.7025 23.4183 18.8457 23.226C17.8665 22.9986 16.9922 22.7451 16.2228 22.4653C15.4709 22.1681 14.8327 21.8183 14.3081 21.4162C13.801 20.9965 13.4076 20.4894 13.1278 19.8949C12.8655 19.3004 12.7344 18.5835 12.7344 17.7441V17.6917C12.7344 16.9048 12.8918 16.1879 13.2065 15.5409C13.5213 14.8765 13.9497 14.3169 14.4917 13.8623C15.0513 13.3902 15.7157 13.023 16.4851 12.7607C17.2545 12.4984 18.0938 12.3672 19.0031 12.3672C20.3495 12.3672 21.556 12.5683 22.6227 12.9705C23.7068 13.3552 24.721 13.9235 25.6652 14.6754L23.9341 17.1147C23.0948 16.5027 22.2642 16.0393 21.4424 15.7245C20.6205 15.3923 19.7899 15.2262 18.9506 15.2262C18.0064 15.2262 17.272 15.436 16.7474 15.8557C16.2228 16.2753 15.9605 16.7912 15.9605 17.4032V17.4556C15.9605 17.8053 16.0217 18.1201 16.1441 18.3999C16.2665 18.6622 16.4851 18.907 16.7999 19.1343C17.1321 19.3441 17.578 19.5452 18.1375 19.7375C18.7146 19.9299 19.4402 20.131 20.3145 20.3408C21.2762 20.5856 22.1243 20.8566 22.8587 21.1539C23.6106 21.4511 24.2313 21.8183 24.721 22.2555C25.2106 22.6752 25.5778 23.1735 25.8226 23.7505C26.0848 24.3101 26.216 24.9658 26.216 25.7177V25.7701C26.216 26.627 26.0499 27.3963 25.7176 28.0783C25.4029 28.7602 24.957 29.3373 24.38 29.8094C23.8029 30.2815 23.1123 30.64 22.3079 30.8848C21.5036 31.1296 20.6205 31.252 19.6588 31.252Z" fill="white"/>
</svg>
