<svg width="182" height="47" viewBox="0 0 182 47" fill="none" xmlns="http://www.w3.org/2000/svg">
<g clip-path="url(#clip0_2129_2024)">
<path d="M115.36 16.6066C115.402 16.4157 114.547 14.6178 114.372 14.0557H99.5516C98.353 16.8133 93.4479 25.9455 91.732 25.5C89.9474 24.5932 92.809 4.35083 92.8565 2.65381C92.2388 3.98491 80.417 29.5039 78.8594 31.429C78.342 32.0707 77.7401 32.4048 77.7401 32.4048C76.853 32.9987 75.2268 32.9404 75.0315 32.9457C74.5615 32.9615 73.9227 32.9669 73.1465 32.9298C73.1518 26.8523 73.1624 20.7802 73.1676 14.7027H67.2594V33.1844H67.2224L67.2435 34.1335L67.233 34.4465L78.7433 34.1443C79.8943 32.3253 84.4985 24.4765 86.6051 25.081C87.0487 25.3091 87.1806 25.8924 87.2387 26.253C87.5925 28.4804 85.5755 43.743 85.5755 43.743L94.8841 24.9856C97.5294 19.9263 99.6413 16.336 100.175 15.8694C100.549 15.5406 100.967 15.3603 100.967 15.3603C101.305 15.2171 101.616 15.1694 101.838 15.1534H104.171L104.113 33.4813H110.022L110.08 15.1534H112.688C113.058 15.1746 113.564 15.2489 114.082 15.53C114.879 15.9648 115.259 16.6595 115.36 16.5906V16.6066Z" fill="white"/>
</g>
<defs>
<clipPath id="clip0_2129_2024">
<rect width="49.4274" height="42.3663" fill="white" transform="translate(66.5686 2)"/>
</clipPath>
</defs>
</svg>
