<svg width="182" height="47" viewBox="0 0 182 47" fill="none" xmlns="http://www.w3.org/2000/svg">
<g clip-path="url(#clip0_2129_2025)">
<path d="M75.4137 24.3578C75.404 24.3634 75.3943 24.3699 75.3838 24.3748C75.3838 24.3707 75.3862 24.3659 75.387 24.3602C75.3959 24.3594 75.4048 24.3586 75.4137 24.3578Z" fill="white"/>
<mask id="mask0_2129_2025" style="mask-type:luminance" maskUnits="userSpaceOnUse" x="32" y="2" width="45" height="44">
<path d="M54.477 45.7094C66.5471 45.7094 76.3318 35.9248 76.3318 23.8547C76.3318 11.7847 66.5471 2 54.477 2C42.407 2 32.6223 11.7847 32.6223 23.8547C32.6223 35.9248 42.407 45.7094 54.477 45.7094Z" fill="white"/>
</mask>
<g mask="url(#mask0_2129_2025)">
<path d="M45.177 19.8643C45.2512 19.8758 45.3263 19.8857 45.4013 19.8948H45.3947C45.3221 19.8865 45.2487 19.889 45.177 19.8873V19.8643Z" fill="black"/>
<path d="M45.6479 19.9253C45.6889 19.9285 45.7348 19.9326 45.784 19.9359C45.7356 19.9392 45.6873 19.9523 45.6504 19.9269C45.6496 19.9269 45.6488 19.9269 45.6479 19.9253Z" fill="black"/>
<path d="M75.2701 29.2141C74.6574 29.8969 73.5161 30.1426 72.684 30.4403C71.6515 30.8106 70.6026 31.1363 69.5413 31.4159C68.7785 31.6171 68.0091 31.7936 67.2347 31.9461C67.2628 31.9214 67.2966 31.9041 67.3353 31.8917C67.4566 31.8546 67.5877 31.8389 67.6941 31.7655C67.7501 31.7259 67.8046 31.7276 67.8639 31.7268C67.9324 31.7259 68.0017 31.7276 68.0701 31.7268C68.1361 31.7251 68.202 31.7226 68.2672 31.7202V31.6443C68.1229 31.6443 67.9786 31.6451 67.8351 31.6443C67.7007 31.6427 67.5803 31.6847 67.4714 31.7606C67.4491 31.7754 67.431 31.8051 67.4087 31.8076C67.1358 31.8373 66.8801 31.9808 66.6031 31.928C66.4604 32.0723 66.2773 31.9849 66.1281 32.0253C66.1223 32.0558 66.1182 32.0739 66.114 32.0946C65.9879 32.0995 65.8617 32.0987 65.738 32.0979L65.7182 32.1778L65.6712 32.3675C65.6275 32.4426 65.6102 32.5671 65.583 32.6858C65.5681 32.7518 65.55 32.8153 65.5228 32.8689C65.5178 32.8804 65.5121 32.8912 65.5038 32.9027C65.498 32.9126 65.4906 32.9225 65.4815 32.9324C65.4782 32.9365 65.4749 32.9415 65.4725 32.9464C65.4568 32.9843 65.4716 33.0487 65.4453 33.0784C65.3719 33.1649 65.3826 33.2631 65.3809 33.3653C65.3587 33.3703 65.3405 33.3744 65.3059 33.3827C65.3026 33.4527 65.2976 33.5319 65.2935 33.6094C65.268 33.6193 65.244 33.6276 65.2135 33.6391V33.903C65.1888 33.908 65.1698 33.9121 65.1426 33.9178V34.1347C65.1113 34.1603 65.0841 34.1809 65.0486 34.2098C65.0799 34.3508 64.9447 34.4456 64.9356 34.5644C64.9257 34.7103 64.821 34.7788 64.7377 34.8967C64.7105 34.8983 64.6594 34.9025 64.6066 34.9066C64.6016 34.9297 64.5975 34.9487 64.5918 34.9759H64.2569C64.1967 34.9157 64.1349 34.8546 64.0615 34.7812C64.0615 34.6996 64.0673 34.5965 64.0599 34.4951C64.0491 34.3533 64.0244 34.2131 63.9642 34.082C63.951 34.0531 63.9403 34.0209 63.9386 33.9896C63.9353 33.9154 63.9378 33.8395 63.9378 33.7826C63.984 33.715 64.0203 33.6614 64.0615 33.6012C64.0615 33.5047 64.0566 33.4024 64.0623 33.3002C64.0673 33.2194 64.0533 33.1427 64.0343 33.066C64.0219 33.0157 64.0079 32.9662 63.9955 32.9159C63.9757 32.8318 63.9799 32.7419 63.9716 32.6421C64.0096 32.638 64.0417 32.6347 64.0838 32.6306L64.1365 32.4772L64.1967 32.3024C64.1967 32.3024 64.1934 32.3048 64.1918 32.3065C64.1159 32.3857 64.0145 32.3312 63.9271 32.3667C63.8389 32.403 63.7275 32.3824 63.6261 32.3865C63.5667 32.389 63.5106 32.4096 63.4562 32.4203C63.3284 32.445 63.1998 32.4887 63.0629 32.4714C62.9705 32.4591 62.8757 32.4689 62.7833 32.4698V32.5514H62.0518C62.0428 32.5836 62.0387 32.6025 62.0321 32.6281V33.052C62.0131 33.0751 61.9933 33.0982 61.9636 33.1031C61.9595 33.1361 61.9554 33.1682 61.9521 33.1996C61.9249 33.2087 61.9009 33.2169 61.877 33.226V33.3175C61.8548 33.3249 61.8317 33.3332 61.8012 33.3439V33.4404C61.7715 33.4511 61.7467 33.4593 61.717 33.4692V34.1446L61.7904 34.218V34.5141C61.6808 34.6295 61.5315 34.7062 61.3798 34.778C61.3245 34.8043 61.2569 34.8159 61.2453 34.9008H61.1109C61.0499 35.0303 61.0194 35.1515 61.0804 35.2851C61.0986 35.3239 61.0936 35.3775 61.0862 35.422C61.0763 35.4781 61.0524 35.5317 61.0334 35.5886C60.9905 35.6257 60.9427 35.6677 60.8875 35.7147V35.798C60.8512 35.803 60.8141 35.8088 60.8033 35.8104C60.6747 35.9382 60.5609 36.0512 60.4306 36.1798V36.3415H60.1923C60.128 36.4248 60.0711 36.5171 59.9968 36.5913C59.9177 36.6697 59.8228 36.7324 59.7329 36.7975C59.6579 36.8519 59.6167 36.9451 59.5276 36.9814C59.4691 37.0053 59.4204 37.0556 59.3478 37.0474C59.3247 37.0449 59.2918 37.054 59.2769 37.0705C59.1854 37.1702 59.0683 37.1744 58.9462 37.1702C58.8085 37.1661 58.6716 37.1719 58.5339 37.1686C58.3088 37.1636 58.0837 37.1603 57.8783 37.2791C57.8758 37.2923 57.8717 37.3113 57.8676 37.3302H57.3901C57.386 37.308 57.3819 37.289 57.3761 37.2601C57.2755 37.2981 57.2648 37.1653 57.1807 37.1554C57.1774 37.1232 57.1741 37.0911 57.1708 37.0597C57.1444 37.0498 57.1205 37.0416 57.0957 37.0317V36.6515C57.0677 36.6293 57.0355 36.6045 57.0026 36.5781C57.0463 36.4553 56.9267 36.3769 56.9325 36.2763C56.9391 36.1675 56.869 36.0941 56.8475 36.0141C56.7758 35.9522 56.7106 35.8978 56.6422 35.8401V35.6141C56.6174 35.6084 56.5985 35.6042 56.5721 35.5976C56.5515 35.5523 56.5276 35.5012 56.5012 35.4426C56.474 35.4401 56.4418 35.4368 56.4113 35.4344C56.3668 35.3346 56.3189 35.2373 56.2793 35.1375C56.2661 35.1012 56.2694 35.0583 56.2694 35.0179C56.2678 34.8332 56.2686 34.6485 56.2686 34.4588C56.2464 34.4539 56.2274 34.4497 56.1878 34.4398C56.1829 34.3302 56.1886 34.2098 56.1853 34.0943C56.168 34.0836 56.027 33.9459 56.0212 33.936C55.9981 33.8981 55.975 33.8593 55.9511 33.8214C55.8992 33.7397 55.839 33.6688 55.7301 33.6564V33.4676C55.7046 33.4626 55.6856 33.4585 55.6526 33.4519V33.0949C55.6056 33.0899 55.5734 33.0866 55.5264 33.0808V33.005H55.4852C52.5998 33.005 49.7358 32.9695 46.8611 32.6924C45.3808 32.5506 43.8552 32.1803 42.3734 32.1803V32.0979H41.7202C41.7211 32.1737 41.7062 32.2397 41.745 32.3238C41.792 32.4269 41.712 32.5349 41.6856 32.6405C41.6683 32.7089 41.6295 32.7683 41.6271 32.845C41.6238 32.911 41.5817 32.9753 41.5512 33.0577C41.5553 33.0635 41.5685 33.085 41.5834 33.108C41.5685 33.1856 41.5528 33.2689 41.5347 33.3637C41.5273 33.367 41.5034 33.3752 41.4803 33.3827C41.4621 33.4577 41.4432 33.5319 41.4225 33.6152H41.3335C41.1982 33.7744 41.2048 33.9855 41.0704 34.1487C40.8939 34.2997 40.663 34.298 40.4313 34.279C40.3348 34.3458 40.2342 34.3912 40.1171 34.3582C40.1097 34.3928 40.1056 34.4118 40.0998 34.439H39.8755C39.8664 34.4687 39.8598 34.4918 39.8508 34.5231H39.7526C39.7427 34.5528 39.7345 34.5767 39.7238 34.6072H39.6034C39.4954 34.7458 39.3519 34.7895 39.2076 34.8307C39.1993 34.8546 39.1911 34.8786 39.1828 34.9016H39.0377C39.0286 35.0204 39.036 35.14 39.0336 35.2571C39.0649 35.2686 39.0888 35.2769 39.1177 35.2876C39.1086 35.4608 39.1424 35.6364 39.0566 35.8038C39.0303 35.8063 38.9973 35.8104 38.9659 35.8137C38.9329 35.9036 38.8191 35.9333 38.7944 36.0042C38.7639 36.0933 38.6757 36.1271 38.6534 36.2079C38.5635 36.2285 38.4761 36.2483 38.3879 36.2689C38.3013 36.3877 38.3417 36.5262 38.3359 36.6054C38.279 36.7167 38.2526 36.7917 38.2064 36.8519C38.1644 36.9055 38.1009 36.9426 38.044 36.9896V37.0713C38.0209 37.0795 37.997 37.0878 37.9673 37.0977C37.9673 38.0501 44.4432 38.8154 45.3503 38.93C48.0007 39.2648 50.6742 39.3828 53.3444 39.41C56.5968 39.443 59.8599 39.3399 63.0876 38.9061C63.829 38.8063 72.0738 37.0746 71.8907 36.6285C71.8478 36.5237 71.9806 36.5138 71.9929 36.433C72.0935 36.4586 72.1166 36.3167 72.2164 36.3316C72.251 36.3365 72.2948 36.3209 72.3261 36.3011C72.3541 36.2838 72.369 36.2475 72.3929 36.2211C72.4201 36.1922 72.449 36.1444 72.4787 36.1436C72.5364 36.1419 72.5595 36.1015 72.5982 36.0784C72.6345 36.057 72.6807 36.0512 72.7194 36.0397C72.7211 36.0182 72.7219 36.005 72.7236 35.9828H72.8539C73.0477 35.6925 73.3256 35.6158 73.5342 35.3849C73.7783 35.1161 73.9515 34.7235 74.1246 34.406C74.5815 33.569 74.9781 32.6998 75.313 31.8076C75.7096 30.7479 76.018 29.6561 76.2333 28.5453C75.9042 28.6805 75.5966 29.1761 75.2701 29.2141ZM66.2138 32.1078C66.2138 32.1078 66.2147 32.1028 66.2155 32.1003H66.2608C66.2452 32.1028 66.2295 32.1053 66.2138 32.1078Z" fill="white"/>
<path d="M37.6727 9.37891C37.808 9.49683 37.8904 9.65021 37.9605 9.84483C37.9564 9.92977 37.9853 10.0535 37.902 10.1607H37.7816C37.7535 10.1269 37.7238 10.0914 37.6735 10.0328V9.62712H37.4666C37.4715 9.60156 37.4666 9.56775 37.4814 9.55291C37.5416 9.49188 37.6084 9.43663 37.6727 9.37973V9.37891Z" fill="white"/>
<path d="M76.7541 22.3819C76.7509 22.3761 76.7451 22.3712 76.741 22.3671H76.4317C76.416 22.3885 76.393 22.4223 76.3674 22.4594H76.2305C76.2247 22.4874 76.2206 22.5064 76.2157 22.5312H75.5411C75.5287 22.5617 75.5188 22.5848 75.5065 22.6144C75.4826 22.6144 75.4405 22.6037 75.4314 22.6161C75.3531 22.7299 75.2327 22.8041 75.1494 22.9113C75.1651 22.9352 75.1774 22.9534 75.1939 22.9781C75.1502 22.9831 75.1172 22.9864 75.0842 22.9905C75.0752 23.0144 75.0653 23.0383 75.0554 23.0631C75.024 23.0663 74.9911 23.0705 74.9589 23.0738C74.9606 23.1496 74.8517 23.1488 74.8575 23.2395C74.8599 23.2791 74.7824 23.3121 74.7684 23.3822C74.756 23.4457 74.6876 23.4985 74.6439 23.5562C74.5936 23.562 74.5425 23.5677 74.4946 23.5727C74.4798 23.6667 74.4443 23.7401 74.3891 23.7681C74.2984 23.8135 74.2068 23.858 74.1103 23.8893C74.0699 23.9025 74.0295 23.8959 74.0386 23.9553C73.9363 23.9949 73.905 24.1202 73.7929 24.1557C73.7887 24.4245 73.7962 24.695 73.7887 24.9573C73.75 24.9663 73.7318 24.9705 73.7071 24.9762V25.1939L73.6345 25.2665V25.4966H73.7722C73.7937 25.4669 73.8052 25.4298 73.8283 25.4207C74.1252 25.3028 74.4221 25.1989 74.6967 25.0463C74.7536 25.015 74.8096 24.9812 74.8641 24.9441V25.0059C75.043 24.9581 75.1857 24.8723 75.3234 24.7346C75.349 24.7082 75.391 24.6761 75.4207 24.6802C75.5032 24.6909 75.5419 24.634 75.5988 24.5845H75.7654C75.7712 24.5557 75.7753 24.5367 75.7794 24.5177C75.8347 24.512 75.8858 24.507 75.9361 24.5021V24.3594C75.9881 24.3157 76.045 24.2695 76.101 24.2225C76.1423 24.1887 76.1868 24.1582 76.2223 24.1202C76.2651 24.0732 76.3468 24.0122 76.4004 23.9726C76.4449 23.9396 76.4911 23.8943 76.5101 23.844C76.5579 23.7211 76.6733 23.6716 76.7607 23.562V22.3992C76.7607 22.3934 76.7574 22.3868 76.7541 22.3819ZM75.283 24.681H75.2203C75.2533 24.6579 75.2871 24.6356 75.3217 24.6142C75.3341 24.6068 75.3465 24.5994 75.3597 24.5919C75.3349 24.6208 75.3102 24.6488 75.283 24.681ZM75.7382 24.4245C75.7135 24.427 75.6763 24.4311 75.6392 24.4353C75.6293 24.441 75.6194 24.4476 75.6087 24.4526C75.6087 24.4485 75.6112 24.4435 75.612 24.4377C75.6211 24.4369 75.6302 24.4361 75.6392 24.4353C75.6516 24.4278 75.6631 24.4212 75.6747 24.4138C75.7341 24.3767 75.7918 24.3363 75.8479 24.2926C75.8116 24.3355 75.7761 24.3792 75.7382 24.4245Z" fill="white"/>
<path d="M72.7959 25.5906V25.8619C72.7192 25.9039 72.6384 25.9617 72.5493 25.9905C72.5007 26.0062 72.4372 25.974 72.3654 25.9608C72.3605 25.9699 72.3514 25.9913 72.3332 26.0301C72.1114 26.5001 70.7788 26.6131 70.3434 26.7162C69.1691 26.9933 67.9981 27.206 66.8147 27.4221C66.4313 27.4922 65.5753 27.465 65.252 27.686C65.1366 27.5846 65.0351 27.6959 64.9271 27.6951V27.7685H64.6797V27.7017C64.702 27.6942 64.7259 27.686 64.7572 27.6753V27.5194C64.8232 27.4139 64.8545 27.2976 65.0022 27.3124C65.022 27.178 65.1217 27.0766 65.1473 26.9479C65.172 26.943 65.191 26.9397 65.2157 26.9339V26.788C65.2413 26.783 65.2603 26.7789 65.2883 26.7731C65.2941 26.7409 65.29 26.6783 65.3098 26.67C65.4384 26.6123 65.4475 26.4424 65.5877 26.3905V26.2742C65.6437 26.2247 65.6866 26.1868 65.7435 26.1365V25.8916C65.7732 25.8817 65.7971 25.8734 65.8342 25.8602C65.84 25.791 65.8103 25.6961 65.906 25.6615C65.9266 25.4974 65.9464 25.3415 65.9637 25.2022C65.8763 25.0884 65.7641 25.1098 65.6883 25.1395C65.5035 25.2121 65.2999 25.2203 65.1234 25.3201C65.0756 25.3473 65.0055 25.3358 64.9436 25.3423C64.9238 25.377 64.9016 25.4166 64.8768 25.4594H64.5214V25.5732H63.8848C63.8477 25.5361 63.8196 25.5081 63.7743 25.4627V25.0026C63.5829 24.8253 63.4889 24.5952 63.2696 24.4311C63.2622 24.4303 63.216 24.4278 63.1822 24.4262C63.1451 24.3775 63.1162 24.3346 63.0824 24.2959C63.0412 24.2497 62.9892 24.2126 62.9537 24.1623C62.9282 24.1276 62.9768 24.0444 62.8647 24.0567C62.8845 23.8869 62.7905 23.7607 62.7063 23.6304C62.6255 23.6188 62.6115 23.4918 62.4952 23.5207V23.3673C62.4623 23.3591 62.4433 23.3541 62.4177 23.3467V23.2502C62.388 23.2395 62.3641 23.2313 62.3336 23.2205C62.3311 23.1768 62.3287 23.1307 62.3254 23.0795C62.308 23.0746 62.2899 23.0696 62.2528 23.0597C62.2561 23.0202 62.2594 22.974 62.2652 22.9031C62.2462 22.8833 62.205 22.8404 62.1646 22.7975C62.1703 22.795 62.1761 22.7917 62.1811 22.7893C62.1505 22.7266 62.1167 22.6656 62.0912 22.6012C62.0673 22.5427 62.0689 22.4553 62.0277 22.4256C61.9592 22.3753 61.9831 22.2837 61.9246 22.2458C61.8685 22.2087 61.8594 22.137 61.7976 22.1073V21.9794C61.6821 21.7518 61.5807 21.5531 61.4727 21.3395C61.4628 21.3395 61.4306 21.3354 61.3985 21.3329C61.3275 21.196 61.3391 21.0493 61.3416 20.8992C61.4916 20.7697 61.6764 20.8052 61.8627 20.7994C61.8693 20.8357 61.8759 20.8736 61.8842 20.9165C61.9007 20.9198 61.9196 20.9239 61.9485 20.9297V21.0542C62.0969 21.1581 62.1291 21.3156 62.1835 21.4566C62.2033 21.4607 62.2223 21.464 62.247 21.469V21.8022C62.308 21.8541 62.3567 21.8962 62.4111 21.9432V22.0611C62.4334 22.0685 62.4565 22.0768 62.4878 22.0875V22.2161L62.5719 22.3002V22.4891C62.6041 22.5485 62.6462 22.5963 62.656 22.6499C62.6725 22.7447 62.7773 22.7703 62.7979 22.856C62.8672 22.8527 62.8639 22.8981 62.8688 22.9484C62.8713 22.9665 62.9191 22.9764 62.9372 22.9979C62.9529 23.016 62.9554 23.0449 62.9636 23.068H63.0956C63.1187 23.1183 63.1426 23.1702 63.1665 23.223C63.211 23.242 63.258 23.2618 63.3009 23.2799C63.3215 23.3294 63.3603 23.378 63.3562 23.4226C63.3471 23.5182 63.4098 23.5834 63.4683 23.5966C63.5557 23.6155 63.5483 23.6922 63.559 23.7277C63.5796 23.8003 63.5862 23.8803 63.6027 23.9569C63.6184 24.0295 63.6761 24.093 63.6753 24.1516C63.6728 24.3206 63.7487 24.4691 63.7726 24.629C63.7734 24.6365 63.7726 24.6431 63.7726 24.6595C63.7924 24.6661 63.8155 24.6744 63.8468 24.6851V24.7659C63.893 24.8047 63.9285 24.8352 63.9788 24.8781C64.2251 24.8858 64.3881 24.8652 64.4678 24.8162C64.6138 24.794 64.7317 24.7816 64.8471 24.756C64.8917 24.7461 64.9494 24.7131 64.9642 24.676C64.9964 24.596 65.0591 24.5952 65.125 24.5845C65.1292 24.5655 65.1333 24.5466 65.1391 24.5194H65.3617C65.3716 24.4897 65.379 24.4666 65.3889 24.4361H65.5687C65.5786 24.4064 65.5868 24.3825 65.6 24.3437C65.6833 24.361 65.7575 24.3256 65.8334 24.2868C65.9464 24.2291 66.0684 24.2101 66.2004 24.225C66.2037 24.1672 66.2061 24.1202 66.2094 24.06H66.564C66.5731 24.027 66.5781 24.0081 66.5847 23.9825H66.7958L66.8815 23.8967C66.9219 23.8943 66.9681 23.8918 67.0143 23.8893C67.0341 23.7961 67.1495 23.8077 67.1767 23.7549C67.2097 23.6931 67.2955 23.6815 67.298 23.604H67.3854C67.3936 23.5809 67.4019 23.557 67.4126 23.5265H67.6484C67.6212 23.3467 67.6806 23.1991 67.8142 23.0688H67.8711C67.9305 23.0234 67.8958 22.908 68.0105 22.8998V22.7381C68.0987 22.6557 68.1737 22.5847 68.262 22.5014V22.2532C68.2455 22.2499 68.2117 22.2499 68.21 22.2425C68.182 22.1271 68.0509 22.1015 67.9948 21.9943C67.876 22.0594 67.815 21.9052 67.6921 21.9044C67.6006 21.9044 67.5091 21.8244 67.4134 21.7774C67.392 21.7321 67.3681 21.6801 67.3433 21.6265H67.1281C67.1223 21.6446 67.1141 21.6677 67.1034 21.6991H66.9739C66.9021 21.8401 66.7438 21.8673 66.6564 21.9926H66.5071C66.4989 22.0256 66.4939 22.0438 66.4873 22.0702H66.3084C66.2828 22.0405 66.2523 22.005 66.2028 21.9473V21.8137C66.1418 21.7659 66.0907 21.7263 66.0404 21.6867C66.0725 21.5696 65.8796 21.6793 65.9142 21.5605C65.8631 21.5218 65.812 21.4822 65.7551 21.4385V21.2554C65.732 21.2373 65.6949 21.1845 65.6569 21.1837C65.52 21.1804 65.4986 21.0278 65.3897 20.9948C65.379 20.9025 65.2957 20.9066 65.2215 20.8654C65.219 20.8307 65.2149 20.7788 65.2108 20.7268C65.1877 20.7219 65.1687 20.7177 65.1415 20.712V20.5668C65.1547 20.5627 65.1778 20.5545 65.2083 20.5437C65.2141 20.4283 65.2718 20.3376 65.3617 20.265H65.6495L65.7452 20.3607V20.4926C65.8037 20.5693 65.8606 20.6122 65.8705 20.665C65.8895 20.7606 65.9662 20.7911 66.0231 20.8472C66.0841 20.9082 66.2004 20.8959 66.2235 21.0039C66.3274 20.9742 66.3711 21.1193 66.4766 21.0938C66.4799 21.0938 66.4948 21.1383 66.5071 21.1672C66.5508 21.1696 66.597 21.1721 66.6416 21.1746C66.6968 21.229 66.7496 21.2826 66.8032 21.3362H67.0852C67.1289 21.2843 67.1701 21.2348 67.2205 21.1762H67.5577V21.276C67.5874 21.2859 67.6113 21.2942 67.6427 21.3049V21.4426C67.6724 21.4533 67.7169 21.4657 67.7169 21.469C67.6987 21.5556 67.8571 21.5135 67.8059 21.6174H68.0014C68.0121 21.6471 68.0195 21.671 68.0303 21.7015H69.5855C69.6812 21.6636 69.7571 21.6331 69.8305 21.6042C69.8354 21.5836 69.8395 21.5647 69.8445 21.5449H69.9649C70.11 21.6916 70.2527 21.836 70.4127 21.9984H70.6073C70.613 22.024 70.6172 22.0429 70.6246 22.0759H70.8225V22.3984C70.8472 22.4033 70.8654 22.4074 70.8992 22.414C70.9033 22.4726 70.9066 22.5377 70.9091 22.5748C70.9817 22.6482 71.0377 22.7051 71.1087 22.7761H71.333C71.3824 22.7192 71.4237 22.6705 71.4715 22.6153H71.676C71.742 22.753 71.7552 22.8907 71.6974 23.0457C71.6686 23.1241 71.6793 23.223 71.6933 23.3096C71.7024 23.3649 71.7362 23.4168 71.7313 23.4787C71.7263 23.5405 71.7304 23.6024 71.7304 23.6708C71.7519 23.6774 71.7758 23.6856 71.8071 23.6964V23.8753C71.8368 23.886 71.8607 23.8943 71.8921 23.905V24.126C71.916 24.1334 71.9341 24.1384 71.9572 24.1441C72.0083 24.2612 72.0669 24.3808 72.1139 24.5045C72.1617 24.6299 72.3011 24.714 72.2632 24.8723C72.2928 24.8781 72.3118 24.8822 72.3398 24.888V25.0183C72.4363 25.0603 72.4685 25.1444 72.513 25.2187C72.5559 25.2896 72.6103 25.3588 72.6301 25.4372C72.6549 25.5295 72.7588 25.518 72.7959 25.5906Z" fill="white"/>
<path d="M75.6386 24.4353C75.6289 24.4409 75.6192 24.4474 75.6086 24.4523C75.6086 24.4482 75.6111 24.4434 75.6119 24.4377C75.6208 24.4369 75.6297 24.4361 75.6386 24.4353Z" fill="white"/>
<path d="M65.5026 32.9027C65.497 32.9123 65.4898 32.9219 65.481 32.9315C65.4778 32.9355 65.4746 32.9403 65.4722 32.9451C65.4738 32.9403 65.477 32.9355 65.4802 32.9315C65.4882 32.9227 65.4954 32.9131 65.5026 32.9027Z" fill="white"/>
<path d="M45.177 19.8643V19.8873C45.2487 19.889 45.3221 19.8865 45.3947 19.8948H45.4013C45.3263 19.8857 45.2512 19.8758 45.177 19.8643ZM45.6479 19.9253C45.6479 19.9253 45.6495 19.9261 45.6503 19.9269C45.6875 19.9525 45.7361 19.9393 45.7848 19.936C45.7353 19.9327 45.6891 19.9286 45.6479 19.9253ZM47.4877 20.049C47.5322 20.058 47.5759 20.0696 47.6188 20.0853C47.6608 20.1009 47.7111 20.0985 47.7573 20.0985C47.8291 20.0993 47.9008 20.0993 47.9717 20.0993C47.8134 20.0795 47.6509 20.063 47.4877 20.049Z" fill="white"/>
<path d="M35.6934 12.1002C35.6958 12.0474 35.6967 12.0029 35.7338 11.951C35.9457 11.65 36.1461 11.3399 36.3539 11.0364C36.4792 10.8542 36.6128 10.6777 36.7398 10.4963C36.8033 10.4056 36.8784 10.3256 36.9344 10.2275C36.9691 10.1673 37.0408 10.1277 37.0953 10.079C37.1266 10.1029 37.1546 10.1343 37.1893 10.1499C37.2231 10.1656 37.2635 10.1656 37.2956 10.1714C37.3014 10.2002 37.3055 10.2192 37.3088 10.2357C37.3517 10.2431 37.3888 10.2505 37.4226 10.2563C37.4441 10.3907 37.3765 10.4798 37.3055 10.5532V10.7593C37.435 10.8954 37.4696 11.0727 37.5579 11.236H37.7657C37.7121 11.349 37.8803 11.3003 37.8506 11.391C37.9174 11.4496 37.8473 11.537 37.8754 11.5749C37.9306 11.6137 37.9669 11.6318 37.9925 11.659C38.0502 11.7209 38.0947 11.7968 38.1582 11.8504C38.2209 11.9031 38.3058 11.9287 38.371 11.9782C38.4295 12.0227 38.4757 12.0837 38.5326 12.1431H38.7305C38.7396 12.1678 38.7478 12.1918 38.7594 12.2223H39.3045C39.3482 12.308 39.3894 12.3872 39.4348 12.4763C39.5626 12.5439 39.7086 12.4993 39.8141 12.5101C39.8999 12.4293 39.9576 12.3748 40.0293 12.3072V11.8174C40.1201 11.8075 40.1506 11.7283 40.2223 11.6788H40.4779V11.2706C40.5233 11.2261 40.5513 11.1972 40.6041 11.1453H41.0189V11.0026C41.343 10.8979 41.6704 10.968 42.0035 10.9375C41.9936 10.8583 42.0118 10.8055 42.1017 10.7734C42.1577 10.7536 42.1907 10.6703 42.2419 10.606H42.3631C42.3969 10.5037 42.4695 10.4905 42.5511 10.4913C42.6336 10.4913 42.73 10.5194 42.7952 10.4847C42.8892 10.4353 42.9865 10.4806 43.0682 10.4452C43.1671 10.4031 43.2636 10.4122 43.3617 10.4089C43.4145 10.4072 43.4681 10.4089 43.5234 10.4089C43.5489 10.3759 43.5704 10.3487 43.5943 10.3173H43.8936C43.8994 10.2893 43.9035 10.2703 43.9085 10.2481C43.9761 10.2448 44.0412 10.2415 44.0998 10.2382C44.1064 10.2044 44.1105 10.1854 44.1155 10.1607H44.5121V10.0122C44.4527 9.94213 44.3901 9.86708 44.3241 9.78874H44.1253C44.1047 9.74751 44.0841 9.70793 44.0668 9.67247C44.0866 9.61392 44.1047 9.56031 44.1229 9.50589C44.1361 9.50424 44.1534 9.50754 44.1616 9.50012C44.2177 9.44816 44.2837 9.44239 44.3455 9.47373C44.4057 9.50424 44.4593 9.53722 44.4964 9.61144C44.5368 9.69556 44.5657 9.77637 44.5632 9.85141C44.649 9.87533 44.7166 9.90832 44.7851 9.90914C44.8601 9.90914 44.9351 9.87945 44.9698 9.87203C45.0275 9.81925 45.0572 9.79204 45.0984 9.75411C45.1166 9.68071 45.0795 9.60237 45.0275 9.53558C44.9269 9.40611 44.8651 9.26839 44.8972 9.10594C44.9772 9.05646 45.0539 9.00945 45.1355 8.95915H45.801V8.47343C45.8538 8.41158 45.8794 8.38107 45.9099 8.34479C46.0097 8.34479 46.1259 8.32252 46.2265 8.35304C46.2843 8.37035 46.356 8.35963 46.3931 8.39097C46.4508 8.44045 46.5193 8.40169 46.5638 8.43055C47.1873 8.8338 48.5537 8.71176 49.2678 8.77278C50.3456 8.86596 51.4259 8.92781 52.507 8.95915C54.6693 9.02182 56.8356 8.9608 58.9912 8.77608C60.4302 8.65321 61.8717 8.47013 63.2695 8.09822C64.3885 7.80052 66.1854 7.5086 66.893 6.50253C66.921 6.46213 66.949 6.41924 66.9886 6.39038C67.0167 6.36977 67.0496 6.3574 67.0802 6.34173C67.1568 6.30132 67.4207 5.99538 67.4001 5.88817C67.3844 5.80571 67.5057 5.85271 67.4834 5.7653C67.4504 5.74881 67.4075 5.72737 67.3638 5.7051V5.62264C67.4603 5.62429 67.5741 5.59707 67.6401 5.67954C67.697 5.74963 67.7597 5.79499 67.8388 5.83292C68.2462 6.02919 68.5744 6.43904 68.9348 6.71447C69.2951 6.9899 69.7405 7.28017 69.9598 7.69579C70.354 8.4421 69.4106 8.17904 68.7863 8.17904C68.755 8.21037 68.7303 8.23511 68.6989 8.26645H68.4045C68.3979 8.29201 68.393 8.31098 68.3864 8.33654H67.871C67.8462 8.3687 67.8207 8.40004 67.7992 8.42725C67.6277 8.40746 67.5477 8.51879 67.4603 8.63094C67.4356 8.63259 67.4034 8.63424 67.3746 8.63506C67.363 8.66887 67.3548 8.69279 67.3449 8.72248H67.2063C67.1973 8.75299 67.1898 8.7769 67.1808 8.80659H67.0397C67.034 8.83463 67.0298 8.85277 67.0249 8.87668C66.9762 8.87916 66.9301 8.88163 66.8864 8.88328C66.8591 8.91049 66.8352 8.93441 66.8097 8.95997C66.7091 8.96657 66.5977 8.95503 66.5557 9.09439H66.3809C66.3743 9.12078 66.3693 9.13892 66.3602 9.17273H66.2555C66.1912 9.22551 66.1607 9.25107 66.1335 9.27334V9.49022C66.2209 9.52486 66.3058 9.48032 66.394 9.5298C66.4674 9.57103 66.5672 9.56279 66.6019 9.66504C66.7016 9.6601 66.7973 9.66504 66.8418 9.78709H67.0983C67.1107 9.8176 67.1206 9.84152 67.1313 9.86626H67.2673C67.2772 9.83822 67.2863 9.81431 67.297 9.78462H67.5601V9.32859H67.4059C67.3886 9.24942 67.3721 9.17603 67.363 9.1381C67.4216 9.07542 67.4735 9.04409 67.4826 9.00368C67.4949 8.94513 67.598 8.97812 67.5725 8.89895C67.6261 8.88576 67.664 8.85854 67.6714 8.80329C67.7547 8.77773 67.8372 8.81566 67.9271 8.76536C67.9947 8.72825 68.1044 8.76618 68.1126 8.63754C68.2281 8.62187 68.3518 8.63259 68.4449 8.58476C68.5381 8.53611 68.6346 8.58476 68.7146 8.53776C68.8053 8.48333 68.9001 8.51714 68.9925 8.51219C69.1228 8.50477 69.2539 8.50395 69.3842 8.51219C69.5112 8.52044 69.6357 8.49652 69.766 8.53281C69.8864 8.56662 70.0208 8.55095 70.1404 8.55672C70.2303 8.48168 70.3466 8.45694 70.3911 8.35139H70.6113C70.6212 8.38107 70.6294 8.40499 70.6377 8.42808H70.7457V8.51054H70.8282V8.68042C70.8867 8.69856 70.9345 8.71341 70.9881 8.73072V8.93688C70.8669 9.04079 70.7515 9.13892 70.6203 9.25107C70.5997 9.2519 70.5536 9.25437 70.5107 9.25685C70.5 9.28818 70.4917 9.3121 70.481 9.34178H70.3845C70.3738 9.3723 70.3655 9.39621 70.3573 9.41848H70.2443C70.1849 9.45888 70.1363 9.49104 70.0934 9.51991V9.7607C70.2509 9.92893 70.4389 10.0122 70.6129 10.0906V10.2365H70.3853C70.3754 10.2068 70.3672 10.1829 70.3565 10.1532H69.9293C69.9227 10.1277 69.9178 10.1087 69.9112 10.0831H69.5838C69.4444 9.97676 69.2902 9.97429 69.1451 9.95779C69.0024 9.9413 68.8556 9.96439 68.7129 9.95202C68.5422 9.93718 68.4441 10.0262 68.3847 10.2349C68.3476 10.2415 68.3097 10.2481 68.2775 10.2538C68.2718 10.2819 68.2676 10.3008 68.2627 10.3256C68.1225 10.3256 67.9856 10.3256 67.8495 10.3248C67.8396 10.3248 67.8289 10.3107 67.8232 10.3058C67.8174 10.2835 67.8133 10.2646 67.8091 10.2481H67.0488C67.0389 10.2769 67.0298 10.3008 67.02 10.3297C66.9507 10.3231 66.8831 10.3107 66.8344 10.3808C66.7965 10.4353 66.7338 10.4056 66.6827 10.4031C66.653 10.4015 66.6225 10.366 66.5961 10.3693C66.4988 10.3817 66.4699 10.3182 66.4435 10.2481H66.0172C66.0073 10.2769 65.9982 10.3008 65.9924 10.3198C65.8341 10.3223 65.7055 10.4105 65.5554 10.432C65.4474 10.4476 65.3426 10.4427 65.2371 10.4435C65.1422 10.3371 65.0507 10.4468 64.9608 10.4559C64.899 10.4625 64.8388 10.5284 64.7885 10.5788C64.7654 10.6018 64.767 10.6505 64.7563 10.6926H64.6194C64.5996 10.6505 64.5807 10.6101 64.5716 10.5911C64.5897 10.4905 64.6046 10.408 64.6161 10.3454C64.6507 10.3198 64.673 10.3041 64.706 10.2811C64.6549 10.2316 64.6161 10.1945 64.5856 10.1648H64.1659C64.1551 10.1912 64.1452 10.2151 64.1353 10.239C64.1032 10.2431 64.0702 10.2464 64.0174 10.253C64.0529 10.3495 64.01 10.4419 64.0512 10.5466C64.0875 10.6389 64.0974 10.7453 64.1642 10.8336C64.1114 10.8797 64.0669 10.9177 64.0067 10.9696C63.9745 10.9276 63.9449 10.8657 63.9251 10.869C63.8442 10.8814 63.8797 10.7948 63.8409 10.7816H63.5515C63.5259 10.8072 63.502 10.8311 63.4773 10.8558C63.2686 10.8789 63.0674 10.9193 62.9487 11.1667V11.3003C62.8637 11.3209 62.7887 11.3539 62.7145 11.3539C62.6419 11.3539 62.5693 11.3201 62.5124 11.3044C62.4984 11.2682 62.4918 11.2508 62.4885 11.2418H62.1389C62.1323 11.2673 62.1273 11.2863 62.1191 11.3168C62.0688 11.3168 62.0012 11.2962 61.9649 11.3209C61.8676 11.3886 61.795 11.3473 61.7183 11.2945C61.7158 11.236 61.7257 11.1783 61.6796 11.1238C61.6433 11.0818 61.6194 11.0257 61.6029 10.9713C61.5897 10.9284 61.5963 10.8797 61.5938 10.8319C61.6334 10.8097 61.6647 10.7923 61.7002 10.7725C61.715 10.8088 61.7241 10.8327 61.7323 10.8542C61.9195 10.8707 62.1051 10.9012 62.2906 10.9012C62.4828 10.9012 62.6749 10.8715 62.8646 10.8542C62.8736 10.827 62.8819 10.8031 62.8918 10.7734H63.1136C63.1202 10.747 63.1252 10.7288 63.1342 10.695H63.2942C63.3503 10.6365 63.3849 10.6002 63.4245 10.5598C63.3132 10.5054 63.2167 10.4196 63.1194 10.4188C62.9916 10.4188 62.9017 10.3281 62.7829 10.3272C62.6667 10.3272 62.5512 10.3272 62.4374 10.3272C62.425 10.2975 62.416 10.2745 62.4028 10.2439H61.6927C61.6812 10.2126 61.673 10.1887 61.6647 10.1664C61.6152 10.164 61.5691 10.1607 61.5245 10.1582C61.5179 10.1334 61.513 10.1145 61.5047 10.0807C61.4256 10.084 61.3447 10.0716 61.2697 10.0246C61.2054 9.98501 61.1262 9.97099 61.0611 9.93305C60.9943 9.89347 60.8986 9.88852 60.8739 9.78462H60.6158C60.6092 9.75905 60.6042 9.74009 60.5976 9.71452H59.6245C59.6023 9.68401 59.5784 9.65103 59.5627 9.62958H58.5616C58.5509 9.65597 58.541 9.67989 58.5319 9.70298C58.4667 9.70793 58.4024 9.7137 58.348 9.71782C58.3381 9.75246 58.3331 9.7706 58.3257 9.79534H57.9381C57.9109 9.82503 57.8878 9.85059 57.8664 9.8745C57.6957 9.86378 57.5398 9.90584 57.3898 9.97676C57.3609 9.98995 57.3271 9.99738 57.2957 9.99655C57.2125 9.9949 57.1399 10.0172 57.0764 10.0873H56.8224C56.8158 10.1128 56.8109 10.1318 56.8018 10.1648H56.4909C56.4835 10.1978 56.4793 10.2167 56.4744 10.2423H56.3128C56.2039 10.3767 56.0678 10.4674 56.006 10.6249H55.8271C55.8353 10.6373 55.8435 10.6497 55.8526 10.6612C55.7264 10.695 55.7058 10.8492 55.5425 10.874C55.5178 10.9622 55.3834 10.9655 55.3389 11.0801H55.2465C55.1863 11.128 55.155 11.1519 55.1154 11.1832V11.3152H55.0115C54.9785 11.3556 54.9406 11.4034 54.9035 11.4496H54.7583C54.7525 11.4776 54.7484 11.4966 54.7435 11.5197C54.6948 11.5221 54.6486 11.5238 54.5629 11.5279C54.5579 11.5403 54.5414 11.5807 54.5291 11.6112H54.2281C54.2182 11.6401 54.2091 11.664 54.1992 11.6945H54.0252C53.9724 11.7803 53.9139 11.8545 53.8314 11.8817C53.7597 11.9048 53.7555 11.9905 53.6805 12.0062C53.6599 12.0103 53.6459 12.0714 53.6401 12.1085C53.631 12.1612 53.6442 12.2099 53.6764 12.2586C53.6945 12.2866 53.6797 12.3369 53.6797 12.3699C53.711 12.4012 53.7358 12.426 53.758 12.4482C53.7811 12.6206 53.7201 12.8003 53.8182 12.962C53.8553 12.9677 53.8924 12.9727 53.9197 12.9768C53.9295 13.0115 53.9345 13.0296 53.9394 13.0461C53.9914 13.0486 54.0376 13.0519 54.0805 13.0535C54.0912 13.084 54.0994 13.1088 54.1052 13.1253H54.7146C54.7633 13.0799 54.7929 13.0527 54.8317 13.0164C54.8334 12.9875 54.8358 12.9405 54.8367 12.9191C54.9133 12.8564 54.9735 12.8069 55.0395 12.7525C55.0923 12.7731 55.1459 12.7937 55.2053 12.8168V13.0337C55.2366 13.0453 55.2605 13.0535 55.2836 13.0618C55.2861 13.1121 55.2894 13.1582 55.2919 13.2044C55.3158 13.2102 55.3347 13.2143 55.3537 13.2184C55.4123 13.3322 55.418 13.4559 55.4106 13.5805H56.3466C56.3565 13.5516 56.3655 13.5285 56.3763 13.498C56.5486 13.5433 56.6088 13.3751 56.7366 13.3149V13.1409C56.7622 13.1343 56.7812 13.1294 56.8067 13.1228V12.9859C56.9329 12.8704 57.0566 12.7591 57.1935 12.6346V12.52C57.2215 12.5142 57.2405 12.5101 57.2628 12.5059V12.3674C57.1795 12.3262 57.1036 12.2693 57.0195 12.252C56.9263 12.233 56.8892 12.1497 56.8158 12.1175V12.0062C56.9205 11.9246 57.0187 11.8487 57.1217 11.7687H57.4178C57.4467 11.7382 57.4706 11.7135 57.4994 11.6821H57.7542C57.7608 11.6557 57.7658 11.6368 57.7749 11.6038H57.9258C57.9085 11.4619 58.0124 11.4273 58.094 11.3721V11.1139C58.1385 11.062 58.169 11.0265 58.1946 10.9968H58.9112V11.1445C58.8692 11.1511 58.8312 11.1577 58.7982 11.1626C58.7925 11.1906 58.7884 11.2096 58.7834 11.2343H58.6581C58.6061 11.2945 58.564 11.3432 58.5179 11.3968C58.3653 11.3902 58.2672 11.5007 58.1187 11.6054H58.042C57.9761 11.7019 57.8664 11.753 57.8829 11.8825C57.8969 11.9897 57.8672 12.1093 58.0058 12.1588C58.0082 12.2049 58.0107 12.2511 58.0132 12.2948C58.0429 12.3056 58.0668 12.3138 58.0907 12.322V12.4037C58.127 12.435 58.1633 12.4655 58.2152 12.5092H58.6152C58.6251 12.4804 58.6341 12.4565 58.6391 12.4416C58.8345 12.4144 59.0094 12.3253 59.2089 12.3451C59.406 12.3641 59.6064 12.3493 59.8051 12.3493C59.8678 12.4202 59.9297 12.4895 59.9907 12.5579C59.9519 12.5975 59.9148 12.6346 59.8637 12.6857H58.4676V12.9537C58.5187 12.9644 58.5368 12.9974 58.5616 13.0362C58.5789 13.0642 58.6605 13.0519 58.6102 13.131H58.0322C58.0091 13.1648 57.9975 13.1978 57.9744 13.2118C57.8013 13.3166 57.718 13.4683 57.7213 13.6687C57.7213 13.7239 57.7221 13.7784 57.7213 13.8336C57.7213 13.8452 57.7114 13.8567 57.7056 13.8683L57.6924 13.8592C57.6668 13.8889 57.6404 13.9186 57.6042 13.9606H56.6608C56.65 13.992 56.6418 14.0159 56.6369 14.0307H55.9153C55.9087 14.0043 55.9037 13.9862 55.8947 13.9532H55.2061C55.2061 13.9186 55.2135 13.8946 55.2053 13.879C55.1616 13.8006 55.1451 13.714 55.089 13.6365C55.0296 13.5541 55.1624 13.4551 55.1253 13.3685C55.0651 13.3248 55.0181 13.291 54.9628 13.2506C54.7649 13.2745 54.5555 13.2885 54.3864 13.4477C54.3823 13.5128 54.3773 13.5904 54.3732 13.658C54.3377 13.6687 54.3188 13.6745 54.3056 13.6786V13.8559C54.4186 13.9087 54.4202 14.0183 54.487 14.1198C54.2973 14.1198 54.1341 14.1264 53.9716 14.1173C53.857 14.1107 53.7795 14.1874 53.6838 14.2204C53.7036 14.3061 53.6145 14.2872 53.5807 14.3152C53.5329 14.3548 53.4438 14.4059 53.3861 14.4735C53.3713 14.4909 53.3407 14.4942 53.3168 14.5041C53.3111 14.5544 53.3053 14.6055 53.3003 14.6467C53.1758 14.6682 53.0661 14.6871 52.954 14.7069C52.9128 14.7292 52.8658 14.7506 52.8237 14.7795C52.7816 14.8084 52.7462 14.8463 52.6934 14.8916C52.7338 15.0219 52.6076 15.0912 52.54 15.1918C52.3875 15.1819 52.2448 15.2306 52.098 15.2627C51.9842 15.2875 51.8704 15.3394 51.7475 15.3147C51.7368 15.3122 51.7236 15.3221 51.703 15.3287C51.6857 15.3485 51.6634 15.3741 51.6362 15.4054H51.5026C51.4968 15.4326 51.4927 15.4516 51.4878 15.4771H51.1868C51.162 15.5299 51.1406 15.5761 51.12 15.619C51.1719 15.6627 51.2635 15.6577 51.2429 15.7682H49.6002C49.6002 15.7435 49.6002 15.7179 49.6002 15.6858C47.1526 15.6858 44.6968 15.4153 42.3111 14.8653C41.0882 14.5832 39.8809 14.2253 38.7099 13.7709C38.1483 13.5532 37.5571 13.3347 37.0326 13.0378C36.753 12.8795 36.4595 12.5521 36.1593 12.5521H36.1181C36.1115 12.4686 36.0339 12.3361 35.8855 12.1546C35.8616 12.1662 35.8393 12.1777 35.8237 12.1852C35.7791 12.1522 35.742 12.1258 35.7057 12.0986L35.6934 12.1002ZM52.545 14.3358C52.4666 14.3127 52.4048 14.2699 52.3602 14.1948C52.333 14.1495 52.2902 14.1 52.2431 14.0843C52.1928 14.067 52.1706 14.0398 52.1425 14.0002C52.1153 13.9614 52.0593 13.9425 52.0337 13.9037C51.9661 13.7998 51.8721 13.7248 51.7764 13.6374C51.7747 13.6044 51.7723 13.5582 51.7698 13.5145C51.7393 13.5038 51.7154 13.4955 51.6882 13.4856C51.708 13.4131 51.6766 13.3446 51.7277 13.2696C51.7723 13.2044 51.7121 13.1203 51.67 13.0436H51.5348C51.4688 12.9933 51.4333 12.9628 51.3946 12.9372C51.2033 12.8111 51.0021 12.821 50.7909 12.9059C50.7728 12.9455 50.7489 12.9974 50.7233 13.056H50.3349V13.2927C50.3704 13.3595 50.4166 13.4048 50.4083 13.4378C50.3885 13.5244 50.5106 13.4774 50.4957 13.545C50.6301 13.7009 50.786 13.785 50.979 13.8361C51.0565 13.8567 51.148 13.8617 51.2033 13.9408C51.2404 13.9936 51.2849 14.0414 51.3319 14.0983C51.2189 14.1907 51.1109 14.2789 51.0037 14.3672C51.0012 14.3622 50.9988 14.3581 50.9963 14.3531C50.9509 14.3754 50.9056 14.3969 50.8742 14.4125V14.7333C51.0045 14.7605 51.068 14.857 51.1373 14.9444H52.4369C52.5268 14.862 52.606 14.7886 52.6777 14.7234V14.5016C52.6571 14.4975 52.639 14.4933 52.6134 14.4876C52.5928 14.4414 52.5689 14.3894 52.545 14.3367V14.3358ZM47.066 11.6871C47.0768 11.6153 47.1089 11.5889 47.1609 11.5584C47.2194 11.5246 47.2747 11.532 47.3316 11.5205C47.3868 11.5081 47.405 11.424 47.4833 11.4372C47.5089 11.4413 47.5419 11.3976 47.5682 11.4009C47.7084 11.4207 47.8222 11.358 47.9393 11.2962C47.9566 11.2294 47.974 11.1601 47.9896 11.0983C47.9459 11.0546 47.9113 11.0199 47.8775 10.9861C47.7645 11.0109 47.6977 10.8863 47.5823 10.9004C47.4751 10.9136 47.3646 10.9037 47.2689 10.9037C47.179 10.963 47.0974 10.9927 46.9992 10.9878C46.8623 10.9812 46.7114 10.9498 46.591 10.9952C46.4377 11.0529 46.3247 11.001 46.2084 10.9416C46.0929 10.8822 45.9791 10.8501 45.8497 10.8608C45.7689 10.8674 45.6864 10.8624 45.6105 10.8624C45.5042 10.9474 45.5652 11.0513 45.5503 11.1247C45.6114 11.1774 45.6542 11.2154 45.7095 11.2624C45.712 11.3102 45.7153 11.3754 45.7186 11.4397C45.8357 11.4397 45.9379 11.4397 46.041 11.4397C46.1894 11.4413 46.3412 11.5362 46.4286 11.6821C46.4599 11.6854 46.4929 11.6895 46.5234 11.6928C46.5333 11.7192 46.5416 11.7431 46.5498 11.7646H46.8533C46.8813 11.7357 46.9052 11.711 46.9283 11.6871H47.0652H47.066ZM49.5103 14.7729H50.1164C50.123 14.7473 50.1279 14.7292 50.1329 14.7102C50.2129 14.6838 50.3135 14.6904 50.3448 14.5783C50.3951 14.5742 50.4462 14.5692 50.4487 14.5692C50.5172 14.5156 50.5477 14.4917 50.5724 14.4727V13.8798C50.546 13.8732 50.5279 13.8683 50.5056 13.8625C50.4998 13.8262 50.4941 13.7883 50.4924 13.7742C50.3753 13.7 50.2722 13.6382 50.1502 13.6695C50.038 13.7479 49.8616 13.7627 49.8698 13.959H49.6282C49.5812 14.0043 49.5523 14.0315 49.5119 14.0711V14.7721L49.5103 14.7729Z" fill="white"/>
<path d="M57.7089 45.9626C57.2579 46.0014 56.8051 46.0253 56.3524 46.0442C53.8249 46.1506 51.2627 46.069 48.7838 45.5288C46.2241 44.9706 44.0405 43.807 41.8824 42.3622C41.6985 42.2385 41.5228 42.1024 41.343 41.9722C41.2482 41.9037 41.1509 41.8369 41.0577 41.7668C41.0379 41.752 41.028 41.7248 41.0132 41.7033C41.0305 41.6893 41.0478 41.6646 41.0651 41.6637C41.193 41.6604 41.3216 41.6621 41.4519 41.6621C41.461 41.6885 41.4692 41.7124 41.4799 41.7413C41.5599 41.9656 43.7155 42.2237 44.0157 42.2814C45.096 42.4892 46.1829 42.6649 47.2747 42.8075C49.4567 43.0937 51.656 43.2487 53.857 43.2743C56.1603 43.3015 58.4643 43.1852 60.7535 42.9271C61.9229 42.7951 63.0889 42.6261 64.2475 42.4191C65.1678 42.255 66.39 41.7107 67.2979 41.7437L67.3919 41.6497H67.6401C67.6508 41.6159 67.6566 41.5978 67.664 41.5738H67.8479C67.8727 41.545 67.8949 41.5194 67.9073 41.5046H68.1968C68.1671 41.5664 68.144 41.6159 68.1209 41.6646H68.0285C68.0244 41.6852 68.0203 41.7033 68.0145 41.7322C67.9832 41.738 67.9461 41.7454 67.9024 41.7536C67.8075 41.8781 67.6574 41.9598 67.5882 42.1132C67.3416 42.1519 67.1956 42.415 67.0324 42.5156C66.7462 42.6912 66.3603 42.8389 66.0444 43.05C65.2569 43.5769 64.4257 44.0379 63.5631 44.4312C61.88 45.1982 60.0757 45.702 58.2375 45.9098C58.0619 45.9296 57.8854 45.9469 57.7089 45.9618V45.9626Z" fill="white"/>
<path d="M59.4424 4.55225C58.9229 4.68254 58.3959 4.78397 57.8665 4.86149C56.2007 5.10723 54.5086 5.12043 52.8288 5.0561C51.6174 5.00992 50.4002 4.92334 49.2102 4.68007C48.5761 4.5506 47.9493 4.37907 47.3457 4.14405C46.8608 3.9552 46.4881 3.58906 46.0659 3.39939C46.0287 3.34167 45.9941 3.28807 45.9595 3.23364C46.2102 3.14375 46.4526 3.0316 46.7025 2.93842C49.1088 2.03791 51.6627 1.53982 54.2298 1.47055C55.5122 1.43592 56.7969 1.50848 58.0669 1.68826C59.3369 1.86803 60.4608 2.31416 61.6698 2.53352C61.6887 2.57392 61.7085 2.61351 61.7291 2.65721C61.8974 2.6267 62.0038 2.78916 62.1489 2.78998C62.1695 2.86997 62.1877 2.93924 62.2041 3.00521C62.106 3.12066 62.1316 3.29466 62.0137 3.39774C62.0384 3.3961 61.5279 3.82903 61.4686 3.86697C61.1329 4.0756 60.6744 4.18693 60.3 4.30733C60.0172 4.39804 59.731 4.47968 59.4424 4.55142V4.55225Z" fill="white"/>
<path d="M71.3632 10.8938C71.3615 10.8707 71.3599 10.8394 71.3574 10.8097C71.4036 10.7717 71.4432 10.728 71.4918 10.7C71.5364 10.6744 71.5158 10.5516 71.6221 10.6307C71.6568 10.5309 71.7128 10.4641 71.8069 10.4361C71.811 10.4031 71.8143 10.371 71.8176 10.3396C71.844 10.3306 71.8679 10.3215 71.8885 10.3141V10.1714C71.8646 10.1656 71.8464 10.1615 71.8192 10.1557V9.87782H71.886V9.96523C71.9446 10.0139 71.994 10.0543 72.0551 10.1054C72.0567 10.1351 72.0592 10.1813 72.0617 10.2308C72.0839 10.239 72.1078 10.2473 72.1359 10.258V10.3792C72.1029 10.4279 72.0724 10.4848 72.0303 10.5318C71.9973 10.5689 71.9182 10.5887 71.9141 10.6225C71.905 10.6983 71.8151 10.6876 71.8011 10.7602C71.7937 10.7998 71.7104 10.8237 71.6667 10.8517C71.5677 10.8657 71.4712 10.8789 71.3615 10.8938H71.3632Z" fill="white"/>
<path d="M60.5186 12.2915V12.1489H60.8542C60.921 12.2149 60.9861 12.2792 61.0612 12.3526C60.9837 12.4482 60.8715 12.4466 60.7767 12.4251C60.6868 12.4045 60.6076 12.3402 60.5194 12.2924L60.5186 12.2915Z" fill="white"/>
<path d="M45.6479 19.9253C45.6479 19.9253 45.6495 19.9261 45.6503 19.9269C45.6875 19.9525 45.7361 19.9393 45.7848 19.936C45.7353 19.9327 45.6891 19.9286 45.6479 19.9253ZM45.177 19.8873C45.2487 19.889 45.3221 19.8865 45.3947 19.8948H45.4013C45.3263 19.8857 45.2512 19.8758 45.177 19.8643V19.8873Z" fill="white"/>
<path d="M54.9718 27.2341C54.8866 27.2209 54.8346 27.1692 54.8159 27.0791C54.6972 27.0279 54.6197 26.9628 54.5545 26.8556C54.5232 26.8655 54.4712 26.8663 54.4572 26.8902C54.3946 26.9941 54.2931 27.0444 54.1942 27.0997C54.0853 27.1615 53.9616 27.1764 53.8495 27.1368C53.748 27.1013 53.6821 27.0057 53.6293 26.9092C53.5905 26.8391 53.5526 26.7674 53.5147 26.6964C53.4165 26.6981 53.4973 26.6008 53.4075 26.5571C53.3176 26.4631 53.1609 26.4919 53.0092 26.4903C52.9341 26.4894 52.8582 26.4903 52.8096 26.4903C52.6471 26.5612 52.5069 26.6222 52.3395 26.6948C52.1829 26.6362 52.0344 26.783 51.8621 26.7896C51.8563 26.816 51.8522 26.835 51.8472 26.8597H50.3662C50.2441 26.9842 50.1707 27.15 49.9852 27.1046C49.9332 27.0453 49.8961 27.0016 49.8475 26.9455H49.6809C49.6768 26.9207 49.6792 26.8886 49.6702 26.8845C49.5869 26.8482 49.5481 26.7591 49.4492 26.7294C49.351 26.7006 49.2471 26.6338 49.2117 26.5092C49.2034 26.4804 49.1548 26.4622 49.1259 26.4408C49.1012 26.4622 49.0871 26.4754 49.0682 26.4927C49.0599 26.4664 49.0509 26.4424 49.0451 26.4243C48.9882 26.4029 48.9346 26.3822 48.8876 26.3641V26.2256C48.8224 26.153 48.7598 26.0821 48.6789 25.9922V25.8025C48.6476 25.7918 48.6237 25.7836 48.6014 25.7753C48.5998 25.7382 48.5973 25.706 48.5957 25.6772C48.5627 25.6656 48.5388 25.6574 48.5165 25.65V25.6277L48.4233 25.5691L48.1182 25.377L48.0192 25.1733C48.006 25.1667 47.9937 25.1601 47.9805 25.1519V25.0933L47.9763 25.0851L47.7743 24.6678V24.5111H47.6984L47.9549 23.8102L47.9854 23.7269V23.2379C47.9071 23.0061 47.8494 22.8387 47.7924 22.6705C47.7867 22.673 47.7801 22.6746 47.7743 22.6763V22.3819C47.8675 22.3407 47.8617 22.2219 47.9392 22.1592C48.0102 22.1023 48.072 22.0331 48.152 21.9547V21.798C48.1784 21.7914 48.1965 21.7865 48.2295 21.7783V21.6339C48.2633 21.6249 48.2914 21.6257 48.2988 21.6133C48.3309 21.5589 48.3474 21.4896 48.3903 21.4484C48.4299 21.4105 48.4159 21.3206 48.5016 21.3305C48.4901 21.2521 48.5792 21.2488 48.6105 21.1952C48.6394 21.1458 48.6938 21.0484 48.7936 21.0872C48.8051 21.0526 48.8134 21.0287 48.8208 21.0064H48.9552C48.9626 20.9833 48.9709 20.9594 48.975 20.9487C49.055 20.9 49.1267 20.8563 49.2166 20.8027C49.2389 20.801 49.2851 20.7986 49.3288 20.7961C49.3395 20.7656 49.3477 20.7417 49.3584 20.712H49.5061C49.5061 20.6378 49.5069 20.5701 49.5061 20.5025C49.5044 20.4366 49.5011 20.3706 49.4995 20.3153C49.4821 20.312 49.4657 20.3087 49.4492 20.3054C49.4508 20.2947 49.4516 20.284 49.4516 20.2725C49.4516 20.2419 49.445 20.2123 49.4335 20.1842C49.3997 20.1817 49.365 20.1817 49.3304 20.1817C49.1383 20.1809 48.9461 20.1793 48.7532 20.1826C48.6979 20.1834 48.6443 20.1817 48.5957 20.1652C48.5899 20.1751 48.5849 20.185 48.5825 20.1949C48.3944 20.157 48.1866 20.1257 47.9714 20.0993C47.9005 20.0993 47.8287 20.0993 47.757 20.0985C47.7108 20.0985 47.6605 20.1009 47.6184 20.0853C47.5756 20.0696 47.5319 20.058 47.4873 20.049C47.348 20.0185 47.2053 20.011 47.0659 19.9789C46.9579 19.955 46.8383 19.9962 46.7328 19.9343C46.5365 19.964 46.3477 19.8882 46.1522 19.8931C46.078 19.8948 46.0038 19.8931 45.9386 19.8931C45.9057 19.8593 45.8809 19.8346 45.857 19.8107H45.1767V19.8643C45.2509 19.8758 45.3259 19.8857 45.401 19.8948H45.3944C45.3218 19.8865 45.2484 19.889 45.1767 19.8873V19.8643C43.6668 19.6589 42.1643 19.4066 40.6708 19.1072C38.6282 18.699 36.5633 18.1878 34.7911 17.0926C34.3359 16.8114 34.3252 16.8213 33.7817 16.6382C33.4395 16.8683 33.207 17.6204 32.9901 18.398C32.6512 19.6127 32.459 20.8472 32.3518 22.1015C32.2982 22.7258 31.9378 24.0452 32.5167 24.5045C32.6949 24.6464 32.9175 24.7577 33.0074 24.9663C33.6077 24.9721 33.9689 25.4553 34.4612 25.5683C34.533 25.5848 34.5948 25.5988 34.6658 25.6145C34.6905 25.5832 34.768 25.6145 34.7903 25.5362C34.8002 25.4999 34.853 25.4751 34.9074 25.4257H35.304C35.3378 25.4685 35.3774 25.5172 35.4236 25.5757C35.4871 25.6549 35.7312 25.532 35.7832 25.4925C35.7683 25.6928 35.7131 25.8891 35.6644 26.0887C35.5852 26.4136 44.7734 27.8963 45.6121 27.9895C47.3158 28.1808 49.0278 28.3045 50.7414 28.3614C51.0844 28.3721 51.4275 28.3812 51.7705 28.387H50.6606V28.457C51.1562 28.4752 51.6369 28.5098 52.1177 28.5074C52.9836 28.5024 53.8495 28.5395 54.7145 28.4925L54.7294 28.2608L54.7442 28.015C54.7409 27.9078 54.7327 27.8015 54.7516 27.6976C54.7755 27.6885 54.7995 27.6802 54.8316 27.6687C54.7805 27.5565 54.9215 27.5524 54.9372 27.4716C54.9528 27.3933 55.0345 27.324 54.9718 27.2341ZM33.7108 23.515H32.8169C32.8103 23.491 32.8062 23.4721 32.7988 23.4457C32.6561 23.4176 32.4945 23.4803 32.3658 23.3913C32.3081 23.2841 32.4252 23.2651 32.4549 23.2057C32.478 23.1604 32.5769 23.1538 32.6388 23.1307C32.6429 23.1101 32.647 23.0919 32.652 23.068C32.8952 23.068 33.1336 23.0696 33.3719 23.0672C33.4981 23.0663 33.6011 23.0985 33.6506 23.2296C33.6597 23.2527 33.6877 23.2684 33.7108 23.2915V23.515ZM34.4876 23.5974H34.2534V23.3632H34.4876V23.5974ZM45.65 19.9269C45.65 19.9269 45.6484 19.9269 45.6475 19.9253C45.6888 19.9286 45.735 19.9327 45.7844 19.936C45.7358 19.9393 45.6871 19.9525 45.65 19.9269Z" fill="white"/>
<path d="M64.1556 32.4772C64.1269 32.5386 64.104 32.5878 64.0835 32.6296L64.1359 32.4772H64.1556Z" fill="white"/>
<path d="M65.7177 32.1778L65.6707 32.3675V32.1778H65.7177Z" fill="white"/>
</g>
</g>
<path d="M128.012 15.7341C128.012 19.2852 125.272 22.0432 121.306 22.0432H116.385V9.42503H121.306C125.272 9.42503 128.012 12.147 128.012 15.6981V15.7341ZM125.11 15.7702V15.7341C125.11 13.4989 123.578 11.9306 121.306 11.9306H119.161V19.5376H121.306C123.578 19.5376 125.11 18.0054 125.11 15.7702Z" fill="white"/>
<path d="M115.338 22.0432H112.436L111.282 19.2131H105.947L104.793 22.0432H101.963L107.371 9.33488H109.93L115.338 22.0432ZM110.291 16.7616L108.614 12.6697L106.938 16.7616H110.291Z" fill="white"/>
<path d="M102.252 20.0063C100.954 21.3943 99.5122 22.2595 97.0787 22.2595C93.3654 22.2595 90.6074 19.3934 90.6074 15.7702V15.7341C90.6074 12.147 93.3113 9.20872 97.1869 9.20872C99.5663 9.20872 100.99 10.0019 102.162 11.1555L100.396 13.1925C99.4221 12.3092 98.4307 11.7684 97.1689 11.7684C95.0418 11.7684 93.5096 13.535 93.5096 15.6981V15.7341C93.5096 17.8972 95.0058 19.6998 97.1689 19.6998C98.611 19.6998 99.4942 19.123 100.486 18.2217L102.252 20.0063Z" fill="white"/>
<path d="M79.5764 18.3118C79.5764 20.8174 81.4871 22.2235 84.209 22.2235C86.1198 22.2235 88.0486 21.5565 89.5627 20.2046L87.9224 18.2397C86.7867 19.1771 85.597 19.7719 84.155 19.7719C83.0193 19.7719 82.3343 19.3213 82.3343 18.5822V18.5462C82.3343 17.8432 82.767 17.4826 84.876 16.9419C87.4177 16.2929 89.058 15.5899 89.058 13.0843V13.0482C89.058 10.7589 87.2194 9.24477 84.6417 9.24477C82.803 9.24477 81.2347 9.8216 79.9549 10.8491L81.397 12.9401C82.5146 12.165 83.6142 11.6963 84.6777 11.6963C85.7412 11.6963 86.3 12.183 86.3 12.7959V12.8319C86.3 13.6611 85.7593 13.9315 83.5781 14.4903C81.0184 15.1573 79.5764 16.0766 79.5764 18.2758V18.3118Z" fill="white"/>
<rect x="128.496" y="19.3579" width="2.7578" height="2.7578" fill="white"/>
<path d="M138.95 34.571C138.95 37.0767 140.861 38.4827 143.583 38.4827C145.494 38.4827 147.422 37.8157 148.937 36.4638L147.296 34.4989C146.161 35.4363 144.971 36.0311 143.529 36.0311C142.393 36.0311 141.708 35.5805 141.708 34.8414V34.8054C141.708 34.1024 142.141 33.7418 144.25 33.2011C146.791 32.5521 148.432 31.8491 148.432 29.3435V29.3075C148.432 27.0182 146.593 25.504 144.015 25.504C142.177 25.504 140.609 26.0808 139.329 27.1083L140.771 29.1993C141.888 28.4242 142.988 27.9555 144.051 27.9555C145.115 27.9555 145.674 28.4422 145.674 29.0551V29.0911C145.674 29.9203 145.133 30.1907 142.952 30.7495C140.392 31.4165 138.95 32.3358 138.95 34.535V34.571Z" fill="white"/>
<path d="M137.994 32.8045C137.994 36.626 135.849 38.5007 132.46 38.5007C129.072 38.5007 126.999 36.608 126.999 32.8947V25.6843H129.775V32.8225C129.775 34.8775 130.802 35.941 132.496 35.941C134.191 35.941 135.218 34.9136 135.218 32.9127V25.6843H137.994V32.8045Z" fill="white"/>
<path d="M115.103 34.571C115.103 37.0767 117.014 38.4827 119.736 38.4827C121.647 38.4827 123.575 37.8157 125.09 36.4638L123.449 34.4989C122.314 35.4363 121.124 36.0311 119.682 36.0311C118.546 36.0311 117.861 35.5805 117.861 34.8414V34.8054C117.861 34.1024 118.294 33.7418 120.403 33.2011C122.945 32.5521 124.585 31.8491 124.585 29.3435V29.3075C124.585 27.0182 122.746 25.504 120.169 25.504C118.33 25.504 116.762 26.0808 115.482 27.1083L116.924 29.1993C118.041 28.4242 119.141 27.9555 120.205 27.9555C121.268 27.9555 121.827 28.4422 121.827 29.0551V29.0911C121.827 29.9203 121.286 30.1907 119.105 30.7495C116.545 31.4165 115.103 32.3358 115.103 34.535V34.571Z" fill="white"/>
<path d="M114.852 38.3024H111.607L108.777 33.9762L105.929 38.3024H102.775L107.173 31.8852L102.955 25.6843H106.2L108.849 29.7762L111.517 25.6843H114.672L110.454 31.8491L114.852 38.3024Z" fill="white"/>
<path d="M102.044 38.3024H93.0967V25.6843L101.954 25.6843V28.1538H95.8547V30.4518H100.422V32.9214H95.8547V35.8329H102.044V38.3024Z" fill="white"/>
<path d="M90.7886 38.3024H88.4272L82.3164 30.2809V38.3024H79.5764V25.6843H82.1361L88.0486 33.4535V25.6843H90.7886V38.3024Z" fill="white"/>
<defs>
<clipPath id="clip0_2129_2025">
<rect width="43.7095" height="43.7095" fill="white" transform="translate(32.6223 2)"/>
</clipPath>
</defs>
</svg>
