<svg width="182" height="47" viewBox="0 0 182 47" fill="none" xmlns="http://www.w3.org/2000/svg">
<path d="M168.698 30.5442C170.287 30.5442 171.535 30.1471 172.443 29.3528C173.373 28.5585 173.838 27.5373 173.838 26.2892V26.2211C173.838 24.8141 173.373 23.7588 172.443 23.0554C171.512 22.3292 170.264 21.9661 168.698 21.9661H163.83V30.5442H168.698ZM159.643 18.1536H169.039C170.423 18.1536 171.671 18.3465 172.783 18.7322C173.918 19.0953 174.871 19.6286 175.643 20.3321C176.437 21.0356 177.038 21.8753 177.447 22.8511C177.878 23.8269 178.093 24.9162 178.093 26.119V26.187C178.093 27.526 177.844 28.706 177.345 29.7272C176.845 30.7257 176.165 31.5654 175.302 32.2462C174.44 32.927 173.43 33.449 172.272 33.812C171.115 34.1525 169.878 34.3227 168.562 34.3227H163.83V41.9817H159.643V18.1536Z" fill="white"/>
<path d="M132.781 18.1536H137.24L144.491 29.4209L151.742 18.1536H156.201V41.9817H152.014V24.8935L144.491 36.1268H144.355L136.9 24.9616V41.9817H132.781V18.1536Z" fill="white"/>
<path d="M123 32.5181L118.881 22.9868L114.796 32.5181H123ZM117.009 17.9829H120.889L131.374 41.9812H126.949L124.532 36.2284H113.264L110.813 41.9812H106.524L117.009 17.9829Z" fill="white"/>
<path d="M4.85962 37.9554L6.37981 36.112C8.64375 38.2143 10.7782 39.2814 13.7537 39.2814C16.6321 39.2814 18.5727 37.6644 18.5727 35.4652V35.4004C18.5727 33.3307 17.5055 32.1344 12.9776 31.1312C8.02915 29.9993 5.73308 28.35 5.73308 24.6625V24.5984C5.73308 21.0729 8.70861 18.4858 12.8161 18.4858C15.9533 18.4858 18.2173 19.4236 20.3844 21.2348L18.9613 23.1755C16.9561 21.4937 14.9507 20.7498 12.7515 20.7498C9.93769 20.7498 8.15898 22.3671 8.15898 24.3722V24.4371C8.15898 26.5388 9.25834 27.7355 14.0128 28.8028C18.7994 29.9024 21.0311 31.7133 21.0311 35.1419V35.2065C21.0311 39.0549 17.9584 41.5453 13.657 41.5453C10.2608 41.5779 7.44704 40.3813 4.85962 37.9554Z" fill="white"/>
<path fill-rule="evenodd" clip-rule="evenodd" d="M3.8938 38.0162L6.30721 35.0896L6.85306 35.5965C9.02211 37.6108 10.9934 38.5783 13.749 38.5783C16.3905 38.5783 17.8657 37.1403 17.8657 35.4644V35.3996C17.8657 34.5152 17.6519 33.924 17.023 33.4081C16.3263 32.8366 15.0684 32.3141 12.821 31.8161L12.8163 31.8151C10.3167 31.2433 8.36646 30.5181 7.03983 29.3893C5.66595 28.2203 5.02606 26.6769 5.02606 24.6617V24.5976C5.02606 20.592 8.41515 17.7827 12.8114 17.7827C16.1237 17.7827 18.545 18.7852 20.8301 20.6951L21.3358 21.1177L19.0797 24.1946L18.5053 23.7128C16.6114 22.1244 14.7622 21.4513 12.7468 21.4513C10.1862 21.4513 8.85664 22.8763 8.85664 24.3714V24.4363C8.85664 24.9025 8.91794 25.272 9.0484 25.5842C9.17601 25.8896 9.38514 26.1771 9.73704 26.4587C10.4721 27.0467 11.7978 27.5861 14.162 28.1168L14.1654 28.1175C16.5984 28.6765 18.4893 29.4371 19.7766 30.5712C21.1013 31.7384 21.7287 33.2492 21.7287 35.1411V35.2057C21.7287 37.3319 20.8731 39.1146 19.4058 40.3547C17.9497 41.5852 15.9364 42.2462 13.6556 42.2468C10.0613 42.2805 7.07852 41.0022 4.37454 38.4669L3.8938 38.0162ZM13.6523 41.5445C17.9538 41.5445 21.0264 39.0541 21.0264 35.2057V35.1411C21.0264 31.7125 18.7947 29.9016 14.0081 28.802C9.25366 27.7347 8.1543 26.538 8.1543 24.4363V24.3714C8.1543 22.3662 9.933 20.749 12.7468 20.749C14.745 20.749 16.5832 21.3632 18.4067 22.737C18.5901 22.8751 18.7733 23.021 18.9566 23.1747L20.3797 21.234C18.2126 19.4228 15.9486 18.485 12.8114 18.485C8.70392 18.485 5.72839 21.0721 5.72839 24.5976V24.6617C5.72839 28.3492 8.02446 29.9985 12.9729 31.1304C17.5008 32.1336 18.568 33.3299 18.568 35.3996V35.4644C18.568 37.6636 16.6275 39.2806 13.749 39.2806C11.0036 39.2806 8.97425 38.3722 6.89854 36.5804C6.72454 36.4302 6.55023 36.2738 6.37513 36.1112L4.85494 37.9546C7.44235 40.3805 10.2561 41.5771 13.6523 41.5445Z" fill="white"/>
<mask id="mask0_2129_2028" style="mask-type:luminance" maskUnits="userSpaceOnUse" x="23" y="17" width="22" height="26">
<path d="M24.3718 18.5093H43.8676V41.7304H24.3718V18.5093Z" fill="white"/>
<path fill-rule="evenodd" clip-rule="evenodd" d="M23.6729 17.8071H44.5733V42.4329H23.6729V17.8071ZM24.3752 18.5094V41.7306H43.8709V18.5094H24.3752Z" fill="white"/>
</mask>
<g mask="url(#mask0_2129_2028)">
<path d="M24.4097 30.1847V30.12C24.4097 23.781 28.9699 18.5093 35.309 18.5093C39.2225 18.5093 41.5511 19.9648 43.7181 22.067L42.0684 23.9427C40.2574 22.1318 38.2199 20.8703 35.309 20.8703C30.5224 20.8703 26.9647 24.9131 26.9647 30.0552V30.12C26.9647 35.327 30.5546 39.3695 35.309 39.3695C38.2521 39.3695 40.1927 38.1729 42.2627 36.1353L43.8797 37.7846C41.6159 40.1458 39.1581 41.7305 35.2444 41.7305C29.0024 41.7303 24.4097 36.6204 24.4097 30.1847Z" fill="white"/>
<path fill-rule="evenodd" clip-rule="evenodd" d="M44.6907 22.0287L42.1049 24.969L41.5754 24.4395C39.8458 22.71 37.9765 21.5727 35.3126 21.5727C30.9818 21.5727 27.6707 25.2295 27.6707 30.0553V30.1202C27.6707 35.0124 31.0154 38.6674 35.3126 38.6674C38.0038 38.6674 39.7773 37.5999 41.7737 35.635L42.2752 35.1413L44.8615 37.7793L44.3903 38.2708C42.0386 40.7235 39.4092 42.433 35.2481 42.433C28.5684 42.4328 23.7109 36.9568 23.7109 30.1848V30.1202C23.7109 23.4528 28.5287 17.8071 35.3126 17.8071C39.4575 17.8071 41.9526 19.3724 44.2107 21.563L44.6907 22.0287ZM35.2481 41.7307C29.006 41.7305 24.4133 36.6206 24.4133 30.1848V30.1202C24.4133 23.7811 28.9735 18.5094 35.3126 18.5094C39.2261 18.5094 41.5547 19.965 43.7217 22.0671L42.072 23.9429C41.9049 23.7758 41.736 23.6135 41.5646 23.4563C39.8777 21.91 37.955 20.8704 35.3126 20.8704C30.526 20.8704 26.9683 24.9132 26.9683 30.0553V30.1202C26.9683 35.3271 30.5582 39.3697 35.3126 39.3697C38.2224 39.3697 40.1522 38.1999 42.1961 36.2044C42.2195 36.1815 42.2429 36.1586 42.2663 36.1355L43.8833 37.7848C41.6195 40.1459 39.1617 41.7307 35.2481 41.7307Z" fill="white"/>
</g>
<path d="M56.7261 18.647H58.9899L68.8221 41.2535H66.2021L63.6795 35.3353H51.9389L49.3839 41.2535H46.8936L56.7261 18.647ZM62.7095 33.0066L57.8258 21.5898L52.9095 33.0066H62.7095Z" fill="white"/>
<path fill-rule="evenodd" clip-rule="evenodd" d="M56.2692 17.9448H59.4538L69.8969 41.956H65.7414L63.2189 36.0378H52.4042L49.8491 41.956H45.8257L56.2692 17.9448ZM51.9424 35.3355H63.683L66.2056 41.2537H68.8256L58.9934 18.6471H56.7296L46.897 41.2537H49.3873L51.9424 35.3355ZM57.8293 21.59L52.913 33.0067H62.713L57.8293 21.59ZM57.8271 23.3707L53.9801 32.3044H61.6487L57.8271 23.3707Z" fill="white"/>
<mask id="mask1_2129_2028" style="mask-type:luminance" maskUnits="userSpaceOnUse" x="72" y="18" width="22" height="24">
<path d="M73.6001 18.809H92.5434V41.2555H73.6001V18.809Z" fill="white"/>
<path fill-rule="evenodd" clip-rule="evenodd" d="M72.9016 18.1068H93.2496V41.9579H72.9016V18.1068ZM73.6039 18.8091V41.2556H92.5473V18.8091H73.6039Z" fill="white"/>
</mask>
<g mask="url(#mask1_2129_2028)">
<path d="M73.6252 18.809H81.0961C87.8556 18.809 92.5453 23.6601 92.5453 29.9667V30.0317C92.5453 36.3382 87.8556 41.254 81.0961 41.254H73.6252V18.809ZM76.0508 21.1376V38.8931H81.0961C86.5297 38.8931 90.0229 35.0445 90.0229 30.0959V30.0317C90.0229 25.0509 86.5297 21.1376 81.0961 21.1376H76.0508Z" fill="white"/>
<path fill-rule="evenodd" clip-rule="evenodd" d="M72.9265 18.1068H81.0998C88.2417 18.1068 93.2512 23.267 93.2512 29.9668V30.0317C93.2512 36.7262 88.247 41.9564 81.0998 41.9564H72.9265V18.1068ZM76.0544 38.8932V21.1377H81.0998C86.5333 21.1377 90.0265 25.051 90.0265 30.0317V30.096C90.0265 35.0446 86.5333 38.8932 81.0998 38.8932H76.0544ZM76.7567 21.84V38.1908H81.0998C83.6441 38.1908 85.69 37.2934 87.0996 35.8582C88.5119 34.4202 89.3241 32.4029 89.3241 30.096V30.0317C89.3241 27.7071 88.5107 25.6642 87.0965 24.2059C85.6857 22.7511 83.6405 21.84 81.0998 21.84H76.7567ZM73.6289 18.8091V41.254H81.0998C87.8592 41.254 92.5489 36.3383 92.5489 30.0317V29.9668C92.5489 23.6602 87.8592 18.8091 81.0998 18.8091H73.6289Z" fill="white"/>
</g>
<path fill-rule="evenodd" clip-rule="evenodd" d="M90.0262 15.2248C90.1317 15.0618 90.3496 15.0152 90.5116 15.1223C93.493 17.093 95.5483 19.083 97.2314 22.5765C97.3157 22.7514 97.2389 22.9609 97.0627 23.0426L95.9461 23.56C95.7699 23.6417 95.5611 23.5649 95.4766 23.39C93.9845 20.3031 92.2054 18.5618 89.4601 16.7455C89.2981 16.6383 89.2514 16.4207 89.357 16.2577L90.0262 15.2248Z" fill="white"/>
<path fill-rule="evenodd" clip-rule="evenodd" d="M97.2984 14.2718C99.058 16.0597 100.624 18.3876 102.251 21.9237C102.332 22.1001 102.253 22.3087 102.076 22.3886L100.955 22.8954C100.778 22.9753 100.57 22.8965 100.488 22.7201C98.927 19.3283 97.4769 17.2103 95.92 15.6284C94.3795 14.0631 92.6953 12.9801 90.5539 11.6977C90.3873 11.5979 90.3323 11.3819 90.4318 11.2151L91.062 10.158C91.1614 9.99121 91.3775 9.93667 91.5441 10.0364C93.7008 11.3274 95.5733 12.519 97.2984 14.2718Z" fill="white"/>
<path fill-rule="evenodd" clip-rule="evenodd" d="M91.3258 5.16759C91.4115 4.99332 91.624 4.92233 91.7979 5.0089C97.1558 7.67709 99.695 9.8066 101.99 12.524C104.144 15.0741 106.031 18.0551 107.306 22.161C107.364 22.3465 107.258 22.5427 107.072 22.5982L105.892 22.9495C105.706 23.005 105.51 22.8987 105.453 22.7133C104.267 18.906 102.525 16.1548 100.513 13.7719C98.4189 11.2929 96.1058 9.31551 90.9444 6.74436C90.7705 6.65777 90.6969 6.44623 90.7826 6.27196L91.3258 5.16759Z" fill="white"/>
</svg>
