<svg width="182" height="47" viewBox="0 0 182 47" fill="none" xmlns="http://www.w3.org/2000/svg">
<g clip-path="url(#clip0_2129_2027)">
<path d="M120.507 7.05838C117.796 7.05838 115.281 7.8931 113.197 9.31851V7.83634H107.216V40.9664H113.197V30.9615C115.281 32.3868 117.796 33.2216 120.507 33.2216C127.693 33.2216 133.519 27.3647 133.519 20.1399C133.519 12.9151 127.693 7.05838 120.507 7.05838ZM120.507 27.3451C116.548 27.3451 113.339 24.1192 113.339 20.1399C113.339 16.1606 116.548 12.9348 120.507 12.9348C124.465 12.9348 127.674 16.1607 127.674 20.1399C127.674 24.1191 124.465 27.3451 120.507 27.3451Z" fill="white"/>
<path d="M149.618 7.05838C146.769 7.05838 144.143 7.98928 141.999 9.55017V7.83634H136.019V32.6996H141.999V30.7298C142.001 30.7308 142.003 30.732 142.003 30.733V19.637H142.02C142.183 16.0455 145.123 13.1821 148.736 13.1821C149.656 13.1821 150.532 13.3692 151.331 13.7052C152.282 11.6556 153.67 9.8533 155.379 8.42206C153.641 7.55588 151.689 7.05838 149.618 7.05838H149.618Z" fill="white"/>
<path d="M165.081 7.05838C157.894 7.05838 152.068 12.9152 152.068 20.14C152.068 27.3648 157.894 33.2216 165.081 33.2216C172.267 33.2216 178.093 27.3647 178.093 20.14C178.093 12.9153 172.267 7.05838 165.081 7.05838ZM165.081 27.4433C161.069 27.4433 157.816 24.1735 157.816 20.14C157.816 16.1065 161.069 12.8366 165.081 12.8366C169.093 12.8366 172.346 16.1064 172.346 20.14C172.346 24.1735 169.093 27.4433 165.081 27.4433Z" fill="white"/>
<path d="M39.7605 33.8577C36.0587 33.8577 32.6463 32.4578 30.1521 29.9159C27.6824 27.3991 26.3223 23.9884 26.3223 20.3122V20.2408C26.3223 16.5643 27.6772 13.151 30.1373 10.6297C32.6577 8.0467 36.1507 6.62418 39.9731 6.62418C42.2911 6.62418 44.2743 6.99278 46.0361 7.75113C47.5608 8.40743 48.902 9.33771 50.257 10.6789L50.7345 11.1515L46.3431 16.2414L45.8025 15.7481C43.8098 13.93 42.0011 13.1192 39.9378 13.1192C38.1429 13.1192 36.4956 13.846 35.2993 15.1655C34.1108 16.4764 33.4563 18.2536 33.4563 20.1695V20.2407C33.4563 22.1732 34.103 23.9649 35.2774 25.2857C36.468 26.625 38.1231 27.3625 39.9378 27.3625C42.4875 27.3625 44.0837 26.3596 45.9791 24.6273L46.4853 24.1647L50.9238 28.6715L50.4547 29.1758C48.981 30.7601 47.5619 31.8453 45.9887 32.5909C44.1901 33.4433 42.1529 33.8576 39.7606 33.8576L39.7605 33.8577ZM39.973 8.05946C36.5373 8.05946 33.4062 9.32922 31.1565 11.6348C28.9598 13.8862 27.75 16.9425 27.75 20.2408V20.3122C27.75 23.6088 28.964 26.6615 31.1684 28.908C33.3923 31.1743 36.4437 32.4224 39.7605 32.4224C41.9377 32.4224 43.7758 32.0529 45.3799 31.2927C46.6176 30.7061 47.7595 29.8722 48.9347 28.6918L46.4273 26.1458C45.4694 26.9762 44.6743 27.5238 43.8446 27.932C42.6602 28.5146 41.3822 28.7978 39.9378 28.7978C37.7111 28.7978 35.6779 27.8902 34.2129 26.2422C32.8043 24.6579 32.0286 22.5265 32.0286 20.2408V20.1696C32.0286 17.8951 32.8154 15.7746 34.244 14.1988C35.7142 12.5771 37.7363 11.684 39.9378 11.684C42.1842 11.684 44.1435 12.4656 46.2118 14.2031L48.7686 11.2396C46.3241 9.01667 43.6543 8.0595 39.973 8.0595V8.05946ZM15.4115 33.7862C11.3146 33.7862 7.40712 32.3042 4.40892 29.6132L3.8938 29.1509L8.01677 24.1861L8.56421 24.6403C9.7087 25.5898 10.7898 26.2778 11.8695 26.7434C13.0572 27.2558 14.2506 27.5048 15.518 27.5048C16.1903 27.5048 18.384 27.387 18.384 25.8708V25.7997C18.384 25.3399 18.2876 25.0424 17.7606 24.6925C17.1143 24.2633 15.9307 23.841 13.9227 23.3234C9.13036 22.0932 5.16284 20.6179 5.16284 15.0027V14.9316C5.16284 13.7186 5.40141 12.5804 5.87192 11.5486C6.33036 10.5432 6.9978 9.66173 7.85566 8.92858C9.5651 7.46778 11.8837 6.6956 14.5608 6.6956C18.2351 6.6956 21.486 7.81571 24.2233 10.0248L24.7409 10.4425L21.1221 15.7177L20.534 15.3076C18.2846 13.7391 16.3075 12.9767 14.4899 12.9767C12.9857 12.9767 12.0137 13.5482 12.0137 14.4328V14.504C12.0137 15.043 12.121 15.3633 12.7309 15.7258C13.487 16.1752 14.8595 16.5797 16.829 17.0869C19.738 17.8489 21.622 18.6993 22.9406 19.8449C24.4842 21.186 25.2345 22.959 25.2345 25.265V25.3364C25.2345 27.9425 24.2624 30.1142 22.4234 31.6167C20.6862 33.0361 18.2615 33.7862 15.4115 33.7862V33.7862ZM5.88527 28.9924C8.54529 31.163 11.9013 32.3509 15.4115 32.3509C17.9298 32.3509 20.0431 31.7119 21.5229 30.5029C23.017 29.2822 23.8068 27.4957 23.8068 25.3364V25.265C23.8068 23.3749 23.2349 21.9977 22.007 20.9308C20.8625 19.9364 19.1554 19.1795 16.4718 18.4765C14.3294 17.9249 12.9102 17.4997 12.0043 16.9614C11.0234 16.3784 10.586 15.6205 10.586 14.504V14.4328C10.586 13.5856 10.9783 12.8321 11.6907 12.3112C12.3794 11.8076 13.3474 11.5414 14.4899 11.5414C16.4386 11.5414 18.493 12.2575 20.7531 13.7275L22.8031 10.7392C20.4377 9.00778 17.6685 8.13089 14.5609 8.13089C12.2604 8.13089 10.2076 8.80257 8.7805 10.0222C7.34792 11.2465 6.59069 12.9442 6.59069 14.9317V15.0028C6.59069 17.1314 7.19636 18.5575 8.55449 19.627C9.86367 20.6578 11.7889 21.2944 14.2768 21.933C16.4753 22.4998 17.7524 22.9668 18.5477 23.4949C19.4219 24.0755 19.8118 24.7864 19.8118 25.7997V25.8708C19.8118 26.8282 19.3588 27.6537 18.5363 28.195C17.7955 28.6825 16.7518 28.9401 15.5181 28.9401C12.9732 28.9401 10.6357 28.064 8.21086 26.1921L5.88536 28.9924L5.88527 28.9924ZM89.6992 33.4299H79.3085V7.05189H89.6992C91.6916 7.05189 93.5772 7.38751 95.3034 8.04937C96.9785 8.69163 98.4604 9.62297 99.7082 10.8175C102.217 13.219 103.598 16.5403 103.598 20.1696V20.2408C103.598 23.8739 102.217 27.2072 99.7102 29.6267C98.4617 30.8316 96.9798 31.7715 95.3058 32.4204C93.5775 33.0902 91.6911 33.4299 89.6991 33.4299H89.6992ZM80.7361 31.9947H89.6992C91.5149 31.9947 93.2284 31.6873 94.7923 31.0812C96.2885 30.5013 97.6104 29.6636 98.7216 28.5913C100.946 26.445 102.171 23.4794 102.171 20.2408V20.1696C102.171 16.937 100.946 13.9849 98.7236 11.8569C97.6137 10.7943 96.2918 9.96446 94.7947 9.39042C93.2315 8.79106 91.5171 8.48717 89.6992 8.48717H80.7361V31.9947V31.9947ZM78.4098 33.4299H71.1437L68.8751 27.8357H59.3436L57.0749 33.4299H49.9504L61.1917 6.87375H67.1687L78.4098 33.4299V33.4299ZM72.1035 31.9947H76.2507L66.2247 8.30903H62.1358L52.1097 31.9947H56.1152L58.3838 26.4005H69.8349L72.1035 31.9947H72.1035ZM89.6991 28.4771H84.7666V12.0047H89.6991C94.5226 12.0047 97.8914 15.3915 97.8914 20.2408V20.3122C97.8914 22.6788 97.1046 24.7154 95.616 26.2018C94.1253 27.6903 92.0793 28.477 89.6991 28.477L89.6991 28.4771ZM86.1943 27.0418H89.6991C91.6943 27.0418 93.3924 26.3992 94.6099 25.1835C95.8227 23.9725 96.4638 22.288 96.4638 20.3122V20.2408C96.4638 18.2581 95.8216 16.5601 94.6065 15.3304C93.3845 14.0937 91.6876 13.4399 89.6991 13.4399H86.1943V27.0418V27.0418ZM68.4695 22.9896H59.7492L64.1094 12.2902L68.4695 22.9896ZM61.877 21.5543H66.3418L64.1094 16.0763L61.877 21.5543Z" fill="white"/>
</g>
<defs>
<clipPath id="clip0_2129_2027">
<rect width="174.2" height="34.3422" fill="white" transform="translate(3.8938 6.62418)"/>
</clipPath>
</defs>
</svg>
