<svg width="182" height="47" viewBox="0 0 182 47" fill="none" xmlns="http://www.w3.org/2000/svg">
<path fill-rule="evenodd" clip-rule="evenodd" d="M68.6879 6.55526C67.8915 7.32979 67.5065 8.38643 67.5065 9.51702V17.033C67.5065 17.6373 67.0167 18.1271 66.4124 18.1271C65.8082 18.1271 65.3183 17.6373 65.3183 17.033V9.51702C65.3183 7.88858 65.8799 6.23375 67.1623 4.98658C68.4494 3.73485 70.3521 3 72.8343 3C78.0416 3 80.3027 6.99209 80.3027 9.51702V33.9202C80.3027 34.5244 79.8129 35.0143 79.2086 35.0143C78.6044 35.0143 78.1145 34.5244 78.1145 33.9202V25.3434L68.0298 30.2294V42.7681C68.0298 43.3723 67.5399 43.8622 66.9357 43.8622C66.3314 43.8622 65.8416 43.3723 65.8416 42.7681V30.2351L55.519 25.329V35.9657C55.519 36.5699 55.0292 37.0598 54.4249 37.0598C53.8207 37.0598 53.3308 36.5699 53.3308 35.9657V23.5976C53.3308 23.2223 53.5232 22.8732 53.8404 22.6727C54.1577 22.4722 54.5556 22.4483 54.8946 22.6094L66.9311 28.3302L78.1145 22.9119V9.51702C78.1145 8.04611 76.6842 5.1882 72.8343 5.1882C70.7879 5.1882 69.4796 5.78529 68.6879 6.55526Z" fill="white"/>
<path d="M86.0251 10.9989C85.3999 10.9989 84.8754 10.9082 84.4519 10.7266C84.035 10.5384 83.7157 10.2963 83.4938 10.0005C83.2786 9.69796 83.1643 9.38196 83.1509 9.05252C83.1509 8.99201 83.1711 8.94158 83.2114 8.90124C83.2518 8.8609 83.3022 8.84073 83.3627 8.84073H84.2603C84.3477 8.84073 84.4115 8.8609 84.4519 8.90124C84.4989 8.93486 84.5393 8.97856 84.5729 9.03235C84.6132 9.16009 84.6905 9.28783 84.8048 9.41558C84.9191 9.5366 85.0738 9.63745 85.2687 9.71813C85.4704 9.79881 85.7226 9.83915 86.0251 9.83915C86.5092 9.83915 86.8689 9.75847 87.1042 9.59711C87.3463 9.43575 87.4673 9.21724 87.4673 8.94158C87.4673 8.74661 87.4034 8.59197 87.2757 8.47767C87.1479 8.35665 86.9496 8.24908 86.6806 8.15495C86.4184 8.0541 86.0688 7.94989 85.6318 7.84232C85.1276 7.7213 84.704 7.57675 84.3611 7.40866C84.0249 7.23386 83.7694 7.01535 83.5946 6.75314C83.4266 6.49093 83.3425 6.15813 83.3425 5.75473C83.3425 5.36477 83.4467 5.01852 83.6552 4.71597C83.8703 4.41342 84.1728 4.17474 84.5628 3.99994C84.9595 3.82513 85.4301 3.73773 85.9747 3.73773C86.4117 3.73773 86.7983 3.79824 87.1345 3.91926C87.4706 4.03355 87.7497 4.18819 87.9715 4.38317C88.1934 4.57142 88.3615 4.77648 88.4758 4.99835C88.5968 5.2135 88.6607 5.42528 88.6674 5.63371C88.6674 5.68749 88.6472 5.73792 88.6069 5.78498C88.5733 5.82532 88.5228 5.84549 88.4556 5.84549H87.5177C87.4639 5.84549 87.4101 5.83204 87.3563 5.80515C87.3026 5.77826 87.2589 5.72783 87.2252 5.65388C87.1849 5.44545 87.0538 5.26729 86.8319 5.11937C86.6101 4.97146 86.3243 4.8975 85.9747 4.8975C85.6116 4.8975 85.3192 4.96474 85.0973 5.0992C84.8754 5.23367 84.7645 5.44209 84.7645 5.72447C84.7645 5.91272 84.8183 6.07072 84.9259 6.19847C85.0402 6.31949 85.2183 6.42706 85.4604 6.52119C85.7091 6.61531 86.0352 6.71616 86.4386 6.82374C87.0101 6.95148 87.4774 7.09939 87.8404 7.26747C88.2035 7.43556 88.4691 7.6507 88.6371 7.91291C88.8052 8.1684 88.8893 8.49448 88.8893 8.89116C88.8893 9.3349 88.7682 9.71477 88.5262 10.0308C88.2909 10.34 87.9581 10.5787 87.5278 10.7468C87.0975 10.9149 86.5966 10.9989 86.0251 10.9989ZM89.8837 10.8981C89.8164 10.8981 89.7593 10.8745 89.7122 10.8275C89.6651 10.7804 89.6416 10.7233 89.6416 10.656V4.0907C89.6416 4.01675 89.6651 3.95624 89.7122 3.90917C89.7593 3.86211 89.8164 3.83858 89.8837 3.83858H94.3211C94.395 3.83858 94.4555 3.86211 94.5026 3.90917C94.5496 3.95624 94.5732 4.01675 94.5732 4.0907V4.75631C94.5732 4.82355 94.5496 4.88069 94.5026 4.92776C94.4555 4.97482 94.395 4.99835 94.3211 4.99835H91.0031V6.7834H94.0992C94.1731 6.7834 94.2336 6.80693 94.2807 6.85399C94.3278 6.89433 94.3513 6.95148 94.3513 7.02544V7.6507C94.3513 7.72466 94.3278 7.78517 94.2807 7.83223C94.2336 7.87257 94.1731 7.89274 94.0992 7.89274H91.0031V9.7383H94.4017C94.4757 9.7383 94.5362 9.76183 94.5833 9.80889C94.6303 9.85596 94.6539 9.91647 94.6539 9.99042V10.656C94.6539 10.7233 94.6303 10.7804 94.5833 10.8275C94.5362 10.8745 94.4757 10.8981 94.4017 10.8981H89.8837ZM95.7538 10.8981C95.6866 10.8981 95.6294 10.8745 95.5824 10.8275C95.5353 10.7804 95.5118 10.7233 95.5118 10.656V4.0907C95.5118 4.01675 95.5353 3.95624 95.5824 3.90917C95.6294 3.86211 95.6866 3.83858 95.7538 3.83858H98.3658C99.1794 3.83858 99.8214 4.02683 100.292 4.40334C100.763 4.77984 100.998 5.3278 100.998 6.04719C100.998 6.54472 100.874 6.9582 100.625 7.28764C100.383 7.61709 100.057 7.85577 99.6466 8.00368L101.119 10.5754C101.139 10.6157 101.149 10.6527 101.149 10.6863C101.149 10.7468 101.126 10.7972 101.079 10.8376C101.038 10.8779 100.991 10.8981 100.938 10.8981H100.02C99.9055 10.8981 99.8181 10.8678 99.7576 10.8073C99.6971 10.7468 99.65 10.6863 99.6164 10.6258L98.3154 8.23563H96.9136V10.656C96.9136 10.7233 96.8901 10.7804 96.843 10.8275C96.8027 10.8745 96.7455 10.8981 96.6716 10.8981H95.7538ZM96.9136 7.09603H98.3356C98.7457 7.09603 99.0516 7.00527 99.2533 6.82374C99.455 6.63548 99.5559 6.37327 99.5559 6.03711C99.5559 5.70094 99.455 5.43873 99.2533 5.25048C99.0583 5.0555 98.7524 4.95801 98.3356 4.95801H96.9136V7.09603ZM103.725 10.8981C103.617 10.8981 103.533 10.8712 103.473 10.8174C103.412 10.7636 103.369 10.6964 103.342 10.6157L101.183 4.14113C101.17 4.10751 101.163 4.07726 101.163 4.05036C101.163 3.98985 101.183 3.93943 101.224 3.89909C101.264 3.85875 101.315 3.83858 101.375 3.83858H102.263C102.357 3.83858 102.427 3.86547 102.474 3.91926C102.528 3.96632 102.562 4.01338 102.575 4.06045L104.28 9.25422L105.974 4.06045C105.994 4.01338 106.028 3.96632 106.075 3.91926C106.128 3.86547 106.202 3.83858 106.297 3.83858H107.184C107.238 3.83858 107.285 3.85875 107.325 3.89909C107.372 3.93943 107.396 3.98985 107.396 4.05036C107.396 4.07726 107.389 4.10751 107.376 4.14113L105.217 10.6157C105.191 10.6964 105.147 10.7636 105.086 10.8174C105.026 10.8712 104.942 10.8981 104.834 10.8981H103.725ZM108.302 10.8981C108.235 10.8981 108.177 10.8745 108.13 10.8275C108.083 10.7804 108.06 10.7233 108.06 10.656V4.08062C108.06 4.01338 108.083 3.95624 108.13 3.90917C108.177 3.86211 108.235 3.83858 108.302 3.83858H109.25C109.324 3.83858 109.381 3.86211 109.421 3.90917C109.468 3.95624 109.492 4.01338 109.492 4.08062V10.656C109.492 10.7233 109.468 10.7804 109.421 10.8275C109.381 10.8745 109.324 10.8981 109.25 10.8981H108.302ZM113.393 10.9989C112.768 10.9989 112.237 10.8913 111.8 10.6762C111.369 10.4543 111.04 10.1417 110.811 9.7383C110.583 9.32817 110.455 8.83737 110.428 8.26589C110.421 7.99023 110.418 7.69441 110.418 7.37841C110.418 7.06241 110.421 6.75986 110.428 6.47076C110.455 5.906 110.583 5.41856 110.811 5.00844C111.047 4.59831 111.379 4.28568 111.81 4.07053C112.247 3.84866 112.774 3.73773 113.393 3.73773C113.85 3.73773 114.26 3.79824 114.623 3.91926C114.986 4.04028 115.296 4.20836 115.551 4.42351C115.807 4.63193 116.005 4.87733 116.146 5.15971C116.287 5.44209 116.361 5.748 116.368 6.07745C116.375 6.13796 116.355 6.18838 116.308 6.22872C116.267 6.26906 116.217 6.28923 116.156 6.28923H115.198C115.124 6.28923 115.064 6.27242 115.017 6.23881C114.97 6.19847 114.936 6.13459 114.916 6.04719C114.808 5.60345 114.623 5.3009 114.361 5.13954C114.099 4.97818 113.773 4.8975 113.383 4.8975C112.932 4.8975 112.573 5.02525 112.304 5.28073C112.035 5.52949 111.89 5.94298 111.87 6.52119C111.85 7.0725 111.85 7.63726 111.87 8.21546C111.89 8.79367 112.035 9.21052 112.304 9.466C112.573 9.71477 112.932 9.83915 113.383 9.83915C113.773 9.83915 114.099 9.75847 114.361 9.59711C114.623 9.42902 114.808 9.12647 114.916 8.68946C114.936 8.59533 114.97 8.53146 115.017 8.49784C115.064 8.46423 115.124 8.44742 115.198 8.44742H116.156C116.217 8.44742 116.267 8.46759 116.308 8.50793C116.355 8.54827 116.375 8.59869 116.368 8.6592C116.361 8.98865 116.287 9.29456 116.146 9.57694C116.005 9.85932 115.807 10.1081 115.551 10.3232C115.296 10.5316 114.986 10.6964 114.623 10.8174C114.26 10.9384 113.85 10.9989 113.393 10.9989ZM117.403 10.8981C117.335 10.8981 117.278 10.8745 117.231 10.8275C117.184 10.7804 117.161 10.7233 117.161 10.656V4.0907C117.161 4.01675 117.184 3.95624 117.231 3.90917C117.278 3.86211 117.335 3.83858 117.403 3.83858H121.84C121.914 3.83858 121.975 3.86211 122.022 3.90917C122.069 3.95624 122.092 4.01675 122.092 4.0907V4.75631C122.092 4.82355 122.069 4.88069 122.022 4.92776C121.975 4.97482 121.914 4.99835 121.84 4.99835H118.522V6.7834H121.618C121.692 6.7834 121.753 6.80693 121.8 6.85399C121.847 6.89433 121.87 6.95148 121.87 7.02544V7.6507C121.87 7.72466 121.847 7.78517 121.8 7.83223C121.753 7.87257 121.692 7.89274 121.618 7.89274H118.522V9.7383H121.921C121.995 9.7383 122.055 9.76183 122.102 9.80889C122.149 9.85596 122.173 9.91647 122.173 9.99042V10.656C122.173 10.7233 122.149 10.7804 122.102 10.8275C122.055 10.8745 121.995 10.8981 121.921 10.8981H117.403ZM83.8165 22.8981C83.7493 22.8981 83.6921 22.8745 83.6451 22.8275C83.598 22.7804 83.5745 22.7233 83.5745 22.656V16.0907C83.5745 16.0167 83.598 15.9562 83.6451 15.9092C83.6921 15.8621 83.7493 15.8386 83.8165 15.8386H86.2772C86.9563 15.8386 87.5143 15.9428 87.9514 16.1512C88.3951 16.3596 88.7279 16.6689 88.9498 17.079C89.1784 17.4892 89.296 17.99 89.3027 18.5817C89.3162 18.8775 89.3229 19.1397 89.3229 19.3683C89.3229 19.5969 89.3162 19.8558 89.3027 20.1449C89.2893 20.7701 89.175 21.2878 88.9599 21.698C88.7447 22.1014 88.4186 22.4039 87.9816 22.6056C87.5513 22.8006 87 22.8981 86.3277 22.8981H83.8165ZM84.9763 21.7383H86.2772C86.6538 21.7383 86.9597 21.6845 87.195 21.5769C87.4303 21.4694 87.6017 21.2979 87.7093 21.0626C87.8236 20.8206 87.8841 20.5046 87.8908 20.1146C87.8976 19.9129 87.9009 19.7381 87.9009 19.5902C87.9077 19.4356 87.9077 19.2843 87.9009 19.1364C87.9009 18.9817 87.8976 18.8069 87.8908 18.612C87.8774 18.0606 87.7396 17.6539 87.4774 17.3917C87.2152 17.1295 86.7983 16.9984 86.2268 16.9984H84.9763V21.7383ZM90.5041 22.8981C90.4369 22.8981 90.3797 22.8745 90.3327 22.8275C90.2856 22.7804 90.2621 22.7233 90.2621 22.656V16.0907C90.2621 16.0167 90.2856 15.9562 90.3327 15.9092C90.3797 15.8621 90.4369 15.8386 90.5041 15.8386H94.9415C95.0155 15.8386 95.076 15.8621 95.123 15.9092C95.1701 15.9562 95.1936 16.0167 95.1936 16.0907V16.7563C95.1936 16.8235 95.1701 16.8807 95.123 16.9278C95.076 16.9748 95.0155 16.9984 94.9415 16.9984H91.6236V18.7834H94.7196C94.7936 18.7834 94.8541 18.8069 94.9012 18.854C94.9482 18.8943 94.9718 18.9515 94.9718 19.0254V19.6507C94.9718 19.7247 94.9482 19.7852 94.9012 19.8322C94.8541 19.8726 94.7936 19.8927 94.7196 19.8927H91.6236V21.7383H95.0222C95.0962 21.7383 95.1567 21.7618 95.2037 21.8089C95.2508 21.856 95.2743 21.9165 95.2743 21.9904V22.656C95.2743 22.7233 95.2508 22.7804 95.2037 22.8275C95.1567 22.8745 95.0962 22.8981 95.0222 22.8981H90.5041ZM98.5829 22.9989C97.9576 22.9989 97.4332 22.9082 97.0096 22.7266C96.5928 22.5384 96.2734 22.2963 96.0516 22.0005C95.8364 21.698 95.7221 21.382 95.7087 21.0525C95.7087 20.992 95.7289 20.9416 95.7692 20.9012C95.8095 20.8609 95.86 20.8407 95.9205 20.8407H96.818C96.9054 20.8407 96.9693 20.8609 97.0096 20.9012C97.0567 20.9349 97.097 20.9786 97.1307 21.0323C97.171 21.1601 97.2483 21.2878 97.3626 21.4156C97.4769 21.5366 97.6316 21.6374 97.8265 21.7181C98.0282 21.7988 98.2804 21.8391 98.5829 21.8391C99.067 21.8391 99.4267 21.7585 99.662 21.5971C99.904 21.4357 100.025 21.2172 100.025 20.9416C100.025 20.7466 99.9612 20.592 99.8334 20.4777C99.7057 20.3567 99.5074 20.2491 99.2384 20.155C98.9762 20.0541 98.6266 19.9499 98.1896 19.8423C97.6853 19.7213 97.2618 19.5767 96.9189 19.4087C96.5827 19.2339 96.3272 19.0154 96.1524 18.7531C95.9843 18.4909 95.9003 18.1581 95.9003 17.7547C95.9003 17.3648 96.0045 17.0185 96.2129 16.716C96.4281 16.4134 96.7306 16.1747 97.1206 15.9999C97.5173 15.8251 97.9879 15.7377 98.5325 15.7377C98.9695 15.7377 99.3561 15.7982 99.6923 15.9193C100.028 16.0336 100.307 16.1882 100.529 16.3832C100.751 16.5714 100.919 16.7765 101.034 16.9984C101.155 17.2135 101.218 17.4253 101.225 17.6337C101.225 17.6875 101.205 17.7379 101.165 17.785C101.131 17.8253 101.081 17.8455 101.013 17.8455H100.075C100.022 17.8455 99.9679 17.832 99.9141 17.8052C99.8603 17.7783 99.8166 17.7278 99.783 17.6539C99.7427 17.4455 99.6116 17.2673 99.3897 17.1194C99.1678 16.9715 98.8821 16.8975 98.5325 16.8975C98.1694 16.8975 97.877 16.9647 97.6551 17.0992C97.4332 17.2337 97.3223 17.4421 97.3223 17.7245C97.3223 17.9127 97.3761 18.0707 97.4836 18.1985C97.5979 18.3195 97.7761 18.4271 98.0181 18.5212C98.2669 18.6153 98.593 18.7162 98.9964 18.8237C99.5679 18.9515 100.035 19.0994 100.398 19.2675C100.761 19.4356 101.027 19.6507 101.195 19.9129C101.363 20.1684 101.447 20.4945 101.447 20.8912C101.447 21.3349 101.326 21.7148 101.084 22.0308C100.849 22.34 100.516 22.5787 100.086 22.7468C99.6553 22.9149 99.1544 22.9989 98.5829 22.9989ZM102.441 22.8981C102.374 22.8981 102.317 22.8745 102.27 22.8275C102.223 22.7804 102.199 22.7233 102.199 22.656V16.0806C102.199 16.0134 102.223 15.9562 102.27 15.9092C102.317 15.8621 102.374 15.8386 102.441 15.8386H103.389C103.463 15.8386 103.521 15.8621 103.561 15.9092C103.608 15.9562 103.631 16.0134 103.631 16.0806V22.656C103.631 22.7233 103.608 22.7804 103.561 22.8275C103.521 22.8745 103.463 22.8981 103.389 22.8981H102.441ZM107.553 22.9989C106.934 22.9989 106.406 22.8913 105.969 22.6762C105.539 22.4611 105.203 22.1518 104.961 21.7484C104.726 21.3383 104.598 20.8508 104.578 20.2861C104.571 19.997 104.568 19.6877 104.568 19.3582C104.568 19.0221 104.571 18.7061 104.578 18.4103C104.598 17.8522 104.726 17.3749 104.961 16.9782C105.203 16.5815 105.543 16.2756 105.98 16.0604C106.423 15.8453 106.948 15.7377 107.553 15.7377C108.044 15.7377 108.474 15.805 108.844 15.9394C109.213 16.0672 109.519 16.2353 109.761 16.4437C110.01 16.6454 110.195 16.8639 110.316 17.0992C110.444 17.3345 110.511 17.553 110.518 17.7547C110.525 17.8152 110.508 17.8657 110.467 17.906C110.427 17.9463 110.373 17.9665 110.306 17.9665H109.267C109.2 17.9665 109.15 17.9531 109.116 17.9262C109.082 17.8993 109.052 17.8589 109.025 17.8052C108.971 17.664 108.887 17.5261 108.773 17.3917C108.659 17.2505 108.504 17.1328 108.309 17.0387C108.114 16.9446 107.862 16.8975 107.553 16.8975C107.096 16.8975 106.729 17.0185 106.454 17.2606C106.185 17.5026 106.04 17.9026 106.02 18.4607C106 19.0456 106 19.6373 106.02 20.2356C106.04 20.8071 106.188 21.2172 106.464 21.466C106.746 21.7148 107.116 21.8391 107.573 21.8391C107.876 21.8391 108.144 21.7854 108.38 21.6778C108.622 21.5702 108.81 21.4021 108.945 21.1735C109.086 20.9449 109.156 20.6525 109.156 20.2961V19.9835H107.926C107.859 19.9835 107.802 19.96 107.754 19.9129C107.707 19.8659 107.684 19.8053 107.684 19.7314V19.1969C107.684 19.1229 107.707 19.0624 107.754 19.0154C107.802 18.9683 107.859 18.9448 107.926 18.9448H110.336C110.41 18.9448 110.467 18.9683 110.508 19.0154C110.555 19.0624 110.578 19.1229 110.578 19.1969V20.2558C110.578 20.8206 110.454 21.308 110.205 21.7181C109.963 22.1283 109.613 22.4442 109.156 22.6661C108.706 22.888 108.171 22.9989 107.553 22.9989ZM111.71 22.8981C111.643 22.8981 111.585 22.8745 111.538 22.8275C111.491 22.7804 111.468 22.7233 111.468 22.656V16.0907C111.468 16.0167 111.491 15.9562 111.538 15.9092C111.585 15.8621 111.643 15.8386 111.71 15.8386H112.486C112.58 15.8386 112.648 15.8621 112.688 15.9092C112.735 15.9495 112.765 15.9798 112.779 15.9999L115.683 20.518V16.0907C115.683 16.0167 115.703 15.9562 115.744 15.9092C115.791 15.8621 115.851 15.8386 115.925 15.8386H116.772C116.846 15.8386 116.907 15.8621 116.954 15.9092C117.001 15.9562 117.025 16.0167 117.025 16.0907V22.6459C117.025 22.7199 117.001 22.7804 116.954 22.8275C116.907 22.8745 116.85 22.8981 116.783 22.8981H115.996C115.902 22.8981 115.835 22.8745 115.794 22.8275C115.754 22.7804 115.724 22.7502 115.703 22.7367L112.809 18.3195V22.656C112.809 22.7233 112.786 22.7804 112.738 22.8275C112.691 22.8745 112.631 22.8981 112.557 22.8981H111.71ZM83.8165 34.8981C83.7493 34.8981 83.6921 34.8745 83.6451 34.8275C83.598 34.7804 83.5745 34.7233 83.5745 34.656V28.0907C83.5745 28.0167 83.598 27.9562 83.6451 27.9092C83.6921 27.8621 83.7493 27.8386 83.8165 27.8386H84.5931C84.6872 27.8386 84.7544 27.8621 84.7948 27.9092C84.8418 27.9495 84.8721 27.9798 84.8855 27.9999L87.79 32.518V28.0907C87.79 28.0167 87.8102 27.9562 87.8505 27.9092C87.8976 27.8621 87.9581 27.8386 88.032 27.8386H88.8792C88.9531 27.8386 89.0136 27.8621 89.0607 27.9092C89.1078 27.9562 89.1313 28.0167 89.1313 28.0907V34.6459C89.1313 34.7199 89.1078 34.7804 89.0607 34.8275C89.0136 34.8745 88.9565 34.8981 88.8893 34.8981H88.1026C88.0085 34.8981 87.9413 34.8745 87.9009 34.8275C87.8606 34.7804 87.8303 34.7502 87.8102 34.7367L84.9158 30.3195V34.656C84.9158 34.7233 84.8922 34.7804 84.8452 34.8275C84.7981 34.8745 84.7376 34.8981 84.6636 34.8981H83.8165ZM90.5435 34.8981C90.4763 34.8981 90.4191 34.8745 90.3721 34.8275C90.325 34.7804 90.3015 34.7233 90.3015 34.656V28.0907C90.3015 28.0167 90.325 27.9562 90.3721 27.9092C90.4191 27.8621 90.4763 27.8386 90.5435 27.8386H94.9809C95.0549 27.8386 95.1154 27.8621 95.1624 27.9092C95.2095 27.9562 95.233 28.0167 95.233 28.0907V28.7563C95.233 28.8235 95.2095 28.8807 95.1624 28.9278C95.1154 28.9748 95.0549 28.9984 94.9809 28.9984H91.6629V30.7834H94.759C94.833 30.7834 94.8935 30.8069 94.9406 30.854C94.9876 30.8943 95.0112 30.9515 95.0112 31.0254V31.6507C95.0112 31.7247 94.9876 31.7852 94.9406 31.8322C94.8935 31.8726 94.833 31.8927 94.759 31.8927H91.6629V33.7383H95.0616C95.1355 33.7383 95.1961 33.7618 95.2431 33.8089C95.2902 33.856 95.3137 33.9165 95.3137 33.9904V34.656C95.3137 34.7233 95.2902 34.7804 95.2431 34.8275C95.1961 34.8745 95.1355 34.8981 95.0616 34.8981H90.5435ZM97.9668 34.8981C97.8995 34.8981 97.8424 34.8745 97.7953 34.8275C97.7483 34.7804 97.7247 34.7233 97.7247 34.656V29.079H95.859C95.7918 29.079 95.7346 29.0555 95.6876 29.0084C95.6405 28.9614 95.617 28.9042 95.617 28.837V28.0907C95.617 28.0167 95.6405 27.9562 95.6876 27.9092C95.7346 27.8621 95.7918 27.8386 95.859 27.8386H101.002C101.076 27.8386 101.137 27.8621 101.184 27.9092C101.231 27.9562 101.254 28.0167 101.254 28.0907V28.837C101.254 28.9042 101.231 28.9614 101.184 29.0084C101.137 29.0555 101.076 29.079 101.002 29.079H99.1467V34.656C99.1467 34.7233 99.1232 34.7804 99.0761 34.8275C99.0291 34.8745 98.9686 34.8981 98.8946 34.8981H97.9668ZM103.034 34.8981C102.933 34.8981 102.853 34.8712 102.792 34.8174C102.738 34.7569 102.701 34.6829 102.681 34.5955L101.481 28.131C101.481 28.1109 101.478 28.0941 101.471 28.0806C101.471 28.0672 101.471 28.0571 101.471 28.0504C101.471 27.9899 101.491 27.9394 101.532 27.8991C101.579 27.8587 101.629 27.8386 101.683 27.8386H102.57C102.738 27.8386 102.832 27.9058 102.853 28.0403L103.69 32.6088L104.597 29.6539C104.618 29.6001 104.651 29.5463 104.698 29.4925C104.752 29.432 104.829 29.4018 104.93 29.4018H105.475C105.582 29.4018 105.66 29.432 105.707 29.4925C105.754 29.5463 105.784 29.6001 105.797 29.6539L106.715 32.5987L107.552 28.0403C107.572 27.9058 107.667 27.8386 107.835 27.8386H108.722C108.776 27.8386 108.823 27.8587 108.863 27.8991C108.904 27.9394 108.924 27.9899 108.924 28.0504C108.924 28.0571 108.924 28.0672 108.924 28.0806C108.924 28.0941 108.92 28.1109 108.914 28.131L107.714 34.5955C107.7 34.6829 107.663 34.7569 107.603 34.8174C107.542 34.8712 107.461 34.8981 107.361 34.8981H106.685C106.584 34.8981 106.503 34.8712 106.443 34.8174C106.389 34.7636 106.352 34.7065 106.332 34.6459L105.202 31.2776L104.073 34.6459C104.046 34.7065 104.006 34.7636 103.952 34.8174C103.898 34.8712 103.817 34.8981 103.71 34.8981H103.034ZM112.339 34.9989C111.74 34.9989 111.226 34.9014 110.796 34.7065C110.365 34.5048 110.029 34.1988 109.787 33.7887C109.545 33.3719 109.414 32.8542 109.394 32.2356C109.387 31.9465 109.384 31.6608 109.384 31.3784C109.384 31.096 109.387 30.8069 109.394 30.5111C109.414 29.8993 109.548 29.3883 109.797 28.9782C110.046 28.5681 110.385 28.2588 110.816 28.0504C111.253 27.8419 111.76 27.7377 112.339 27.7377C112.917 27.7377 113.424 27.8419 113.861 28.0504C114.298 28.2588 114.641 28.5681 114.89 28.9782C115.139 29.3883 115.273 29.8993 115.293 30.5111C115.307 30.8069 115.314 31.096 115.314 31.3784C115.314 31.6608 115.307 31.9465 115.293 32.2356C115.273 32.8542 115.142 33.3719 114.9 33.7887C114.658 34.1988 114.319 34.5048 113.882 34.7065C113.451 34.9014 112.937 34.9989 112.339 34.9989ZM112.339 33.8391C112.776 33.8391 113.132 33.7114 113.408 33.4559C113.683 33.1937 113.831 32.7701 113.851 32.1852C113.865 31.8894 113.871 31.6171 113.871 31.3683C113.871 31.1128 113.865 30.8405 113.851 30.5514C113.838 30.1615 113.764 29.8455 113.629 29.6035C113.502 29.3547 113.327 29.1765 113.105 29.0689C112.883 28.9547 112.628 28.8975 112.339 28.8975C112.056 28.8975 111.804 28.9547 111.582 29.0689C111.36 29.1765 111.182 29.3547 111.048 29.6035C110.92 29.8455 110.849 30.1615 110.836 30.5514C110.829 30.8405 110.826 31.1128 110.826 31.3683C110.826 31.6171 110.829 31.8894 110.836 32.1852C110.856 32.7701 111.004 33.1937 111.28 33.4559C111.555 33.7114 111.908 33.8391 112.339 33.8391ZM116.477 34.8981C116.409 34.8981 116.352 34.8745 116.305 34.8275C116.258 34.7804 116.234 34.7233 116.234 34.656V28.0907C116.234 28.0167 116.258 27.9562 116.305 27.9092C116.352 27.8621 116.409 27.8386 116.477 27.8386H119.089C119.902 27.8386 120.544 28.0268 121.015 28.4033C121.485 28.7798 121.721 29.3278 121.721 30.0472C121.721 30.5447 121.596 30.9582 121.348 31.2876C121.106 31.6171 120.779 31.8558 120.369 32.0037L121.842 34.5754C121.862 34.6157 121.872 34.6527 121.872 34.6863C121.872 34.7468 121.848 34.7972 121.801 34.8376C121.761 34.8779 121.714 34.8981 121.66 34.8981H120.742C120.628 34.8981 120.541 34.8678 120.48 34.8073C120.42 34.7468 120.373 34.6863 120.339 34.6258L119.038 32.2356H117.636V34.656C117.636 34.7233 117.613 34.7804 117.566 34.8275C117.525 34.8745 117.468 34.8981 117.394 34.8981H116.477ZM117.636 31.096H119.058C119.468 31.096 119.774 31.0053 119.976 30.8237C120.178 30.6355 120.279 30.3733 120.279 30.0371C120.279 29.7009 120.178 29.4387 119.976 29.2505C119.781 29.0555 119.475 28.958 119.058 28.958H117.636V31.096ZM122.859 34.8981C122.792 34.8981 122.734 34.8745 122.687 34.8275C122.64 34.7804 122.617 34.7233 122.617 34.656V28.0907C122.617 28.0167 122.64 27.9562 122.687 27.9092C122.734 27.8621 122.792 27.8386 122.859 27.8386H123.746C123.82 27.8386 123.881 27.8621 123.928 27.9092C123.975 27.9562 123.998 28.0167 123.998 28.0907V30.4506L126.278 28.0201C126.305 27.9865 126.348 27.9495 126.409 27.9092C126.476 27.8621 126.563 27.8386 126.671 27.8386H127.669C127.723 27.8386 127.77 27.8587 127.811 27.8991C127.858 27.9394 127.881 27.9899 127.881 28.0504C127.881 28.0974 127.868 28.1378 127.841 28.1714L125.067 31.2171L128.032 34.5552C128.066 34.5955 128.083 34.6392 128.083 34.6863C128.083 34.7468 128.059 34.7972 128.012 34.8376C127.972 34.8779 127.925 34.8981 127.871 34.8981H126.832C126.718 34.8981 126.627 34.8745 126.56 34.8275C126.499 34.7737 126.459 34.7367 126.439 34.7165L123.998 32.044V34.656C123.998 34.7233 123.975 34.7804 123.928 34.8275C123.881 34.8745 123.82 34.8981 123.746 34.8981H122.859Z" fill="white"/>
</svg>
