<svg width="182" height="47" viewBox="0 0 182 47" fill="none" xmlns="http://www.w3.org/2000/svg">
<path d="M122.027 19.4561C120.056 19.4561 118.698 20.3888 118.698 20.3888C117.339 21.3215 117.339 22.6677 117.339 22.6677C117.339 23.3248 117.746 23.7727 117.746 23.7727C118.153 24.2206 118.799 24.2206 118.799 24.2206C119.376 24.2206 119.785 23.8071 119.785 23.8071C120.191 23.3937 120.191 22.84 120.191 22.84C120.191 22.1829 119.649 21.8383 119.649 21.8383L119.276 21.5627L119.208 21.3215C119.208 21.1492 119.378 20.9425 119.378 20.9425C119.547 20.7013 119.852 20.5291 119.852 20.5291C120.736 19.9778 121.891 19.9778 121.891 19.9778C123.351 19.9778 123.93 20.6693 123.93 20.6693C124.472 21.3609 124.472 23.2239 124.472 23.2239L124.438 25.018L121.925 25.5003C119.378 25.9827 118.054 27.0877 118.054 27.0877C116.729 28.1238 116.729 29.6422 116.729 29.6422C116.729 31.0229 117.647 31.8522 117.647 31.8522C118.564 32.6816 120.126 32.6816 120.126 32.6816C121.62 32.6816 122.707 31.9212 122.707 31.9212C123.794 31.1951 124.404 29.7456 124.404 29.7456C124.472 31.3674 124.98 32.059 124.98 32.059C125.523 32.7161 126.779 32.7161 126.779 32.7161C128.104 32.7161 128.75 31.8522 128.75 31.8522C129.36 30.9884 129.36 29.1599 129.36 29.1599V28.9187H128.852C128.818 30.4716 128.513 31.1632 128.513 31.1632C128.174 31.8547 127.494 31.8547 127.494 31.8547C127.155 31.8547 127.019 31.5446 127.019 31.5446C126.883 31.2345 126.883 30.5085 126.883 30.5085V24.0188C126.883 22.6726 126.578 21.8433 126.578 21.8433C126.273 21.0139 125.559 20.4971 125.559 20.4971C124.913 20.0492 123.964 19.7711 123.964 19.7711C123.044 19.4561 122.027 19.4561 122.027 19.4561ZM124.438 25.4634V26.1894C124.438 27.9491 124.303 28.6751 124.303 28.6751C124.133 29.4355 123.622 30.228 123.622 30.228C123.182 30.9195 122.467 31.3674 122.467 31.3674C121.753 31.8153 121.109 31.8153 121.109 31.8153C120.395 31.8153 119.954 31.1952 119.954 31.1952C119.547 30.575 119.547 29.4355 119.547 29.4355C119.547 27.7792 120.499 26.8465 120.499 26.8465C121.075 26.2952 121.993 25.9827 121.993 25.9827C122.84 25.7046 124.438 25.4634 124.438 25.4634Z" fill="white"/>
<path d="M140.533 19.8695C140.533 19.8695 141.349 20.283 141.755 21.009L142.128 21.9417L142.365 23.3912C142.365 23.3912 142.908 21.4569 144.13 20.4577C144.13 20.4577 145.319 19.4561 147.118 19.4561C147.118 19.4561 149.292 19.4561 150.278 20.6989C150.278 20.6989 150.718 21.2846 150.82 21.8728C150.82 21.8728 150.956 22.424 150.956 23.8761V29.849C150.956 29.849 150.956 31.0229 151.396 31.4019C151.396 31.4019 151.837 31.7809 153.469 31.8842V32.2977H145.963V31.8842C145.963 31.8842 147.593 31.7464 148.036 31.4019C148.036 31.4019 148.476 31.0229 148.476 29.849V23.8071C148.476 23.8071 148.476 21.5971 148.137 20.977C148.137 20.977 147.798 20.3568 146.61 20.3568C146.61 20.3568 145.285 20.3568 144.266 21.1862C144.266 21.1862 143.247 21.9811 142.874 23.3962C142.874 23.3962 142.603 24.3633 142.501 25.365C142.501 25.365 142.399 26.3666 142.399 28.1263V29.817C142.399 29.817 142.399 30.9909 142.874 31.4043C142.874 31.4043 143.315 31.7833 144.946 31.8867V32.3002H137.441V31.8867C137.441 31.8867 139.07 31.7489 139.513 31.4043C139.513 31.4043 139.954 31.0253 139.954 29.8514V22.808C139.954 22.808 139.954 21.5307 139.513 20.945C139.513 20.945 139.073 20.3593 138.087 20.3593C138.087 20.3593 136.933 20.3593 135.981 21.0853C135.981 21.0853 134.996 21.8457 134.521 23.1574C134.521 23.1574 134.114 24.228 133.979 25.2641C133.979 25.2641 133.843 26.3346 133.843 28.3354V29.8194C133.843 29.8194 133.843 30.9933 134.284 31.4068C134.284 31.4068 134.758 31.7858 136.356 31.8892V32.3026H128.851V31.8892C128.851 31.8892 130.48 31.7513 130.923 31.4068C130.923 31.4068 131.364 31.0278 131.364 29.8539V22.2936C131.364 22.2936 131.364 21.292 131.228 20.9474C131.228 20.9474 131.093 20.6373 130.652 20.4651L128.819 20.2239V19.776L133.812 19.4659V23.4011C133.812 23.4011 134.458 21.5012 135.715 20.502C135.715 20.502 136.937 19.4659 138.601 19.4659C138.664 19.4561 139.683 19.4561 140.533 19.8695Z" fill="white"/>
<path d="M65.8164 14.0713V29.7776C65.8164 29.7776 65.8164 30.9859 66.257 31.3649C66.257 31.3649 66.6638 31.7095 68.0898 31.8473C68.0898 31.8473 69.482 31.7095 69.9226 31.3649C69.9226 31.3649 70.3633 30.9859 70.3633 29.812V20.3174H67.8162V19.8006H70.3633C70.3633 19.8006 70.4988 18.1443 70.8717 17.1426C70.8717 17.1426 71.2784 16.1066 72.0944 15.3486C72.0944 15.3486 73.3848 14.0713 75.1837 14.0713C75.1837 14.0713 76.5081 14.0713 77.4257 14.7284C77.4257 14.7284 78.3094 15.3855 78.3094 16.3847C78.3094 16.3847 78.3094 17.0048 77.9365 17.3863C77.9365 17.3863 77.5976 17.7653 76.985 17.7653C76.985 17.7653 76.3749 17.7653 76.0335 17.4207C76.0335 17.4207 75.6946 17.0417 75.6946 16.4191C75.6946 16.4191 75.6946 16.0401 76.0335 15.4864L76.1352 15.2107C76.1352 15.2107 76.1352 14.9351 75.7963 14.7628C75.7963 14.7628 75.4573 14.5561 75.0142 14.5561C75.0142 14.5561 73.7238 14.5561 73.2492 15.4888C73.2492 15.4888 72.8086 16.3871 72.8086 18.8727V19.771H76.2393V20.2878H72.8086V29.7825C72.8086 29.7825 72.7747 30.9564 73.2492 31.3354C73.2492 31.3354 73.6899 31.7144 75.2878 31.8177V32.2312L59.3254 32.3346L57.4563 32.4724L56.9817 32.5413V28.7095C56.9817 28.7095 56.6089 29.6422 56.3014 30.1246L55.5533 31.0917C55.5533 31.0917 54.9068 31.8177 53.9578 32.2312C53.9578 32.2312 53.0402 32.6102 52.0548 32.6102C52.0548 32.6102 51.1711 32.6102 50.4593 32.3001C50.4593 32.3001 49.7111 31.9556 49.3044 31.3674C49.3044 31.3674 48.8298 30.7472 48.6579 29.9867C48.6579 29.9867 48.4885 29.1918 48.4885 27.8456V22.2542C48.4885 22.2542 48.4885 21.2181 48.3529 20.908C48.3529 20.908 48.2173 20.5979 47.7428 20.4257L45.772 20.1845V19.7366L50.9338 19.4265V28.4708C50.9338 28.4708 50.9338 30.1959 51.3744 31.0253C51.3744 31.0253 51.849 31.8547 52.8005 31.8547C52.8005 31.8547 53.9215 31.8547 54.9407 30.8875C54.9407 30.8875 55.9939 29.9203 56.5024 28.4018C56.5024 28.4018 56.9769 27.0557 56.9769 24.8112V22.2222C56.9769 22.2222 56.9769 21.1861 56.8752 20.876C56.8752 20.876 56.7396 20.5659 56.299 20.3937L54.396 20.1525V19.7046L59.49 19.3945V29.7505C59.49 29.7505 59.49 30.9588 59.9307 31.3378C59.9307 31.3378 60.3035 31.6479 61.3906 31.7858C61.3906 31.7858 62.4777 31.6479 62.8166 31.3378C62.8166 31.3378 63.2912 30.9588 63.2912 29.7849V16.9089C63.2912 16.9089 63.2912 15.8728 63.1556 15.5627C63.1556 15.5627 63.02 15.2526 62.5794 15.1148L60.7466 14.8391V14.4257H60.9161L63.4631 14.2534L65.5017 14.0811L65.8164 14.0713Z" fill="white"/>
<path d="M85.074 19.6282V24.3238H84.6672C84.6672 24.3238 84.3622 22.2861 83.2751 21.1122C83.2751 21.1122 82.2219 19.9727 80.6264 19.9727C80.6264 19.9727 79.5732 19.9727 78.8275 20.524C78.8275 20.524 78.1133 21.0753 78.1133 21.9047C78.1133 21.9047 78.1133 22.734 78.7936 23.2164C78.7936 23.2164 79.4739 23.6987 81.7812 24.4592L83.5801 25.0794C83.5801 25.0794 84.0547 25.2861 84.5655 25.5962C84.5655 25.5962 85.212 26.0096 85.6187 26.7701C85.6187 26.7701 85.9916 27.5306 85.9916 28.3919C85.9916 28.3919 85.9916 30.1515 84.5994 31.3599C84.5994 31.3599 83.2073 32.5683 81.1348 32.5683C81.1348 32.5683 79.4037 32.5683 77.9752 31.67L77.0915 31.0843L76.9221 31.0154C76.9221 31.0154 76.6848 31.0154 76.5492 31.4288L76.4475 31.8078L76.2442 32.4994H75.8374V26.8021H76.2442C76.2442 26.8021 77.6702 32.0835 81.1348 32.0835C81.1348 32.0835 82.3575 32.0835 83.2073 31.3575C83.2073 31.3575 84.091 30.6315 84.091 29.5634C84.091 29.5634 84.091 28.5273 83.4809 28.0449C83.4809 28.0449 82.8708 27.5625 80.5271 26.7676C80.5271 26.7676 78.658 26.1819 77.8106 25.6626C77.8106 25.6626 76.249 24.7299 76.249 23.0736C76.249 23.0736 76.249 21.5207 77.5394 20.4502C77.5394 20.4502 78.8299 19.3796 80.699 19.3796C80.699 19.3796 82.1928 19.3796 83.5511 20.1746C83.5511 20.1746 84.0256 20.4846 84.1612 20.4846C84.1612 20.4846 84.3307 20.4846 84.4324 20.2779L84.7035 19.5519H85.0764" fill="white"/>
<path d="M97.3631 19.6283L99.7067 19.4561V22.2518C99.7067 22.2518 100.249 20.8367 101.099 20.1452C101.099 20.1452 101.983 19.4536 103.239 19.4536C103.239 19.4536 104.36 19.4536 105.108 20.0393C105.108 20.0393 105.822 20.6251 105.822 21.5922C105.822 21.5922 105.822 22.2838 105.382 22.7662C105.382 22.7662 104.941 23.2485 104.329 23.2485C104.329 23.2485 103.682 23.2485 103.242 22.8351C103.242 22.8351 102.801 22.3872 102.801 21.7645C102.801 21.7645 102.801 21.3511 102.936 21.1074L103.445 20.5562L103.547 20.3839C103.547 20.3839 103.547 20.2461 103.343 20.1772L102.835 20.0738C102.835 20.0738 102.087 20.0738 101.409 20.6595C101.409 20.6595 100.728 21.2108 100.356 22.178C100.356 22.178 99.9827 23.1107 99.8471 24.0779C99.8471 24.0779 99.7115 25.0451 99.7115 26.6324V29.7727C99.7115 29.7727 99.7115 30.9466 100.186 31.3601C100.186 31.3601 100.661 31.7391 102.36 31.8424V32.2559H94.6853V31.8424C94.6853 31.8424 96.3147 31.7046 96.7578 31.3601C96.7578 31.3601 97.1984 30.9811 97.1984 29.8071V22.2469C97.1984 22.2469 97.1984 21.2108 97.0628 20.9007C97.0628 20.9007 96.9273 20.5906 96.4527 20.4183L94.4819 20.1772V19.7292L97.3631 19.6283Z" fill="white"/>
<path d="M89.6217 16.9359C89.6217 16.9359 89.8928 15.9343 90.0284 14.0713H90.4691V19.7686H94.3404V20.3198H90.4691V28.7439C90.4691 28.7439 90.4691 30.5725 90.808 31.1951C90.808 31.1951 91.1131 31.7808 92.0985 31.7808C92.0985 31.7808 93.3211 31.7808 93.8635 30.8481C93.8635 30.8481 94.3719 29.9154 94.4736 27.602L94.5075 27.2575H95.0159V27.5676C95.0159 27.5676 95.0159 28.7759 94.8803 29.5364C94.8803 29.5364 94.7448 30.2279 94.4397 30.8826C94.4397 30.8826 94.033 31.7119 93.217 32.1598C93.217 32.1598 92.4011 32.6077 91.3479 32.6077C91.3479 32.6077 90.2948 32.6077 89.4788 32.1598C89.4788 32.1598 88.629 31.7119 88.324 30.9859C88.324 30.9859 88.0189 30.3288 87.985 29.3986V20.2854H85.438V19.803C85.438 19.803 87.8155 19.6652 88.8009 18.4568C88.8421 18.5233 89.3505 17.9376 89.6217 16.9359Z" fill="white"/>
<path d="M33.7213 16.7982C33.7213 16.7982 32.397 19.0082 32.397 23.2879C32.397 23.2879 32.397 27.7424 33.6535 29.9155C33.6535 29.9155 34.8762 32.091 37.4232 32.091C37.4232 32.091 38.4086 32.091 39.2923 31.7465C39.2923 31.7465 40.176 31.4019 40.7862 30.8137C40.7862 30.8137 41.4326 30.1566 41.7377 29.2264C41.7377 29.2264 42.0427 28.3281 42.0427 26.9475V25.808C42.0427 25.808 42.0427 24.4274 41.636 24.0484C41.636 24.0484 41.1953 23.6694 39.3262 23.566V23.1181H47.512V23.5316C47.512 23.5316 45.5412 23.7038 45.1006 24.0484C45.1006 24.0484 44.626 24.3929 44.626 25.808V32.4011H44.2193C44.2193 32.4011 43.8803 30.9515 43.6092 30.3978C43.6092 30.3978 43.3041 29.8121 42.9288 29.8121C42.9288 29.8121 42.6577 29.8121 42.1468 30.2945C42.1468 30.2945 40.8903 31.5717 39.871 32.0885C39.871 32.0885 38.8517 32.5709 37.4595 32.5709C37.4595 32.5709 34.4041 32.5709 31.9588 29.7407C31.9588 29.7407 29.5134 26.9105 29.5134 23.3544C29.5134 23.3544 29.5134 19.7293 31.9927 16.8646C31.9927 16.8646 34.4719 14 37.6314 14C37.6314 14 39.5344 14 41.1638 15.1739L41.7062 15.5874C41.7062 15.5874 42.1807 15.8975 42.4543 15.8975C42.4543 15.8975 42.9966 15.8975 43.4736 14.1723H43.9142L43.982 21.1468H43.5753L42.8949 19.0746L42.079 17.4184C42.079 17.4184 41.2292 15.8999 40.176 15.2428C40.176 15.2428 39.1228 14.5857 37.629 14.5857C37.5951 14.6226 35.0457 14.6226 33.7213 16.7982Z" fill="white"/>
<path d="M111.22 19.4905C108.775 19.4905 106.942 21.4593 106.942 21.4593C105.073 23.4626 105.073 26.1205 105.073 26.1205C105.073 28.8818 106.906 30.7817 106.906 30.7817C108.738 32.6816 111.423 32.6816 111.423 32.6816C113.53 32.6816 114.888 31.4732 114.888 31.4732C116.212 30.2649 116.517 28.0893 116.517 28.0893H116.009C115.704 30.0926 114.549 31.1607 114.549 31.1607C113.394 32.1968 111.494 32.1968 111.494 32.1968C109.557 32.1968 108.675 30.9195 108.675 30.9195C107.758 29.6422 107.758 26.9843 107.758 26.9843L107.792 25.6726L116.418 25.707L116.452 25.1558C116.452 22.7046 114.992 21.1517 114.992 21.1517C113.496 19.4905 111.22 19.4905 111.22 19.4905ZM111.152 20.0417C113.903 20.0417 113.903 23.6324 113.903 23.6324C113.903 24.634 113.598 24.8752 113.598 24.8752C113.326 25.1164 112.714 25.1164 112.714 25.1164H107.823C107.959 22.3896 108.741 21.2157 108.741 21.2157C109.523 20.0418 111.152 20.0417 111.152 20.0417Z" fill="white"/>
</svg>
