<svg width="25" height="25" viewBox="0 0 25 25" fill="none" xmlns="http://www.w3.org/2000/svg">
<path d="M4.05469 18.4512C3.5024 18.4512 3.05469 18.0035 3.05469 17.4512V17.4512C3.05469 16.8989 3.5024 16.4512 4.05469 16.4512H20.0547C20.607 16.4512 21.0547 16.8989 21.0547 17.4512V17.4512C21.0547 18.0035 20.607 18.4512 20.0547 18.4512H4.05469ZM4.05469 13.4512C3.5024 13.4512 3.05469 13.0035 3.05469 12.4512V12.4512C3.05469 11.8989 3.5024 11.4512 4.05469 11.4512H20.0547C20.607 11.4512 21.0547 11.8989 21.0547 12.4512V12.4512C21.0547 13.0035 20.607 13.4512 20.0547 13.4512H4.05469ZM4.05469 8.45117C3.5024 8.45117 3.05469 8.00346 3.05469 7.45117V7.45117C3.05469 6.89889 3.5024 6.45117 4.05469 6.45117H20.0547C20.607 6.45117 21.0547 6.89889 21.0547 7.45117V7.45117C21.0547 8.00346 20.607 8.45117 20.0547 8.45117H4.05469Z" fill="white"/>
</svg>
