<svg width="21" height="21" viewBox="0 0 21 21" fill="none" xmlns="http://www.w3.org/2000/svg">
<path d="M6.06818 0.608398H14.6303C17.892 0.608398 20.5422 3.25857 20.5422 6.52033V15.0824C20.5422 16.6504 19.9194 18.1541 18.8106 19.2628C17.7019 20.3715 16.1982 20.9944 14.6303 20.9944H6.06818C2.80643 20.9944 0.15625 18.3442 0.15625 15.0824V6.52033C0.15625 4.95239 0.779112 3.44866 1.88781 2.33996C2.99652 1.23126 4.50024 0.608398 6.06818 0.608398ZM5.86432 2.64699C4.89111 2.64699 3.95777 3.0336 3.26961 3.72176C2.58145 4.40992 2.19485 5.34326 2.19485 6.31647V15.2863C2.19485 17.3147 3.83592 18.9558 5.86432 18.9558H14.8341C15.8073 18.9558 16.7407 18.5692 17.4289 17.881C18.117 17.1928 18.5036 16.2595 18.5036 15.2863V6.31647C18.5036 4.28806 16.8625 2.64699 14.8341 2.64699H5.86432ZM15.7005 4.17594C16.0385 4.17594 16.3625 4.31018 16.6015 4.54912C16.8404 4.78807 16.9747 5.11215 16.9747 5.45007C16.9747 5.78798 16.8404 6.11206 16.6015 6.35101C16.3625 6.58995 16.0385 6.72419 15.7005 6.72419C15.3626 6.72419 15.0385 6.58995 14.7996 6.35101C14.5607 6.11206 14.4264 5.78798 14.4264 5.45007C14.4264 5.11215 14.5607 4.78807 14.7996 4.54912C15.0385 4.31018 15.3626 4.17594 15.7005 4.17594ZM10.3492 5.70489C11.7009 5.70489 12.9972 6.24184 13.953 7.19762C14.9088 8.15339 15.4457 9.44971 15.4457 10.8014C15.4457 12.1531 14.9088 13.4494 13.953 14.4051C12.9972 15.3609 11.7009 15.8979 10.3492 15.8979C8.99756 15.8979 7.70125 15.3609 6.74547 14.4051C5.78969 13.4494 5.25274 12.1531 5.25274 10.8014C5.25274 9.44971 5.78969 8.15339 6.74547 7.19762C7.70125 6.24184 8.99756 5.70489 10.3492 5.70489ZM10.3492 7.74349C9.53823 7.74349 8.76044 8.06566 8.18697 8.63912C7.61351 9.21259 7.29134 9.99038 7.29134 10.8014C7.29134 11.6124 7.61351 12.3902 8.18697 12.9636C8.76044 13.5371 9.53823 13.8593 10.3492 13.8593C11.1602 13.8593 11.938 13.5371 12.5115 12.9636C13.085 12.3902 13.4071 11.6124 13.4071 10.8014C13.4071 9.99038 13.085 9.21259 12.5115 8.63912C11.938 8.06566 11.1602 7.74349 10.3492 7.74349Z" fill="white"/>
</svg>
