<svg width="180" height="47" viewBox="0 0 180 47" fill="none" xmlns="http://www.w3.org/2000/svg">
<path d="M81.7776 17.5408C79.9628 17.5408 77.9118 18.4052 76.6765 20.108V17.8115H72.3638V33.917H76.6765V24.7552C76.6765 23.1065 77.9118 21.3495 80.2262 21.3495C82.0137 21.3495 83.854 22.6191 83.854 24.7552V33.917H88.1667V23.9449C88.1394 20.2424 85.5634 17.5408 81.7776 17.5408Z" fill="white"/>
<path d="M118.719 17.8115L114.828 28.7825L110.936 17.8115H106.019L112.461 33.917H117.195L123.637 17.8115H118.719Z" fill="white"/>
<path d="M59.5062 22.6753C60.2419 21.6745 61.3991 21.0808 62.8198 21.0808C64.3712 21.0808 65.5538 21.9994 66.1587 23.3231L58.6397 26.5382C58.429 24.8635 58.8505 23.5939 59.5062 22.6753ZM67.7901 28.9711C65.9753 30.349 64.9508 30.6739 63.294 30.6739C61.7953 30.6739 60.638 30.1865 59.8223 29.3762L70.813 24.6749C70.5768 22.918 69.9192 21.3776 68.9454 20.1883C67.4994 18.4594 65.3703 17.5408 62.7671 17.5408C58.0348 17.5408 54.4578 21.1349 54.4578 25.8643C54.4578 30.728 58.0328 34.1878 63.2393 34.1878C66.1587 34.1878 69.1288 32.7818 70.5222 31.1071L67.7901 28.9711Z" fill="white"/>
<path d="M54.038 29.8637H44.2573V13H39.8918V33.9171H54.038V29.8637Z" fill="white"/>
<path d="M131.367 21.3235C128.975 21.3235 127.212 23.1887 127.212 25.8643C127.212 28.4055 129.053 30.4051 131.42 30.4051C133.812 30.4051 135.574 28.4857 135.574 25.8643C135.574 23.3231 133.707 21.3235 131.367 21.3235ZM131.367 34.1878C126.66 34.1878 122.98 30.5937 122.98 25.8643C122.98 21.1891 126.688 17.5408 131.42 17.5408C136.127 17.5408 139.807 21.1349 139.807 25.8643C139.807 30.5395 136.099 34.1878 131.367 34.1878Z" fill="white"/>
<path d="M98.2365 21.3235C95.844 21.3235 94.0818 23.1887 94.0818 25.8643C94.0818 28.4055 95.9221 30.4051 98.2892 30.4051C100.682 30.4051 102.444 28.4857 102.444 25.8643C102.444 23.3231 100.576 21.3235 98.2365 21.3235ZM98.2365 34.1878C93.5296 34.1878 89.8491 30.5937 89.8491 25.8643C89.8491 21.1891 93.5569 17.5408 98.2892 17.5408C102.996 17.5408 106.677 21.1349 106.677 25.8643C106.677 30.5395 102.969 34.1878 98.2365 34.1878Z" fill="white"/>
</svg>
