<svg width="180" height="47" viewBox="0 0 180 47" fill="none" xmlns="http://www.w3.org/2000/svg">
<g clip-path="url(#clip0_1669_1690)">
<path d="M128.935 35.3432C128.736 35.3292 128.536 35.3058 128.338 35.3058C125.151 35.3043 121.962 35.3058 118.774 35.3058C118.579 35.3058 118.386 35.3058 118.168 35.3058C118.163 35.2217 118.155 35.1531 118.155 35.0861C118.155 25.5016 118.155 15.9186 118.155 6.33414C118.155 5.63272 118.154 4.9313 118.154 4.22988C118.154 4.03504 118.162 4.02881 118.347 4.02881C121.636 4.03504 124.926 4.04128 128.215 4.04907C128.455 4.04907 128.695 4.05219 128.935 4.05375V35.3448V35.3432ZM125.006 27.2208C124.919 27.0462 124.841 26.906 124.777 26.7594C124.465 26.0502 124.158 25.3395 123.848 24.6287C123.775 24.4603 123.714 24.4214 123.552 24.4635C123.176 24.5617 122.821 24.7097 122.515 24.956C121.86 25.486 121.712 26.2139 121.848 26.9761C121.996 27.8053 122.537 28.3524 123.351 28.6205C123.65 28.7187 123.951 28.6922 124.251 28.6891C125.028 28.6813 125.595 28.2979 125.972 27.6448C126.203 27.2442 126.264 26.8031 126.233 26.3324C126.208 25.9567 126.123 25.6076 125.999 25.2615C125.915 25.0246 125.765 24.8298 125.589 24.6552C125.474 24.5414 125.389 24.5414 125.28 24.6614C125.151 24.8064 125.032 24.9607 124.901 25.1057C124.805 25.2132 124.817 25.3052 124.898 25.4158C125.059 25.6356 125.194 25.8601 125.235 26.1453C125.288 26.521 125.238 26.8623 125.004 27.2224L125.006 27.2208ZM121.926 22.9468V24.1502H126.169V22.9406C126.081 22.9406 126.017 22.9406 125.952 22.9406C125.232 22.9406 124.512 22.9406 123.79 22.9375C123.695 22.9375 123.594 22.9266 123.505 22.8954C123.078 22.7504 122.863 22.3717 122.913 21.9586C122.962 21.5487 123.329 21.2229 123.725 21.212C123.904 21.2073 124.085 21.212 124.264 21.2089C124.753 21.2011 125.241 21.1902 125.731 21.1808C125.865 21.1793 126 21.1808 126.169 21.1808C126.191 20.7974 126.183 20.4373 126.175 20.0617C126.066 20.0476 125.971 20.0243 125.877 20.0227C125.151 20.0196 124.423 20.018 123.697 20.0211C123.528 20.0211 123.358 20.0274 123.195 20.057C122.289 20.2129 121.87 20.8457 121.801 21.6484C121.772 21.9991 121.907 22.3327 122.107 22.6257C122.172 22.7239 122.266 22.8034 122.376 22.9235C122.208 22.9328 122.076 22.939 121.926 22.9468ZM121.825 8.96835C121.792 10.3307 122.927 11.2378 124.149 11.1848C125.187 11.1396 126.409 10.418 126.223 8.627C126.117 7.59981 125.209 6.77213 123.946 6.79707C122.677 6.82201 121.744 7.95675 121.825 8.96835ZM121.825 17.4275C121.745 18.6822 122.9 19.7453 124.163 19.6564C125.274 19.5785 126.317 18.8007 126.261 17.3417C126.222 16.3301 125.375 15.1876 123.804 15.2983C122.627 15.3809 121.748 16.4938 121.826 17.429L121.825 17.4275ZM121.91 10.9043C121.91 11.3563 121.91 11.7569 121.91 12.159C121.91 12.2603 121.976 12.2993 122.065 12.3289C122.504 12.4754 122.942 12.6298 123.382 12.7778C123.785 12.915 124.191 13.0459 124.618 13.1878C124.559 13.2205 124.502 13.2595 124.442 13.2813C124.205 13.367 123.968 13.4512 123.729 13.5307C123.198 13.7099 122.666 13.8861 122.136 14.0653C122.058 14.0918 121.987 14.1324 121.926 14.1604V15.5367C122.105 15.4604 122.259 15.3871 122.418 15.3248C123.62 14.8587 124.822 14.3927 126.025 13.9297C126.147 13.883 126.197 13.8159 126.192 13.685C126.181 13.4512 126.187 13.2174 126.183 12.9851C126.173 12.5487 126.27 12.6033 125.799 12.4178C124.767 12.0094 123.732 11.6104 122.699 11.2082C122.448 11.11 122.197 11.0134 121.91 10.9027V10.9043ZM120.634 32.4269H126.123C126.191 32.2773 126.219 29.1256 126.159 28.7858C126.056 28.7858 125.952 28.7889 125.848 28.7858C125.675 28.778 125.5 28.7764 125.33 28.7499C125.12 28.7172 125.067 28.7515 125.067 28.9744C125.067 29.6555 125.067 30.3382 125.067 31.0194C125.067 31.0895 125.059 31.1581 125.054 31.2501H120.637V32.4269H120.634Z" fill="white"/>
<path d="M51 7.63721H55.8258V25.0963H66.6494V29.4591H51V7.63721Z" fill="white"/>
<path d="M51 39.6687H51.6188V42.4557H53.3256V43.0199H51V39.6687Z" fill="white"/>
<path d="M80.9693 26.0099C78.932 29.1039 76.9104 32.1777 74.8856 35.253C74.1904 35.3216 65.4929 35.3294 65.2668 35.253C65.3354 35.1563 65.4009 35.0644 65.4648 34.9724C67.0453 32.6687 68.6243 30.3633 70.2048 28.0596C71.7854 25.7542 73.3659 23.4505 74.9449 21.1467C75.3034 20.623 75.6572 20.0946 76.0219 19.5739C76.1045 19.4555 76.1154 19.3698 76.0313 19.2451C74.9979 17.7378 73.9691 16.2258 72.9404 14.7139C72.1189 13.5075 71.3022 12.2995 70.4807 11.0946C69.9289 10.2856 69.3694 9.48288 68.8191 8.67235C68.0943 7.60463 67.3773 6.53224 66.6557 5.46297C66.4203 5.11382 66.1818 4.76623 65.9418 4.41864C65.8654 4.30797 65.7781 4.20197 65.6783 4.06948C65.7282 4.05234 65.775 4.02272 65.8233 4.02116C66.1366 4.01649 66.4499 4.01961 66.7632 4.01961C66.8084 4.01961 66.8536 4.01961 66.8988 4.01961C69.6328 4.01961 72.3668 4.01961 75.1007 4.01025C75.3751 4.01025 75.5372 4.08195 75.693 4.32355C77.1956 6.67097 78.7138 9.00747 80.2273 11.3471C80.5048 11.7773 80.7838 12.2059 81.0643 12.6346C81.094 12.6798 81.136 12.7156 81.1813 12.7671C81.5366 12.2246 81.878 11.7072 82.2162 11.1881C83.5022 9.2179 84.7865 7.24769 86.0709 5.27592C86.3047 4.91742 86.5385 4.56048 86.763 4.19574C86.844 4.06481 86.9391 4.01025 87.0934 4.01025C89.9708 4.01649 92.8482 4.01805 95.724 4.01961C95.964 4.01961 96.2041 4.01961 96.4691 4.01961C96.4426 4.0726 96.4285 4.1178 96.402 4.15677C95.3593 5.68275 94.3165 7.20716 93.2721 8.73314C91.955 10.6597 90.6395 12.5878 89.3208 14.5128C88.2812 16.0326 87.2368 17.5492 86.1956 19.0674C86.0257 19.3136 86.0242 19.3339 86.1941 19.5817C87.6701 21.7452 89.1478 23.9087 90.6239 26.0706C92.1514 28.3089 93.6805 30.5473 95.2065 32.7856C95.71 33.5244 96.2103 34.2663 96.7122 35.0067C96.7621 35.08 96.8166 35.1517 96.8899 35.2545C96.8042 35.2717 96.7403 35.2951 96.6764 35.2951C93.5324 35.2951 90.3901 35.2951 87.2462 35.2935C87.1527 35.2935 87.0778 35.281 87.0171 35.186C86.4699 34.3365 85.9166 33.4901 85.3633 32.6437C84.2254 30.9026 83.086 29.1616 81.9466 27.422C81.666 26.9934 81.3839 26.5663 81.0986 26.1408C81.0659 26.0909 81.0145 26.0535 80.9677 26.0052L80.9693 26.0099ZM69.1963 5.87759C69.2041 5.92746 69.2026 5.94305 69.2088 5.9524C69.9835 7.08714 70.7628 8.21876 71.536 9.35506C72.5647 10.867 73.5872 12.3821 74.6129 13.894C75.8115 15.6585 77.0117 17.4214 78.2104 19.1858C78.3662 19.4165 78.36 19.4321 78.1994 19.6644C77.3422 20.9082 76.4849 22.1521 75.6307 23.399C74.6191 24.8751 73.6137 26.3559 72.6021 27.8304C71.3442 29.6635 70.0833 31.4949 68.8238 33.328C68.7973 33.3654 68.7864 33.4122 68.7584 33.4745C68.9127 33.4807 69.0342 33.4917 69.1558 33.4917C70.3903 33.4901 71.6233 33.4854 72.8578 33.4823C73.1305 33.4823 73.4033 33.4807 73.6761 33.487C73.8008 33.4901 73.8803 33.4418 73.9442 33.3342C74.058 33.1456 74.1842 32.9648 74.3042 32.7809C75.2395 31.3484 76.17 29.9129 77.1099 28.4835C77.8394 27.3737 78.5813 26.2702 79.3155 25.1635C79.8408 24.3685 80.3629 23.572 80.8882 22.7771C80.9272 22.7194 80.9817 22.6727 81.0332 22.615C81.1111 22.7568 81.1672 22.8737 81.2374 22.9813C81.772 23.8012 82.3082 24.6195 82.8475 25.4362C83.6315 26.6271 84.4218 27.8148 85.2012 29.0072C86.0943 30.3742 86.9921 31.7381 87.8572 33.1238C88.0458 33.4262 88.2515 33.4979 88.5726 33.4948C90.0207 33.4807 91.4687 33.487 92.9168 33.4839C93.068 33.4839 93.2207 33.4729 93.3719 33.4667C93.3828 33.4511 93.3922 33.4355 93.4031 33.4199C90.1999 28.722 86.9968 24.0241 83.7874 19.3183C86.8503 14.8402 89.9162 10.3885 92.937 5.89785C92.7967 5.87447 92.6736 5.87447 92.5505 5.87447C91.0697 5.87447 89.5889 5.87447 88.1081 5.87447C88.0629 5.87447 88.0131 5.86512 87.9725 5.8807C87.9117 5.90408 87.8369 5.9337 87.8026 5.98358C87.307 6.73643 86.8191 7.49241 86.3281 8.24838C85.2417 9.91464 84.1537 11.5809 83.0673 13.2472C82.4687 14.1652 81.8718 15.0833 81.2732 15.9998C81.2405 16.0513 81.1984 16.0949 81.1501 16.1557C81.1142 16.1089 81.0924 16.0856 81.0768 16.0591C80.8898 15.7707 80.7043 15.4823 80.5172 15.194C79.4526 13.5511 78.388 11.9098 77.325 10.2669C76.4069 8.84692 75.4904 7.42538 74.577 6.00072C74.5115 5.89941 74.4383 5.86356 74.3229 5.86512C72.6988 5.86979 71.0761 5.87291 69.452 5.87447C69.3694 5.87447 69.2868 5.87447 69.1917 5.87447L69.1963 5.87759Z" fill="white"/>
<path d="M112.008 10.2761C110.996 11.4966 109.991 12.7108 109.006 13.8986C108.484 13.5338 107.999 13.1504 107.472 12.8386C107.001 12.5612 106.495 12.3305 105.982 12.1388C105.564 11.9829 105.118 11.8816 104.676 11.8146C104.019 11.7148 103.351 11.6743 102.69 11.7366C101.837 11.8161 101.038 12.0874 100.302 12.5441C99.2575 13.1925 98.4299 14.0389 97.8609 15.1299C97.5897 15.6506 97.373 16.1977 97.2187 16.765C97.0099 17.5335 97.0286 18.3206 97.0566 19.1062C97.1221 20.866 97.7783 22.3826 99.0003 23.6452C99.669 24.3357 100.478 24.8204 101.387 25.1353C101.843 25.2927 102.311 25.4081 102.793 25.4408C103.185 25.4673 103.58 25.4954 103.971 25.4798C104.634 25.4533 105.296 25.3894 105.937 25.2054C106.688 24.9888 107.399 24.6739 108.053 24.239C108.136 24.1845 108.134 24.119 108.134 24.0395C108.134 23.215 108.134 22.3904 108.133 21.5659C108.133 21.4037 108.133 21.2432 108.133 21.0577H103.304C103.301 19.6549 103.299 18.2754 103.304 16.8928H112.782C112.789 16.9739 112.796 17.044 112.796 17.1126C112.796 20.0929 112.793 23.0747 112.8 26.0549C112.8 26.2856 112.726 26.4368 112.546 26.5818C111.286 27.5903 109.897 28.3712 108.404 28.9697C107.869 29.1833 107.321 29.3547 106.752 29.4732C106.189 29.5901 105.631 29.7132 105.054 29.7382C104.676 29.7537 104.298 29.7911 103.921 29.813C103.588 29.8317 103.251 29.8613 102.917 29.8473C102.529 29.8317 102.14 29.7865 101.755 29.7319C101.304 29.668 100.851 29.6057 100.409 29.4997C99.0736 29.1786 97.8266 28.6424 96.6857 27.8708C95.0646 26.7766 93.8566 25.3317 93.0492 23.5548C92.8544 23.1246 92.6876 22.6788 92.5364 22.2314C92.3571 21.6968 92.2153 21.1512 92.1514 20.5885C92.1062 20.1957 92.0625 19.8014 92.036 19.407C92.0095 19.0205 91.994 18.6339 91.9986 18.2474C92.0017 17.9403 92.0345 17.6332 92.0719 17.3293C92.128 16.8897 92.1888 16.4502 92.2714 16.0153C92.3275 15.7207 92.4086 15.4277 92.5036 15.1424C92.7717 14.3397 93.1115 13.5666 93.5355 12.8324C94.2104 11.6603 95.0864 10.6611 96.1308 9.80696C97.2016 8.93097 98.4034 8.29813 99.708 7.85234C100.319 7.64348 100.952 7.52969 101.585 7.41123C102.224 7.29121 102.867 7.29121 103.513 7.30368C103.874 7.30991 104.238 7.30991 104.598 7.33329C104.955 7.35667 105.308 7.40655 105.664 7.4502C105.933 7.48293 106.205 7.51099 106.47 7.56554C106.858 7.64659 107.244 7.74012 107.628 7.84299C109.263 8.2841 110.658 9.16322 111.953 10.2231C111.967 10.2356 111.978 10.2512 112.006 10.2839L112.008 10.2761Z" fill="white"/>
<path d="M116.643 41.7464C116.941 42.1672 117.233 42.5772 117.538 43.0089H116.821C116.55 42.6208 116.285 42.2389 116.018 41.8586H115.29V43.0027H114.69C114.686 42.9684 114.676 42.9248 114.676 42.8827C114.676 41.857 114.678 40.8314 114.679 39.8058C114.679 39.639 114.679 39.6359 114.852 39.6359C115.236 39.6359 115.618 39.6406 116.001 39.6328C116.307 39.6265 116.6 39.6858 116.877 39.7964C117.173 39.9149 117.337 40.1565 117.402 40.4682C117.519 41.0247 117.287 41.4798 116.79 41.6809C116.743 41.6996 116.698 41.7214 116.643 41.7464ZM115.303 41.3037C115.618 41.3037 115.937 41.3302 116.249 41.2944C116.477 41.2694 116.71 41.1946 116.77 40.9C116.83 40.6007 116.709 40.3264 116.445 40.2609C116.067 40.1674 115.682 40.2282 115.287 40.2126C115.287 40.5696 115.287 40.9 115.287 41.2289C115.287 41.2476 115.295 41.2647 115.301 41.3021L115.303 41.3037Z" fill="white"/>
<path d="M60.0326 39.6313C60.2306 39.6485 60.4083 39.6625 60.6031 39.6797V43.0184C60.4566 43.0184 60.321 43.0278 60.1885 43.0137C60.1324 43.0075 60.0669 42.967 60.0311 42.9218C59.5214 42.2671 59.0148 41.6109 58.5098 40.9531C58.4521 40.8783 58.3991 40.7988 58.3212 40.7256C58.2588 41.1059 58.2853 41.4862 58.2807 41.8634C58.276 42.2391 58.2807 42.6132 58.2807 43.0044H57.6946V39.6688C57.8551 39.6688 58.025 39.6516 58.1887 39.6765C58.2619 39.6875 58.3368 39.7716 58.3882 39.8387C58.7202 40.2611 59.0475 40.6897 59.3764 41.1152C59.565 41.36 59.7568 41.6031 59.9796 41.8899C60.0856 41.1215 59.9921 40.3858 60.0342 39.6329L60.0326 39.6313Z" fill="white"/>
<path d="M63.2327 43.0682C62.5063 43.023 62.0122 42.6739 61.6864 42.066C61.5228 41.7605 61.4635 41.4175 61.5337 41.0996C61.6631 40.5166 61.9405 40.0085 62.539 39.7591C63.2638 39.4567 63.931 39.5673 64.5264 40.0661C64.7758 40.2734 64.9052 40.5634 64.9753 40.8813C65.0797 41.3567 65.0517 41.8166 64.7929 42.2374C64.517 42.6848 64.1149 42.9513 63.5881 43.0214C63.4618 43.0386 63.3355 43.0557 63.2342 43.0698L63.2327 43.0682ZM63.242 42.479C63.998 42.5133 64.3799 41.9428 64.3955 41.3879C64.4142 40.7192 64.0042 40.2127 63.3714 40.1737C62.5422 40.1222 62.165 40.7785 62.1525 41.2882C62.1385 41.8758 62.5577 42.5024 63.2405 42.479H63.242Z" fill="white"/>
<path d="M118.095 41.3132C118.074 40.6149 118.52 39.9057 119.346 39.6672C119.943 39.4957 120.91 39.689 121.281 40.3016C121.57 40.7817 121.644 41.2836 121.503 41.8276C121.338 42.4651 120.913 42.8454 120.305 42.9981C119.301 43.2522 118.384 42.7565 118.113 41.681C118.084 41.5641 118.099 41.4363 118.093 41.3132H118.095ZM119.795 42.5165C119.99 42.4651 120.2 42.4448 120.377 42.356C120.886 42.0941 121.03 41.5314 120.921 41.0108C120.816 40.5167 120.3 40.1317 119.829 40.1691C119.351 40.2065 118.977 40.4419 118.799 40.8892C118.727 41.07 118.723 41.2508 118.727 41.4379C118.74 41.9133 119.212 42.5118 119.795 42.5181V42.5165Z" fill="white"/>
<path d="M69.1525 41.3115C69.1338 40.3342 69.963 39.5969 70.8281 39.6016C71.888 39.6078 72.5536 40.169 72.6222 41.1556C72.7142 42.4758 71.7711 43.0307 70.8983 43.0619C70.0129 43.0931 69.0839 42.3231 69.1525 41.3115ZM72.0034 41.3302C72.0486 40.6958 71.5638 40.1752 70.9325 40.1752C70.2576 40.1752 69.7355 40.674 69.7433 41.3115C69.751 41.8944 70.2732 42.4743 70.7938 42.4758C71.5732 42.4774 72.0018 42.0721 72.0034 41.3302Z" fill="white"/>
<path d="M98.0168 39.6951C98.4128 39.5735 98.6497 39.7434 98.8695 40.052C99.2841 40.6319 99.7392 41.1821 100.177 41.7464C100.199 41.776 100.218 41.8072 100.279 41.8414C100.291 41.7323 100.316 41.6232 100.314 41.5157C100.311 40.9187 100.3 40.3217 100.294 39.7247C100.294 39.706 100.303 39.6889 100.314 39.6499H100.886V43.0011C100.567 43.0728 100.363 42.9637 100.177 42.7128C99.7049 42.0706 99.2061 41.4471 98.7167 40.8174C98.6824 40.7722 98.6263 40.7441 98.5593 40.6927V43.0089H98.0168V39.6935V39.6951Z" fill="white"/>
<path d="M91.9471 43.0199C91.7788 43.0199 91.6104 43.0137 91.4421 43.0215C91.3143 43.0277 91.2472 42.9685 91.1802 42.8656C90.9526 42.5212 90.711 42.1845 90.4835 41.8571H89.7633C89.7633 41.9709 89.7633 42.0769 89.7633 42.1845C89.7633 42.398 89.768 42.6131 89.7665 42.8267C89.7665 42.9903 89.7384 43.0153 89.5716 43.0184C89.45 43.0215 89.3269 43.0184 89.1851 43.0184V39.6438C89.2349 39.6407 89.2848 39.6344 89.3347 39.636C89.8397 39.6438 90.3463 39.636 90.8498 39.6656C91.1225 39.6812 91.3875 39.7716 91.6042 39.9618C91.7694 40.1067 91.8411 40.2891 91.8395 40.5057C91.8395 40.6102 91.8286 40.7146 91.8395 40.8175C91.8832 41.2399 91.6416 41.4768 91.3049 41.653C91.2488 41.6826 91.1896 41.7044 91.1069 41.7402C91.4062 42.1627 91.6961 42.5695 91.9845 42.9763C91.972 42.9903 91.9596 43.0044 91.9471 43.0168V43.0199ZM89.7618 41.3054C90.1187 41.2851 90.4616 41.3443 90.8061 41.268C91.1428 41.1947 91.2815 41.0357 91.2519 40.7037C91.2238 40.4029 91.0695 40.261 90.8451 40.2486C90.524 40.2299 90.2029 40.2236 89.8818 40.2143C89.8397 40.2143 89.7976 40.2252 89.7618 40.2314V41.3054Z" fill="white"/>
<path d="M113.192 40.5136C112.778 40.1551 112.335 40.0725 111.863 40.2595C111.521 40.3951 111.325 40.6695 111.214 41.0248C111.093 41.4176 111.211 41.7543 111.425 42.0598C111.691 42.4417 112.131 42.6085 112.675 42.4604C112.968 42.3804 113.114 42.1871 113.114 41.8806C113.114 41.8151 113.114 41.7512 113.114 41.6701H112.271V41.1417H113.682C113.688 41.1792 113.696 41.2103 113.696 41.2399C113.696 41.6094 113.687 41.9788 113.693 42.3482C113.696 42.5025 113.644 42.5945 113.514 42.6786C113.069 42.9654 112.588 43.1182 112.065 43.0512C111.423 42.9686 110.92 42.6615 110.695 42.0162C110.625 41.8151 110.55 41.6 110.549 41.3911C110.546 40.7069 110.9 39.9977 111.648 39.714C112.204 39.5035 112.742 39.5752 113.267 39.8231C113.348 39.8605 113.428 39.915 113.487 39.979C113.518 40.0132 113.531 40.1068 113.506 40.1411C113.412 40.2704 113.3 40.3873 113.191 40.512L113.192 40.5136Z" fill="white"/>
<path d="M108.094 40.2128H106.194V41.0358H107.882V41.611H106.191V42.4371H108.089C108.089 42.6117 108.095 42.7644 108.085 42.9156C108.081 42.9515 108.03 42.9873 107.997 43.0185C107.986 43.0278 107.96 43.02 107.94 43.02C107.18 43.02 106.421 43.02 105.662 43.0169C105.65 43.0169 105.639 43.0091 105.611 43.0013V39.686C105.759 39.6174 107.402 39.5971 108.094 39.6595V40.2144V40.2128Z" fill="white"/>
<path d="M86.2315 41.614V42.4386H88.1362C88.1362 42.6069 88.1347 42.7534 88.1362 42.8999C88.1378 42.9825 88.1004 43.0184 88.0209 43.02C87.9881 43.02 87.9554 43.02 87.9242 43.02C87.2306 43.02 86.5354 43.02 85.8418 43.02C85.7857 43.02 85.728 43.0153 85.6594 43.0106V39.6828C85.8137 39.6189 87.6218 39.6033 88.144 39.6625V40.2112H86.2393V41.0388H87.932V41.614H86.233H86.2315Z" fill="white"/>
<path d="M54.2185 39.6437H56.6875V40.2063H54.7906V41.02C54.8623 41.0262 54.9417 41.0387 55.0228 41.0387C55.4312 41.0418 55.8411 41.0387 56.2495 41.0418C56.3259 41.0418 56.4007 41.0558 56.4786 41.0636V41.6123H54.789V42.4306H56.6859V43.0073H54.2185V39.6421V39.6437Z" fill="white"/>
<path d="M75.2612 39.6455H77.6803V40.2082H75.8348V41.0312H77.4933V41.6126H75.8364V42.4434H77.7255V43.0092H75.2612V39.6455Z" fill="white"/>
<path d="M97.0488 42.4355C97.0613 42.6459 97.0706 42.8236 97.0815 43.0106H94.5923V39.6516H97.0098V40.2174H95.1597V41.0326H96.8259V41.6125H95.1643V42.437H97.0504L97.0488 42.4355Z" fill="white"/>
<path d="M82.9518 41.949V43.0105H82.386V39.6328C82.5044 39.6328 82.6058 39.6312 82.7071 39.6328C83.0827 39.6421 83.4584 39.6437 83.834 39.6655C83.9899 39.6749 84.1458 39.7185 84.297 39.7637C84.6726 39.8775 84.8674 40.169 84.936 40.5244C85.0592 41.1759 84.7724 41.7853 83.9525 41.8882C83.6283 41.9287 83.3009 41.9303 82.9534 41.9506L82.9518 41.949ZM82.9721 41.3988C83.2869 41.3801 83.5862 41.377 83.8823 41.3411C84.1567 41.3084 84.3531 41.0824 84.3578 40.8361C84.3655 40.4667 84.1551 40.2578 83.9057 40.2376C83.594 40.2126 83.2791 40.2313 82.9736 40.2313V41.3988H82.9721Z" fill="white"/>
<path d="M122.373 39.6282C122.582 39.6469 122.758 39.6609 122.955 39.6781C122.958 39.7233 122.964 39.7778 122.964 39.8339C122.967 40.4496 122.967 41.0669 122.976 41.6825C122.981 41.9756 123.081 42.2328 123.355 42.3762C123.654 42.5336 123.969 42.5336 124.262 42.3699C124.442 42.2702 124.565 42.0909 124.571 41.8789C124.593 41.2009 124.599 40.5229 124.611 39.8448C124.611 39.7825 124.611 39.7201 124.611 39.6313C124.814 39.6484 124.995 39.6625 125.208 39.6812C125.208 39.8994 125.208 40.1238 125.208 40.3499C125.21 40.7068 125.229 41.0637 125.21 41.4207C125.196 41.6919 125.173 41.974 125.09 42.2312C124.957 42.6427 124.675 42.9217 124.222 42.9841C124.046 43.0075 123.868 43.0573 123.692 43.0542C123.121 43.0464 122.683 42.8111 122.464 42.2577C122.417 42.1408 122.389 42.0114 122.386 41.8867C122.373 41.3287 122.375 40.7723 122.372 40.2142C122.372 40.0272 122.372 39.8417 122.372 39.6297L122.373 39.6282Z" fill="white"/>
<path d="M126.273 39.6594C126.282 39.6547 126.293 39.6438 126.304 39.6438C126.776 39.65 127.25 39.6422 127.723 39.6687C128.019 39.6859 128.298 39.7732 128.527 39.9961C128.676 40.141 128.748 40.3078 128.792 40.4949C128.932 41.1027 128.655 41.6966 127.973 41.8556C127.733 41.9117 127.495 41.932 127.252 41.9289C127.13 41.9273 127.007 41.9289 126.861 41.9289V43.009H126.273V39.6594ZM126.865 41.402C127.161 41.3818 127.43 41.3724 127.696 41.3428C128.134 41.2929 128.259 40.9952 128.175 40.5946C128.132 40.392 128.005 40.3078 127.846 40.261C127.528 40.1675 127.199 40.2268 126.867 40.2127V41.4005L126.865 41.402Z" fill="white"/>
<path d="M80.7962 39.6734H81.4976C81.1064 40.2237 80.7292 40.7521 80.3426 41.2945C80.7339 41.8432 81.136 42.409 81.5631 43.0059H80.8586C80.5671 42.5944 80.2741 42.1767 79.9639 41.7387C79.8626 41.8884 79.7721 42.0208 79.6833 42.1533C79.5259 42.384 79.3669 42.6116 79.2141 42.8438C79.1331 42.967 79.038 43.0387 78.879 43.0215C78.7387 43.0075 78.5938 43.0184 78.3989 43.0184C78.8167 42.4308 79.211 41.8743 79.6132 41.307C79.225 40.7536 78.8432 40.2081 78.4597 39.6625L78.4831 39.6111C78.7029 39.6298 78.9242 39.6423 79.1424 39.6703C79.1861 39.6766 79.2297 39.7358 79.2609 39.781C79.4853 40.1068 79.7067 40.4341 79.9296 40.7599C79.9405 40.7754 79.9576 40.7864 79.9872 40.8128C80.26 40.4278 80.5312 40.046 80.7978 39.6703L80.7962 39.6734Z" fill="white"/>
<path d="M104.746 40.1253C104.609 40.2921 104.495 40.4277 104.378 40.5695C104.302 40.5087 104.261 40.4791 104.224 40.4464C103.893 40.1596 103.508 40.1175 103.105 40.2204C102.763 40.3061 102.381 40.6833 102.359 41.2039C102.341 41.6684 102.483 42.0441 102.871 42.3293C103.204 42.5756 103.918 42.4976 104.177 42.2545C104.373 42.069 104.397 42.0752 104.588 42.2576C104.621 42.2888 104.652 42.3215 104.683 42.3542C104.761 42.4353 104.757 42.4992 104.671 42.5818C103.979 43.2521 102.787 43.2474 102.115 42.468C101.887 42.2046 101.776 41.8929 101.73 41.5422C101.644 40.8922 101.89 40.3825 102.359 39.9725C102.646 39.7216 103 39.586 103.387 39.5984C103.764 39.6109 104.139 39.6655 104.464 39.8837C104.573 39.9569 104.663 40.0551 104.747 40.1284L104.746 40.1253Z" fill="white"/>
<path d="M67.3678 43.0044C67.3585 43.0091 67.3522 43.0138 67.346 43.0138C66.8394 43.0543 66.841 43.0543 66.6477 42.5867C66.2549 41.6328 65.859 40.6804 65.4662 39.728C65.4615 39.7171 65.4662 39.7031 65.4662 39.6797H66.124C66.2814 40.0772 66.4435 40.4871 66.6056 40.8986C66.7662 41.307 66.9251 41.7169 67.0997 42.1674C67.1418 42.0817 67.1699 42.0333 67.1886 41.9835C67.4551 41.2976 67.7216 40.6102 67.9882 39.9244C68.0022 39.8886 68.0256 39.8527 68.0271 39.8153C68.0318 39.6703 68.1285 39.6361 68.2454 39.6329C68.4059 39.6283 68.568 39.6329 68.7691 39.6329C68.2968 40.7739 67.8323 41.8915 67.3709 43.0075L67.3678 43.0044Z" fill="white"/>
<path d="M92.8794 43.0059V39.636H93.4203C93.4764 39.7529 93.4951 42.7472 93.4436 43.0059H92.881H92.8794Z" fill="white"/>
<path d="M123.34 25.7246C123.612 26.3512 123.871 26.9482 124.133 27.5514C123.432 27.6465 122.654 27.1056 122.866 26.2889C122.928 26.0488 123.106 25.8992 123.34 25.7246Z" fill="white"/>
<path d="M124.06 7.96147C124.618 7.96147 125.04 8.27321 125.159 8.77979C125.229 9.07751 125.156 9.35028 124.956 9.57318C124.482 10.1 123.725 10.1686 123.199 9.66358C122.758 9.23961 122.779 8.70186 123.245 8.25607C123.469 8.04097 123.745 7.94277 124.06 7.96147Z" fill="white"/>
<path d="M125.185 17.4368C125.159 17.825 124.989 18.1383 124.638 18.3315C123.941 18.7134 123.087 18.3596 122.902 17.627C122.836 17.3683 122.937 17.1563 123.065 16.9552C123.464 16.3255 124.353 16.3224 124.828 16.7043C125.059 16.8897 125.166 17.1376 125.185 17.4368Z" fill="white"/>
</g>
<defs>
<clipPath id="clip0_1669_1690">
<rect width="77.9354" height="39.08" fill="white" transform="translate(51 4)"/>
</clipPath>
</defs>
</svg>
