<svg width="22" height="22" viewBox="0 0 22 22" fill="none" xmlns="http://www.w3.org/2000/svg">
<path d="M19.8554 0.608398C20.6451 0.608398 21.3419 1.30518 21.3419 2.14133V19.9326C21.3419 20.7687 20.6451 21.4191 19.8554 21.4191H1.97127C1.18158 21.4191 0.53125 20.7687 0.53125 19.9326V2.14133C0.53125 1.30518 1.18158 0.608398 1.97127 0.608398H19.8554ZM6.80232 18.4461V8.55176H3.73647V18.4461H6.80232ZM5.26939 7.15819C6.24489 7.15819 7.03459 6.3685 7.03459 5.393C7.03459 4.4175 6.24489 3.58135 5.26939 3.58135C4.24744 3.58135 3.45775 4.4175 3.45775 5.393C3.45775 6.3685 4.24744 7.15819 5.26939 7.15819ZM18.369 18.4461V13.0112C18.369 10.3634 17.7651 8.27304 14.6528 8.27304C13.1663 8.27304 12.1443 9.10919 11.7263 9.89888H11.6798V8.55176H8.75332V18.4461H11.8192V13.5686C11.8192 12.268 12.0514 11.0137 13.6773 11.0137C15.2567 11.0137 15.2567 12.5002 15.2567 13.6151V18.4461H18.369Z" fill="white"/>
</svg>
