<svg width="57" height="20" viewBox="0 0 57 20" fill="none" xmlns="http://www.w3.org/2000/svg">
<path fill-rule="evenodd" clip-rule="evenodd" d="M10.7814 0.132389C11.5039 -0.146632 12.3219 0.0234211 12.8707 0.566749L14.2793 1.96107C14.4917 2.1713 14.7495 2.33014 15.0331 2.42545L16.9137 3.05753C17.6505 3.30516 18.1704 3.9641 18.2395 4.73792L18.4131 6.68279C18.44 6.98347 18.5359 7.27372 18.6936 7.53094L19.7131 9.19459C20.1217 9.86137 20.0939 10.708 19.6422 11.349L18.5214 12.9395C18.3466 13.1876 18.2316 13.4726 18.1853 13.7722L17.8887 15.6927C17.7695 16.4644 17.204 17.0935 16.4484 17.2949L14.5421 17.803C14.2512 17.8805 13.9819 18.0236 13.7549 18.2213L12.2666 19.5172C11.6815 20.0266 10.8523 20.1458 10.1495 19.8214L8.34346 18.9881C8.07239 18.863 7.77615 18.8014 7.47729 18.808L5.48607 18.852C4.71116 18.8691 3.99986 18.4296 3.67004 17.7301L2.83099 15.9503C2.70299 15.6788 2.51421 15.4405 2.27919 15.2537L0.738663 14.0289C0.128075 13.5435 -0.13545 12.7421 0.0675151 11.9878L0.572629 10.1106C0.651414 9.81781 0.661306 9.51096 0.601533 9.21411L0.218313 7.31089C0.0638824 6.54393 0.380805 5.75736 1.02475 5.30941L2.63144 4.19173C2.87985 4.01892 3.08515 3.79131 3.23135 3.5266L4.17704 1.81444C4.55331 1.1332 5.29597 0.736744 6.07097 0.803398L8.04912 0.97353C8.34739 0.999183 8.64777 0.956393 8.92733 0.848428L10.7814 0.132389ZM11.1751 14.2883L12.2237 12.6498L11.1751 11.0113H12.0084L12.6591 12.0834L13.3098 11.0113H14.1431L13.0945 12.6498L14.1431 14.2883H13.3098L12.6591 13.221L12.0084 14.2883H11.1751ZM6.21387 5.28208V8.5591H6.97227V7.42619H8.21754V6.80355H6.97227V5.91876H8.21754V5.28208H6.21387ZM11.7627 8.5591V5.28208H12.5211V7.88497H13.7383V8.5591H11.7627ZM7.06642 14.3726C7.47527 14.3726 7.79829 14.2681 8.03548 14.059C8.27268 13.8498 8.39127 13.5565 8.39127 13.1788V11.0113H7.63288V13.132C7.63288 13.3162 7.58138 13.4597 7.47839 13.5627C7.37852 13.6657 7.24119 13.7172 7.06642 13.7172C6.89164 13.7172 6.75276 13.6657 6.64977 13.5627C6.5499 13.4597 6.49996 13.3162 6.49996 13.132V11.0113H5.74625V13.1788C5.74625 13.5565 5.86328 13.8498 6.09736 14.059C6.33455 14.2681 6.65757 14.3726 7.06642 14.3726Z" fill="white"/>
<path d="M47.7549 15.1309L51.2049 9.88086L47.7549 4.63086H49.2999L51.9849 8.75586L54.6699 4.63086H56.2149L52.7649 9.88086L56.2149 15.1309H54.6699L51.9849 11.0209L49.2999 15.1309H47.7549Z" fill="white"/>
<path d="M45.6106 14.4109C44.9306 15.0509 44.0006 15.3709 42.8206 15.3709C41.6406 15.3709 40.7056 15.0509 40.0156 14.4109C39.3356 13.7709 38.9956 12.8609 38.9956 11.6809V4.63086H40.3606V11.6059C40.3606 12.4259 40.5806 13.0559 41.0206 13.4959C41.4606 13.9259 42.0606 14.1409 42.8206 14.1409C43.5806 14.1409 44.1756 13.9259 44.6056 13.4959C45.0456 13.0559 45.2656 12.4259 45.2656 11.6059V4.63086H46.6456V11.6809C46.6456 12.8609 46.3006 13.7709 45.6106 14.4109Z" fill="white"/>
<path d="M31.9849 15.1309V4.63086H33.3499V13.8409H37.8199V15.1309H31.9849Z" fill="white"/>
<path d="M24.0015 15.1309V4.63086H29.9715V5.86086H25.3665V9.65586H29.9715V10.8859H25.3665V15.1309H24.0015Z" fill="white"/>
</svg>
