<svg width="180" height="47" viewBox="0 0 180 47" fill="none" xmlns="http://www.w3.org/2000/svg">
<path d="M34.1198 33.0284C32.731 33.0284 31.5004 32.7828 30.4281 32.2917C29.3557 31.8005 28.5119 31.0814 27.8966 30.1342C27.2989 29.1695 27 28.0031 27 26.635V25.9772H29.8216V26.635C29.8216 27.9329 30.2083 28.9064 30.9818 29.5554C31.7729 30.2044 32.8189 30.5289 34.1198 30.5289C35.4383 30.5289 36.4316 30.257 37.0996 29.7133C37.7676 29.152 38.1016 28.4328 38.1016 27.5558C38.1016 26.977 37.9434 26.5034 37.627 26.1351C37.3106 25.7667 36.8623 25.4773 36.2821 25.2668C35.702 25.0388 35.0076 24.8283 34.1989 24.6354L33.2233 24.3986C32.0454 24.118 31.017 23.7759 30.138 23.3725C29.2766 22.9515 28.6086 22.399 28.1339 21.715C27.6592 21.0309 27.4219 20.1539 27.4219 19.0839C27.4219 17.9964 27.6856 17.0668 28.213 16.2951C28.758 15.5233 29.5051 14.9269 30.4544 14.506C31.4037 14.085 32.5201 13.8745 33.8034 13.8745C35.0867 13.8745 36.2294 14.0938 37.2314 14.5323C38.2511 14.9708 39.051 15.6198 39.6311 16.4792C40.2112 17.3387 40.5013 18.4174 40.5013 19.7154V20.6626H37.6797V19.7154C37.6797 18.9261 37.5127 18.2859 37.1787 17.7947C36.8623 17.3036 36.414 16.944 35.8339 16.716C35.2537 16.488 34.5769 16.374 33.8034 16.374C32.6783 16.374 31.7993 16.6108 31.1664 17.0844C30.5511 17.5404 30.2435 18.1806 30.2435 19.005C30.2435 19.5663 30.3753 20.0311 30.639 20.3994C30.9203 20.7503 31.3246 21.0397 31.852 21.2677C32.3794 21.4957 33.0387 21.6974 33.8298 21.8728L34.8054 22.1096C36.0009 22.3727 37.0556 22.7147 37.9698 23.1357C38.8839 23.5391 39.6047 24.0917 40.1321 24.7933C40.6595 25.4949 40.9232 26.3982 40.9232 27.5032C40.9232 28.6082 40.6419 29.5729 40.0794 30.3973C39.5344 31.2217 38.7521 31.8707 37.7325 32.3443C36.7128 32.8003 35.5086 33.0284 34.1198 33.0284Z" fill="white"/>
<path d="M50.769 33.0284C48.5188 33.0284 46.7344 32.3969 45.4159 31.134C44.0975 29.8536 43.4382 28.0119 43.4382 25.6089V21.294C43.4382 18.891 44.0975 17.0581 45.4159 15.7952C46.7344 14.5147 48.5188 13.8745 50.769 13.8745C52.9841 13.8745 54.6893 14.4884 55.8847 15.7162C57.0977 16.944 57.7042 18.6191 57.7042 20.7415V20.8993H54.8827V20.6626C54.8827 19.4172 54.5399 18.3999 53.8543 17.6106C53.1862 16.8213 52.1578 16.4266 50.769 16.4266C49.3626 16.4266 48.2639 16.8563 47.4728 17.7158C46.6817 18.5577 46.2861 19.7329 46.2861 21.2414V25.6615C46.2861 27.1524 46.6817 28.3276 47.4728 29.1871C48.2639 30.0465 49.3626 30.4763 50.769 30.4763C52.1578 30.4763 53.1862 30.0816 53.8543 29.2923C54.5399 28.4855 54.8827 27.4681 54.8827 26.2403V25.793H57.7042V26.1614C57.7042 28.2838 57.0977 29.9588 55.8847 31.1866C54.6893 32.4145 52.9841 33.0284 50.769 33.0284Z" fill="white"/>
<path d="M59.306 32.66L64.5799 14.2429H69.5902L74.8377 32.66H71.9107L70.6977 28.3188H63.4724L62.2594 32.66H59.306ZM64.1844 25.6878H69.9857L67.296 16.0056H66.8741L64.1844 25.6878Z" fill="white"/>
<path d="M76.6529 32.66V30.1342H79.1317V16.7686H76.6529V14.2429H84.0364C86.4976 14.2429 88.3787 14.8655 89.6796 16.1109C90.9981 17.3562 91.6573 19.233 91.6573 21.7413V25.1879C91.6573 27.6962 90.9981 29.573 89.6796 30.8183C88.3787 32.0461 86.4976 32.66 84.0364 32.66H76.6529ZM82.006 30.0816H84.0628C85.6626 30.0816 86.8492 29.6782 87.6227 28.8713C88.3962 28.0645 88.783 26.863 88.783 25.2668V21.636C88.783 20.0223 88.3962 18.8208 87.6227 18.0315C86.8492 17.2422 85.6626 16.8476 84.0628 16.8476H82.006V30.0816Z" fill="white"/>
<path d="M105.464 33.1007C101.432 33.1007 98.7859 30.8412 98.7859 26.5587V14.2629H101.74V26.3748C101.74 29.0284 103.204 30.3946 105.464 30.3946C107.725 30.3946 109.189 29.0284 109.189 26.3748V14.2629H112.143V26.5587C112.143 30.8412 109.497 33.1007 105.464 33.1007Z" fill="white"/>
<path d="M117.071 32.6541H113.732L119.588 23.4585L113.732 14.2629H117.071L121.258 20.9888L125.445 14.2629H128.784L122.928 23.4585L128.784 32.6541H125.445L121.258 25.9544L117.071 32.6541Z" fill="white"/>
<path d="M93.5911 9H96.1895V11.5983H93.5911V9Z" fill="white"/>
<path fill-rule="evenodd" clip-rule="evenodd" d="M95.8183 9.37119H93.9623V11.2271H95.8183V9.37119ZM93.5911 9V11.5983H96.1895V9H93.5911Z" fill="white"/>
<path d="M93.5911 34.2388H96.1895V36.8371H93.5911V34.2388Z" fill="white"/>
<path fill-rule="evenodd" clip-rule="evenodd" d="M95.8183 34.7745H93.9623V36.6304H95.8183V34.7745ZM93.5911 34.4033V37.0016H96.1895V34.4033H93.5911Z" fill="white"/>
<path d="M131.35 34.4004H133.947V36.9987H131.35V34.4004Z" fill="white"/>
<path fill-rule="evenodd" clip-rule="evenodd" d="M133.576 34.7716H131.721V36.6275H133.576V34.7716ZM131.35 34.4004V36.9987H133.947V34.4004H131.35Z" fill="white"/>
<path d="M131.35 9H133.947V11.5983H131.35V9Z" fill="white"/>
<path fill-rule="evenodd" clip-rule="evenodd" d="M133.576 9.37119H131.721V11.2271H133.576V9.37119ZM131.35 9V11.5983H133.947V9H131.35Z" fill="white"/>
<path fill-rule="evenodd" clip-rule="evenodd" d="M139.582 33.2229L141.437 33.8385C140.956 35.2894 139.627 35.9337 138.532 35.9862C137.427 36.0392 135.979 35.5012 135.438 33.9719L129.95 18.4455C129.06 15.9274 131.654 13.5874 134.065 14.7325L149.047 21.8457C150.436 22.5053 150.882 23.9097 150.744 25.0149C150.607 26.1089 149.858 27.3185 148.438 27.6872C147.416 27.9524 146.379 28.2779 145.476 28.6545C144.544 29.0435 143.893 29.4315 143.533 29.7652C142.825 30.4203 142.063 31.9483 141.437 33.8385L139.582 33.2229ZM137.28 33.32L131.793 17.7937C131.482 16.9155 132.387 16.0995 133.228 16.4988L148.209 23.612C149.145 24.0564 148.95 25.5344 147.947 25.7948C145.792 26.3544 143.422 27.2043 142.206 28.3302C141.098 29.3554 140.213 31.3205 139.582 33.2229C139.244 34.2422 137.638 34.3325 137.28 33.32Z" fill="white"/>
<path fill-rule="evenodd" clip-rule="evenodd" d="M133.239 9.87744H94.4043V36.1854H133.239V30.8888L132.164 27.8448V35.4001H95.4802V10.6628H132.164V12.9343C132.226 12.9591 132.288 12.9862 132.35 13.0156L133.239 13.4381V9.87744Z" fill="white"/>
</svg>
