<svg width="91" height="20" viewBox="0 0 91 20" fill="none" xmlns="http://www.w3.org/2000/svg">
<path d="M5.08568 17.1635C4.09366 17.1635 3.21465 16.9881 2.44866 16.6373C1.68267 16.2865 1.07992 15.7728 0.640419 15.0962C0.213473 14.4071 0 13.574 0 12.5967V12.1269H2.01544V12.5967C2.01544 13.5239 2.2917 14.2192 2.84421 14.6828C3.40929 15.1464 4.15645 15.3781 5.08568 15.3781C6.02747 15.3781 6.73696 15.1839 7.21413 14.7955C7.69131 14.3946 7.9299 13.8809 7.9299 13.2545C7.9299 12.841 7.81688 12.5028 7.59085 12.2396C7.36482 11.9765 7.04461 11.7698 6.63022 11.6195C6.21583 11.4566 5.71982 11.3062 5.14219 11.1684L4.44526 10.9993C3.60393 10.7988 2.86933 10.5545 2.24147 10.2663C1.62616 9.96565 1.14899 9.57099 0.809942 9.08236C0.470897 8.59373 0.301374 7.96729 0.301374 7.20302C0.301374 6.42623 0.489732 5.7622 0.86645 5.21092C1.25572 4.65965 1.78941 4.23367 2.4675 3.93297C3.14559 3.63228 3.94297 3.48193 4.85965 3.48193C5.77633 3.48193 6.59255 3.63855 7.30831 3.95177C8.03663 4.26499 8.60799 4.72856 9.02238 5.34248C9.43676 5.95639 9.64396 6.72692 9.64396 7.65406V8.33062H7.62852V7.65406C7.62852 7.09026 7.50923 6.63296 7.27064 6.28215C7.04461 5.93134 6.7244 5.67449 6.31001 5.51162C5.89562 5.34874 5.41217 5.2673 4.85965 5.2673C4.05599 5.2673 3.42813 5.43644 2.97607 5.77473C2.53656 6.10048 2.31681 6.55778 2.31681 7.14664C2.31681 7.54757 2.41099 7.87958 2.59935 8.14269C2.80026 8.39327 3.08908 8.6 3.4658 8.76287C3.84252 8.92575 4.31341 9.06983 4.87849 9.19512L5.57541 9.36426C6.42931 9.55219 7.18274 9.79651 7.83572 10.0972C8.48869 10.3854 9.00354 10.78 9.38026 11.2812C9.75697 11.7823 9.94533 12.4276 9.94533 13.2169C9.94533 14.0062 9.74442 14.6953 9.34259 15.2842C8.95331 15.873 8.39451 16.3366 7.66619 16.6749C6.93787 17.0006 6.0777 17.1635 5.08568 17.1635Z" fill="white"/>
<path d="M16.9782 17.1635C15.3708 17.1635 14.0963 16.7125 13.1545 15.8104C12.2127 14.8958 11.7418 13.5802 11.7418 11.8638V8.78167C11.7418 7.0652 12.2127 5.75593 13.1545 4.85385C14.0963 3.93924 15.3708 3.48193 16.9782 3.48193C18.5604 3.48193 19.7784 3.92045 20.6323 4.79747C21.4988 5.67449 21.932 6.87101 21.932 8.387V8.49976H19.9166V8.33062C19.9166 7.44107 19.6717 6.71439 19.182 6.15059C18.7048 5.58679 17.9702 5.30489 16.9782 5.30489C15.9736 5.30489 15.1888 5.61185 14.6237 6.22577C14.0586 6.82715 13.7761 7.66659 13.7761 8.74408V11.9014C13.7761 12.9663 14.0586 13.8058 14.6237 14.4197C15.1888 15.0336 15.9736 15.3406 16.9782 15.3406C17.9702 15.3406 18.7048 15.0587 19.182 14.4949C19.6717 13.9185 19.9166 13.1918 19.9166 12.3148V11.9953H21.932V12.2584C21.932 13.7744 21.4988 14.9709 20.6323 15.848C19.7784 16.725 18.5604 17.1635 16.9782 17.1635Z" fill="white"/>
<path d="M23.0761 16.9004L26.8433 3.74504H30.4221L34.1705 16.9004H32.0797L31.2132 13.7995H26.0522L25.1857 16.9004H23.0761ZM26.5608 11.9202H30.7047L28.7834 5.0042H28.482L26.5608 11.9202Z" fill="white"/>
<path d="M35.467 16.9004V15.0962H37.2376V5.5492H35.467V3.74504H40.7411C42.4991 3.74504 43.8427 4.18982 44.772 5.07937C45.7137 5.96892 46.1846 7.30952 46.1846 9.10115V11.5631C46.1846 13.3547 45.7137 14.6953 44.772 15.5849C43.8427 16.4619 42.4991 16.9004 40.7411 16.9004H35.467ZM39.2907 15.0587H40.7599C41.9026 15.0587 42.7502 14.7705 43.3028 14.1942C43.8553 13.6178 44.1315 12.7596 44.1315 11.6195V9.02598C44.1315 7.87332 43.8553 7.01509 43.3028 6.45129C42.7502 5.88749 41.9026 5.60559 40.7599 5.60559H39.2907V15.0587Z" fill="white"/>
<path d="M56.0472 17.215C53.1666 17.215 51.2769 15.601 51.2769 12.542V3.75916H53.3868V12.4107C53.3868 14.3061 54.4326 15.282 56.0472 15.282C57.6618 15.282 58.7076 14.3061 58.7076 12.4107V3.75916H60.8175V12.542C60.8175 15.601 58.9277 17.215 56.0472 17.215Z" fill="white"/>
<path d="M64.3381 16.8959H61.9529L66.1361 10.3275L61.9529 3.75916H64.3381L67.3287 8.56346L70.3194 3.75916H72.7045L68.5213 10.3275L72.7045 16.8959H70.3194L67.3287 12.1104L64.3381 16.8959Z" fill="white"/>
<path d="M47.5659 0H49.422V1.85597H47.5659V0Z" fill="white"/>
<path fill-rule="evenodd" clip-rule="evenodd" d="M49.1568 0.265139H47.8311V1.59083H49.1568V0.265139ZM47.5659 0V1.85597H49.422V0H47.5659Z" fill="white"/>
<path d="M47.5659 18.028H49.422V19.8839H47.5659V18.028Z" fill="white"/>
<path fill-rule="evenodd" clip-rule="evenodd" d="M49.1568 18.4104H47.8311V19.7361H49.1568V18.4104ZM47.5659 18.1453V20.0012H49.422V18.1453H47.5659Z" fill="white"/>
<path d="M74.5371 18.1436H76.3921V19.9995H74.5371V18.1436Z" fill="white"/>
<path fill-rule="evenodd" clip-rule="evenodd" d="M76.1271 18.4087H74.8021V19.7344H76.1271V18.4087ZM74.5371 18.1436V19.9995H76.3921V18.1436H74.5371Z" fill="white"/>
<path d="M74.5371 0H76.3921V1.85597H74.5371V0Z" fill="white"/>
<path fill-rule="evenodd" clip-rule="evenodd" d="M76.1271 0.265139H74.8021V1.59083H76.1271V0.265139ZM74.5371 0V1.85597H76.3921V0H74.5371Z" fill="white"/>
<path fill-rule="evenodd" clip-rule="evenodd" d="M80.4171 17.3025L81.7419 17.7422C81.3983 18.7786 80.4495 19.2388 79.6672 19.2763C78.8775 19.3142 77.8432 18.9298 77.4571 17.8375L73.5373 6.74701C72.9015 4.94828 74.7539 3.27684 76.4766 4.0948L87.1778 9.17573C88.1701 9.64689 88.4887 10.6501 88.3901 11.4395C88.2925 12.221 87.7571 13.085 86.7427 13.3483C86.0132 13.5378 85.2721 13.7702 84.6275 14.0393C83.9617 14.3172 83.4967 14.5943 83.2392 14.8326C82.7338 15.3006 82.1895 16.392 81.7419 17.7422L80.4171 17.3025ZM78.773 17.3719L74.8532 6.2814C74.6314 5.65411 75.2774 5.07123 75.8782 5.35648L86.5794 10.4374C87.248 10.7549 87.1085 11.8106 86.3922 11.9966C84.8527 12.3963 83.1599 13.0034 82.2913 13.8076C81.5003 14.5399 80.8676 15.9436 80.4171 17.3025C80.1757 18.0305 79.0286 18.095 78.773 17.3719Z" fill="white"/>
<path fill-rule="evenodd" clip-rule="evenodd" d="M75.8869 0.626709H48.147V19.4184H75.8869V15.6347L75.1184 13.4604V18.8575H48.9155V1.18766H75.1184V2.81008C75.1628 2.82785 75.2071 2.84722 75.2514 2.86824L75.8869 3.16998V0.626709Z" fill="white"/>
</svg>
