<svg width="101" height="20" viewBox="0 0 101 20" fill="none" xmlns="http://www.w3.org/2000/svg">
<path d="M0.59375 17.3019L1.52818 16.1688C2.91977 17.4611 4.23176 18.117 6.06076 18.117C7.83005 18.117 9.02288 17.123 9.02288 15.7712V15.7314C9.02288 14.4592 8.36688 13.7239 5.5837 13.1072C2.54199 12.4115 1.13064 11.3977 1.13064 9.13104V9.09167C1.13064 6.9246 2.95964 5.33435 5.48442 5.33435C7.41276 5.33435 8.80442 5.91081 10.1365 7.02409L9.26173 8.21703C8.02918 7.18327 6.79649 6.72598 5.4447 6.72598C3.71513 6.72598 2.6218 7.72008 2.6218 8.9526V8.99247C2.6218 10.2844 3.29755 11.02 6.22001 11.676C9.16223 12.3519 10.534 13.465 10.534 15.5725V15.6122C10.534 17.9778 8.64531 19.5085 6.00128 19.5085C3.91375 19.5286 2.18418 18.7931 0.59375 17.3019Z" fill="black"/>
<path fill-rule="evenodd" clip-rule="evenodd" d="M0 17.3397L1.48347 15.5408L1.81899 15.8524C3.15226 17.0905 4.36398 17.6852 6.0578 17.6852C7.68146 17.6852 8.5882 16.8013 8.5882 15.7712V15.7313C8.5882 15.1877 8.45678 14.8243 8.0702 14.5072C7.642 14.1559 6.8688 13.8347 5.48735 13.5287L5.48447 13.528C3.94802 13.1765 2.74925 12.7308 1.9338 12.0369C1.0893 11.3183 0.695973 10.3697 0.695973 9.13098V9.09161C0.695973 6.62944 2.77918 4.90259 5.48146 4.90259C7.51744 4.90259 9.00574 5.51886 10.4104 6.69279L10.7212 6.95259L9.33442 8.84386L8.98134 8.54773C7.81724 7.57139 6.68057 7.15762 5.44174 7.15762C3.86781 7.15762 3.05055 8.03355 3.05055 8.95254V8.99241C3.05055 9.27898 3.08823 9.50613 3.16842 9.69804C3.24686 9.88575 3.37541 10.0625 3.59171 10.2355C4.04351 10.597 4.8584 10.9285 6.31161 11.2547L6.31371 11.2552C7.80925 11.5988 8.97154 12.0663 9.76278 12.7634C10.5771 13.4809 10.9627 14.4095 10.9627 15.5724V15.6121C10.9627 16.9191 10.4368 18.0148 9.53486 18.7771C8.63988 19.5335 7.40232 19.9398 6.00039 19.9402C3.79104 19.9609 1.95758 19.1751 0.295504 17.6167L0 17.3397ZM5.99832 19.5085C8.64235 19.5085 10.531 17.9777 10.531 15.6121V15.5724C10.531 13.465 9.15927 12.3518 6.21705 11.676C3.29459 11.0199 2.61884 10.2843 2.61884 8.99241V8.95254C2.61884 7.72002 3.71217 6.72592 5.44174 6.72592C6.66999 6.72592 7.79991 7.10345 8.92073 7.94789C9.03347 8.03283 9.14612 8.12249 9.25876 8.21697L10.1335 7.02403C8.80146 5.91075 7.4098 5.33429 5.48146 5.33429C2.95668 5.33429 1.12768 6.92454 1.12768 9.09161V9.13098C1.12768 11.3976 2.53903 12.4114 5.58074 13.1072C8.36391 13.7238 9.01991 14.4592 9.01991 15.7313V15.7712C9.01991 17.123 7.82709 18.1169 6.0578 18.1169C4.37026 18.1169 3.12284 17.5585 1.84695 16.4571C1.74 16.3648 1.63285 16.2687 1.52522 16.1687L0.59079 17.3018C2.18122 18.793 3.91079 19.5285 5.99832 19.5085Z" fill="black"/>
<mask id="mask0_1688_3510" style="mask-type:luminance" maskUnits="userSpaceOnUse" x="11" y="4" width="14" height="17">
<path d="M12.2188 5.29492H24.2024V19.5684H12.2188V5.29492Z" fill="white"/>
<path fill-rule="evenodd" clip-rule="evenodd" d="M11.7891 4.86328H24.6361V20.0002H11.7891V4.86328ZM12.2208 5.29498V19.5685H24.2044V5.29498H12.2208Z" fill="white"/>
</mask>
<g mask="url(#mask0_1688_3510)">
<path d="M12.2422 12.4714V12.4317C12.2422 8.53521 15.0453 5.2948 18.9417 5.2948C21.3473 5.2948 22.7787 6.18949 24.1106 7.48163L23.0966 8.63462C21.9835 7.52149 20.731 6.74605 18.9417 6.74605C15.9995 6.74605 13.8127 9.23106 13.8127 12.3918V12.4317C13.8127 15.6323 16.0193 18.1171 18.9417 18.1171C20.7508 18.1171 21.9437 17.3816 23.2161 16.1292L24.21 17.1429C22.8185 18.5943 21.3077 19.5684 18.9021 19.5684C15.0652 19.5683 12.2422 16.4273 12.2422 12.4714Z" fill="black"/>
<path fill-rule="evenodd" clip-rule="evenodd" d="M24.7083 7.45808L23.1188 9.26541L22.7934 8.93994C21.7303 7.87687 20.5812 7.17781 18.9438 7.17781C16.2817 7.17781 14.2465 9.42551 14.2465 12.3919V12.4317C14.2465 15.4389 16.3024 17.6855 18.9438 17.6855C20.598 17.6855 21.6881 17.0294 22.9152 15.8215L23.2235 15.5181L24.8133 17.1397L24.5236 17.4418C23.0781 18.9494 21.4619 20.0002 18.9041 20.0002C14.7983 20 11.8125 16.6341 11.8125 12.4715V12.4317C11.8125 8.33342 14.7739 4.86316 18.9438 4.86316C21.4916 4.86316 23.0252 5.82532 24.4133 7.17183L24.7083 7.45808ZM18.9041 19.5685C15.0673 19.5683 12.2442 16.4274 12.2442 12.4715V12.4317C12.2442 8.53527 15.0473 5.29486 18.9438 5.29486C21.3493 5.29486 22.7807 6.18955 24.1127 7.48169L23.0986 8.63469C22.996 8.53201 22.8921 8.43221 22.7867 8.33563C21.7499 7.3851 20.568 6.74611 18.9438 6.74611C16.0015 6.74611 13.8147 9.23112 13.8147 12.3919V12.4317C13.8147 15.6323 16.0214 18.1172 18.9438 18.1172C20.7324 18.1172 21.9186 17.3982 23.1749 16.1715C23.1893 16.1575 23.2037 16.1434 23.2181 16.1292L24.212 17.143C22.8205 18.5943 21.3097 19.5685 18.9041 19.5685Z" fill="black"/>
</g>
<path d="M30.9501 5.43384H32.3416L38.3852 19.3296H36.7748L35.2242 15.6918H28.0075L26.437 19.3296H24.9062L30.9501 5.43384ZM34.628 14.2604L31.6261 7.24275L28.6041 14.2604H34.628Z" fill="black"/>
<path fill-rule="evenodd" clip-rule="evenodd" d="M30.6694 5.0022H32.6269L39.0461 19.7614H36.4918L34.9412 16.1236H28.2937L26.7231 19.7614H24.25L30.6694 5.0022ZM28.0098 15.6919H35.2265L36.7771 19.3297H38.3875L32.3439 5.4339H30.9524L24.9085 19.3297H26.4393L28.0098 15.6919ZM31.6284 7.24281L28.6064 14.2604H34.6303L31.6284 7.24281ZM31.627 8.3374L29.2623 13.8287H33.976L31.627 8.3374Z" fill="black"/>
<mask id="mask1_1688_3510" style="mask-type:luminance" maskUnits="userSpaceOnUse" x="39" y="5" width="13" height="15">
<path d="M39.8438 5.53308H51.4878V19.3304H39.8438V5.53308Z" fill="white"/>
<path fill-rule="evenodd" clip-rule="evenodd" d="M39.4141 5.10144H51.9215V19.7622H39.4141V5.10144ZM39.8458 5.53314V19.3305H51.4898V5.53314H39.8458Z" fill="white"/>
</mask>
<g mask="url(#mask1_1688_3510)">
<path d="M39.8594 5.5332H44.4516C48.6064 5.5332 51.4891 8.51508 51.4891 12.3916V12.4315C51.4891 16.308 48.6064 19.3296 44.4516 19.3296H39.8594V5.5332ZM41.3503 6.96456V17.8784H44.4516C47.7915 17.8784 49.9386 15.5128 49.9386 12.471V12.4315C49.9386 9.36997 47.7915 6.96456 44.4516 6.96456H41.3503Z" fill="black"/>
<path fill-rule="evenodd" clip-rule="evenodd" d="M39.4297 5.10156H44.4536C48.8436 5.10156 51.9228 8.27344 51.9228 12.3916V12.4316C51.9228 16.5465 48.8469 19.7614 44.4536 19.7614H39.4297V5.10156ZM41.3523 17.8785V6.96462H44.4536C47.7935 6.96462 49.9406 9.37003 49.9406 12.4316V12.4711C49.9406 15.5129 47.7935 17.8785 44.4536 17.8785H41.3523ZM41.784 7.39632V17.4468H44.4536C46.0176 17.4468 47.2751 16.8952 48.1416 16.013C49.0097 15.1291 49.5089 13.8891 49.5089 12.4711V12.4316C49.5089 11.0027 49.0089 9.74693 48.1397 8.85055C47.2725 7.95632 46.0153 7.39632 44.4536 7.39632H41.784ZM39.8614 5.53326V19.3297H44.4536C48.6085 19.3297 51.4911 16.3081 51.4911 12.4316V12.3916C51.4911 8.51514 48.6085 5.53326 44.4536 5.53326H39.8614Z" fill="black"/>
</g>
<path fill-rule="evenodd" clip-rule="evenodd" d="M49.5465 3.88538L49.956 4.02189C52.1721 4.76058 52.8415 6.22823 52.8415 7.02165V7.45335H51.9781V7.02165C51.9781 6.66386 51.6113 5.48375 49.683 4.84099L49.2734 4.70447L49.5465 3.88538Z" fill="black"/>
<path fill-rule="evenodd" clip-rule="evenodd" d="M50.4059 2.15845L50.8154 2.29496C54.0676 3.37901 54.996 5.50861 54.996 6.58983V7.02153H54.1326V6.58983C54.1326 5.94424 53.5068 4.10218 50.5424 3.11406L50.1328 2.97754L50.4059 2.15845Z" fill="black"/>
<path fill-rule="evenodd" clip-rule="evenodd" d="M51.2652 0L51.6748 0.136516C56.3085 1.68105 57.5822 4.69324 57.5822 6.15819V6.58989H56.7188V6.15819C56.7188 5.12887 55.7476 2.40421 51.4017 0.955613L50.9922 0.819097L51.2652 0Z" fill="black"/>
<path d="M94.5215 12.3095C95.526 12.3095 96.3151 12.0584 96.8891 11.5562C97.4774 11.054 97.7715 10.4083 97.7715 9.61913V9.57609C97.7715 8.68648 97.4774 8.01928 96.8891 7.57448C96.3008 7.11533 95.5116 6.88576 94.5215 6.88576H91.4437V12.3095H94.5215ZM88.7964 4.47522H94.7368C95.612 4.47522 96.4012 4.59718 97.1043 4.84111C97.8218 5.07068 98.4244 5.40787 98.9123 5.85267C99.4145 6.29747 99.7947 6.82836 100.053 7.44534C100.326 8.06233 100.462 8.75105 100.462 9.51152V9.55456C100.462 10.4011 100.304 11.1472 99.9884 11.7929C99.6727 12.4243 99.2423 12.9551 98.697 13.3856C98.1518 13.816 97.5133 14.1461 96.7815 14.3756C96.0497 14.5909 95.2677 14.6985 94.4354 14.6985H91.4437V19.5411H88.7964V4.47522Z" fill="black"/>
<path d="M71.812 4.47522H74.6315L79.216 11.5992L83.8004 4.47522H86.6199V19.5411H83.9726V8.7367L79.216 15.8392H79.1299L74.4163 8.77975V19.5411H71.812V4.47522Z" fill="black"/>
<path d="M65.6276 13.5576L63.0233 7.53126L60.4406 13.5576H65.6276ZM61.8396 4.36743H64.2932L70.9223 19.5409H68.1243L66.5962 15.9036H59.472L57.9224 19.5409H55.2104L61.8396 4.36743Z" fill="black"/>
</svg>
