<svg width="182" height="47" viewBox="0 0 182 47" fill="none" xmlns="http://www.w3.org/2000/svg">
<path d="M126.219 26.1473V26.7939H120.336V26.1383C120.581 26.0997 120.844 26.0657 121.105 26.018C121.518 25.9409 121.924 25.8207 122.176 25.4577C122.305 25.2717 122.414 25.038 122.432 24.8157C122.496 24.0602 122.537 23.3025 122.548 22.5471C122.578 20.4645 122.591 18.3797 122.6 16.2972C122.6 15.9637 122.548 15.6302 122.498 15.299C122.371 14.446 121.845 13.9741 121.024 13.8108C120.379 13.6838 119.73 13.6361 119.086 13.8108C118.619 13.9356 118.183 14.1148 118.006 14.6207C117.954 14.7727 117.92 14.936 117.911 15.0971C117.852 16.1202 117.766 17.1411 117.759 18.1642C117.739 20.9682 117.752 23.7721 117.752 26.5761C117.752 26.6827 117.752 26.7916 117.752 26.9413C117.435 26.9413 117.14 26.9504 116.845 26.9345C116.777 26.9323 116.704 26.8574 116.652 26.8007C115.772 25.8297 114.894 24.8542 114.014 23.881C113.358 23.1551 112.7 22.4314 112.047 21.7032C111.239 20.8003 110.438 19.8906 109.628 18.99C108.986 18.2754 108.338 17.5676 107.693 16.8575C107.569 16.7214 107.446 16.583 107.296 16.4151C107.285 16.524 107.274 16.5898 107.274 16.6579C107.276 18.7994 107.267 20.9409 107.292 23.0825C107.299 23.7131 107.392 24.3438 107.469 24.9699C107.514 25.3488 107.752 25.6051 108.095 25.7685C108.519 25.9704 108.973 26.043 109.436 26.0838C109.542 26.0929 109.651 26.0997 109.774 26.1088V26.803H97.9067V26.1133C98.1313 26.0861 98.3559 26.0589 98.5782 26.0316C99.2747 25.9454 99.4335 25.7413 99.2611 24.9972C99.1409 24.4822 98.8936 23.9967 98.6939 23.5022C98.4875 22.9895 98.272 22.4813 98.0587 21.9731C98.0247 21.8915 97.9793 21.8121 97.9362 21.7259H93.6305C93.4603 22.1705 93.2811 22.6129 93.12 23.0643C92.9045 23.6678 92.6981 24.2735 92.4985 24.8815C92.4508 25.0244 92.4304 25.1832 92.4259 25.3352C92.4145 25.6777 92.5597 25.891 92.8955 25.9658C93.272 26.0498 93.6554 26.0906 94.0479 26.1519V26.8007H88.7031V26.1133C88.93 26.0815 89.1432 26.0521 89.3565 26.0203C90.1028 25.9046 90.5997 25.4509 90.9263 24.8043C91.2371 24.1918 91.5184 23.5634 91.7907 22.9305C92.3986 21.5172 92.993 20.0993 93.5896 18.6814C94.3247 16.9369 95.0551 15.1901 95.7879 13.4456C95.8764 13.2369 95.9694 13.0327 96.0647 12.8126C96.3051 12.7514 96.5501 12.6901 96.8224 12.6221C96.904 12.8217 96.9812 13.0123 97.0583 13.2028C97.4598 14.1919 97.8636 15.181 98.2652 16.1724C98.8414 17.5971 99.4176 19.0217 99.9916 20.4487C100.486 21.676 100.972 22.9033 101.471 24.1283C101.58 24.396 101.718 24.6523 101.85 24.9087C102.231 25.655 102.859 26.0226 103.68 26.0793C104.202 26.1156 104.712 26.0702 105.202 25.8683C105.693 25.6664 105.974 25.3102 106.008 24.7771C106.049 24.1442 106.101 23.5113 106.11 22.8783C106.139 20.6755 106.158 18.475 106.162 16.2722C106.162 15.8956 106.112 15.51 106.033 15.1402C105.86 14.3416 105.311 13.9401 104.533 13.8108C104.222 13.7586 103.907 13.7223 103.587 13.6792V13.0213C103.673 13.0123 103.742 13.0009 103.812 12.9986C104.919 12.9986 106.026 12.9987 107.133 12.9941C107.31 12.9941 107.43 13.0418 107.553 13.1779C109.284 15.0926 111.024 17.0004 112.759 18.9106C113.959 20.2309 115.157 21.5535 116.355 22.876C116.432 22.96 116.507 23.0462 116.616 23.1687C116.643 23.0666 116.67 23.0122 116.67 22.9577C116.67 21.1428 116.686 19.328 116.654 17.5131C116.638 16.6216 116.541 15.73 116.461 14.8385C116.43 14.4937 116.228 14.2373 115.919 14.074C115.554 13.8789 115.155 13.7995 114.749 13.7518C114.551 13.7291 114.354 13.7064 114.136 13.6838V12.9986C114.34 12.9986 114.538 12.9986 114.735 12.9986C117.657 12.9986 120.579 13.0009 123.501 12.9941C123.73 12.9941 123.882 13.0622 124.034 13.2323C125.572 14.9428 127.119 16.6443 128.666 18.348C129.671 19.455 130.683 20.5553 131.688 21.6601C132.11 22.1251 132.525 22.597 132.947 23.0666C132.97 23.0916 133.008 23.1029 133.072 23.1392C133.086 23.0553 133.104 22.9895 133.104 22.9259C133.104 21.0566 133.115 19.1873 133.086 17.318C133.072 16.5081 132.974 15.6983 132.909 14.8884C132.875 14.4528 132.614 14.167 132.228 14.0173C131.91 13.8947 131.57 13.8267 131.234 13.7564C131.023 13.7133 130.803 13.7087 130.57 13.686V13.0213H136.448V13.6656C136.146 13.7133 135.833 13.7473 135.527 13.8131C135.014 13.922 134.581 14.1556 134.422 14.6978C134.358 14.9133 134.349 15.1447 134.329 15.3693C134.292 15.764 134.245 16.161 134.24 16.5558C134.218 19.9201 134.202 23.2866 134.186 26.6509C134.186 26.9504 134.159 26.9776 133.857 26.9799C133.648 26.9799 133.439 26.9799 133.231 26.9799C130.084 23.4727 126.94 19.9677 123.793 16.4628C123.773 16.4718 123.753 16.4809 123.732 16.49C123.728 16.5853 123.721 16.6806 123.721 16.7736C123.723 18.897 123.714 21.0203 123.737 23.1437C123.744 23.7449 123.818 24.3484 123.909 24.9427C123.984 25.4418 124.306 25.7639 124.805 25.8751C125.27 25.9772 125.742 26.0589 126.225 26.1519L126.219 26.1473ZM97.5778 20.6665C96.9698 19.0716 96.3777 17.5199 95.7856 15.966C95.7561 15.966 95.7289 15.9682 95.6994 15.9705C95.1255 17.5245 94.5515 19.0784 93.964 20.6665H97.5778Z" fill="white"/>
<path d="M30.5934 22.0501C30.3371 21.8074 30.0399 21.5193 29.7359 21.2357C28.3566 19.9517 26.9773 18.6699 25.598 17.3905C24.6021 16.4672 23.6017 15.5484 22.6058 14.6251C21.8458 13.9173 21.0972 13.2004 20.3395 12.4926C18.9284 11.1768 17.5128 9.86786 16.0995 8.55435C15.8069 8.28439 15.5187 8.00988 15.2284 7.73765C15.2079 7.71951 15.1875 7.70136 15.1671 7.68321C14.9766 7.51987 14.9539 7.27033 15.0741 7.09792C15.1671 6.96181 15.5392 6.97088 15.7025 7.10473C16.0723 7.41098 16.4398 7.72178 16.8073 8.03031C17.7351 8.80616 18.663 9.58428 19.5886 10.3601C21.2514 11.7508 22.9143 13.1414 24.5749 14.532C24.8789 14.7884 24.8721 14.7884 25.0876 14.4617C26.544 12.2476 28.4496 10.5598 30.9065 9.52757C31.9546 9.08746 33.0503 8.80162 34.1846 8.695C34.9105 8.62694 35.641 8.59065 36.3692 8.59518C36.8956 8.59972 37.4196 8.71315 37.9482 8.74265C38.6333 8.78121 39.2866 8.95361 39.9377 9.1419C40.3846 9.27121 40.8202 9.4459 41.2989 9.6115C40.8883 10.342 40.5049 11.018 40.1237 11.6986C39.67 11.5829 39.2345 11.4785 38.8012 11.3606C38.2794 11.2177 37.7576 11.0997 37.2132 11.0838C36.7027 11.0679 36.1923 10.9863 35.6841 10.9953C35.2213 11.0044 34.754 11.0747 34.2958 11.1587C32.9187 11.415 31.6461 11.9436 30.4914 12.7331C29.0712 13.704 27.9505 14.954 27.1112 16.4581C27.0953 16.4876 27.0908 16.5261 27.0726 16.5897C27.6919 17.1046 28.3158 17.6241 28.9555 18.1572C30.2169 15.7798 32.0249 14.1555 34.6746 13.6269C36.1537 13.332 37.6079 13.4704 39.0235 14.0239C38.6832 14.7771 38.42 15.5302 38.0117 16.1859C36.4396 15.7276 34.9582 15.841 33.5698 16.6486C32.3176 17.3791 31.4737 18.4544 31.0653 19.8859C31.3466 20.1241 31.6302 20.3759 31.9274 20.6073C31.9909 20.6572 32.1111 20.664 32.1996 20.6504C32.4559 20.6118 32.71 20.5029 32.9618 20.5166C33.4246 20.5392 33.892 20.5687 34.3162 20.8206C34.8924 21.1631 35.3189 21.6259 35.5321 22.2634C35.666 22.6694 35.6932 23.0914 35.6206 23.5156C35.5798 23.7538 35.5276 23.9898 35.4686 24.2824C35.9359 24.7134 36.4328 25.1739 36.9341 25.6299C38.0072 26.6009 39.0847 27.5673 40.1578 28.5382C41.7617 29.9901 43.3633 31.4443 44.9672 32.8962C47.0633 34.7905 49.1618 36.6824 51.2579 38.5767C51.3782 38.6856 51.5007 38.7945 51.6186 38.9057C51.7797 39.0599 51.8137 39.2596 51.7048 39.3798C51.5914 39.5046 51.4326 39.5 51.2488 39.3526C50.4685 38.7332 49.6903 38.1117 48.9122 37.4901C47.0679 36.0132 45.2235 34.5341 43.3792 33.0595C43.268 32.971 43.141 32.9007 43.0343 32.8327C42.6101 33.3907 42.2063 33.967 41.7571 34.5023C40.6024 35.8794 39.2254 36.9819 37.6011 37.76C36.5961 38.2432 35.5367 38.5563 34.4364 38.765C33.7626 38.8943 33.0821 38.8898 32.4106 38.9782C31.6778 39.0735 30.9564 38.9805 30.2373 38.9079C29.1257 38.7945 28.0549 38.4905 27.0091 38.098C26.8843 38.0504 26.7618 37.9937 26.603 37.9256C27 37.2178 27.3811 36.5373 27.7849 35.8204C30.8475 36.9411 33.8352 36.8707 36.7095 35.2555C38.4904 34.2528 39.8334 32.8123 40.8429 31.0155C40.1986 30.4938 39.5702 29.9856 38.9237 29.4638C37.7485 31.746 36.0153 33.325 33.5086 33.9307C31.9387 34.3095 30.387 34.1598 28.8308 33.6176C29.1801 32.8667 29.5181 32.1339 29.8494 31.4193C31.4169 31.9751 32.8756 31.7574 34.2685 31.0042C35.5458 30.3123 36.5235 29.0192 36.7889 27.7465C36.4736 27.4902 36.1492 27.2225 35.8225 26.9571C35.4936 26.6894 35.1646 26.4194 34.8311 26.154C34.6134 25.9793 34.3956 25.8046 34.1642 25.6481C34.0961 25.6027 33.9759 25.5868 33.8965 25.6118C33.0753 25.8659 32.2971 25.7615 31.5939 25.2806C30.8407 24.7656 30.4483 24.0351 30.4732 23.1118C30.4823 22.7761 30.5503 22.4403 30.598 22.0501H30.5934Z" fill="white"/>
<path d="M155.086 18.9287H162.432C162.439 18.8334 162.448 18.754 162.448 18.6746C162.448 17.7218 162.455 16.769 162.441 15.8162C162.436 15.4646 162.398 15.1107 162.346 14.7636C162.262 14.2123 161.892 13.8924 161.254 13.804C160.907 13.7541 160.556 13.7178 160.19 13.6724V13.0168H166.994V13.6769C166.683 13.7155 166.366 13.7541 166.048 13.7972C165.336 13.8924 165.038 14.1647 164.916 14.8634C164.868 15.1379 164.841 15.4215 164.841 15.7005C164.837 18.4954 164.837 21.2903 164.841 24.0852C164.841 24.3392 164.859 24.5933 164.895 24.8429C165.002 25.6074 165.351 25.9295 166.155 26.0203C166.431 26.052 166.71 26.0815 167.001 26.1155V26.7938H160.195V26.111C160.46 26.0838 160.739 26.0656 161.012 26.0248C161.216 25.9953 161.418 25.9409 161.617 25.8887C162.096 25.7616 162.3 25.4009 162.352 24.9495C162.405 24.5003 162.441 24.0489 162.445 23.5951C162.459 22.5244 162.45 21.4536 162.45 20.3828C162.45 20.2853 162.45 20.1877 162.45 20.072H155.1C155.088 20.1197 155.073 20.1605 155.073 20.2036C155.077 21.6192 155.082 23.0348 155.093 24.4504C155.093 24.6568 155.12 24.8678 155.161 25.072C155.254 25.5416 155.531 25.8547 156.007 25.9545C156.291 26.0135 156.579 26.0429 156.865 26.0838C156.953 26.0951 157.042 26.0997 157.144 26.1087V26.8029H144.349V26.1155C144.569 26.086 144.798 26.0588 145.03 26.0248C145.145 26.0089 145.263 25.993 145.374 25.9567C145.64 25.8705 145.783 25.6822 145.765 25.4055C145.751 25.199 145.724 24.9858 145.649 24.7952C145.295 23.9059 144.923 23.0257 144.558 22.141C144.499 22.0003 144.437 21.8619 144.374 21.719H140.066C139.984 21.9209 139.898 22.1183 139.823 22.3202C139.549 23.0575 139.265 23.7902 139.011 24.5343C138.923 24.7952 138.879 25.0788 138.861 25.3556C138.839 25.689 139.002 25.8932 139.338 25.9772C139.56 26.0339 139.794 26.0497 140.023 26.0792C140.173 26.0974 140.322 26.1087 140.483 26.1223V26.8006H135.095V26.1405C135.304 26.1019 135.522 26.0543 135.742 26.0203C136.427 25.9159 136.944 25.5507 137.26 24.9495C137.605 24.2939 137.918 23.6201 138.21 22.9395C138.902 21.3356 139.576 19.725 140.254 18.1143C140.962 16.4378 141.67 14.7613 142.364 13.078C142.446 12.8784 142.545 12.7627 142.759 12.7332C142.908 12.7128 143.054 12.6697 143.237 12.6311C143.355 12.8897 143.482 13.1461 143.589 13.4115C144.154 14.8135 144.714 16.2177 145.279 17.6197C146.094 19.641 146.908 21.6623 147.727 23.6814C147.951 24.2349 148.16 24.7952 148.53 25.2784C148.818 25.655 149.183 25.9 149.646 25.9953C150.388 26.1473 151.125 26.1065 151.849 25.8978C152.377 25.7458 152.552 25.3079 152.609 24.8202C152.652 24.4527 152.661 24.0784 152.661 23.7086C152.666 21.1133 152.668 18.5181 152.661 15.9228C152.661 15.4941 152.618 15.063 152.545 14.6411C152.477 14.2463 152.216 13.9696 151.815 13.8856C151.418 13.8017 151.012 13.7563 150.61 13.6951C150.558 13.686 150.506 13.6837 150.438 13.6747V13.0077H157.205V13.6542C156.915 13.6973 156.615 13.7404 156.316 13.7881C156.191 13.8085 156.066 13.8334 155.944 13.8629C155.47 13.9786 155.234 14.3144 155.156 14.7658C155.107 15.0585 155.088 15.3602 155.086 15.6574C155.077 16.6828 155.079 17.7082 155.079 18.7336C155.079 18.788 155.086 18.8425 155.093 18.9241L155.086 18.9287ZM142.217 15.9727C142.196 15.9727 142.176 15.975 142.155 15.9773C142.128 16.0272 142.092 16.0771 142.071 16.1293C141.908 16.5626 141.749 16.9981 141.588 17.4337C141.214 18.4432 140.839 19.4505 140.467 20.4622C140.445 20.5235 140.452 20.5938 140.445 20.6641H144.009C143.405 19.0807 142.811 17.5267 142.219 15.9727H142.217Z" fill="white"/>
<path d="M66.5798 12.6264C66.2736 12.64 66.0218 12.6536 65.8312 12.6627C65.5476 12.0207 65.3185 11.3991 65.0077 10.8229C64.4678 9.82017 63.6897 9.04205 62.5985 8.65185C61.3031 8.18906 60.035 8.22082 58.8576 9.01709C58.2723 9.41409 57.9139 9.98124 57.7142 10.655C57.4103 11.6827 57.5736 12.6264 58.261 13.4567C58.7192 14.0125 59.3159 14.4004 59.9692 14.6817C60.9175 15.0901 61.8839 15.4576 62.8367 15.8546C63.937 16.3106 64.9941 16.8369 65.8947 17.64C66.8339 18.4771 67.4011 19.5115 67.519 20.7661C67.6166 21.8051 67.4623 22.8078 66.9905 23.7515C66.387 24.9607 65.4365 25.8046 64.2364 26.3853C62.8934 27.0364 61.4597 27.2451 59.9828 27.1861C58.2791 27.1203 56.6843 26.653 55.1961 25.825C55.1281 25.7864 55.0509 25.7047 55.0373 25.6322C54.7492 24.1757 54.4679 22.7193 54.1866 21.2606C54.173 21.1926 54.1753 21.12 54.1685 21.0292H54.9942C55.0895 21.2651 55.1984 21.5215 55.2982 21.7801C55.6067 22.5832 56.0809 23.2842 56.6117 23.9511C57.1834 24.668 57.8708 25.2624 58.6875 25.6707C59.1162 25.8862 59.6017 26.0133 60.0736 26.1176C60.3707 26.1834 60.6952 26.1471 61.0037 26.129C61.3553 26.1086 61.7115 26.0972 62.0518 26.0155C63.6307 25.6367 64.6924 24.4412 64.7287 22.7284C64.7536 21.4852 64.2251 20.5369 63.2677 19.7883C62.4715 19.1667 61.5527 18.7833 60.6271 18.4135C59.5246 17.9757 58.4175 17.5401 57.4125 16.8959C56.4575 16.2833 55.6589 15.5256 55.2438 14.4322C54.9738 13.7221 54.9488 12.9916 55.0192 12.2407C55.1031 11.3605 55.4321 10.5847 55.9243 9.87235C56.5527 8.96719 57.4239 8.36601 58.4334 7.95086C59.7265 7.42001 61.0763 7.27935 62.4556 7.36783C63.5536 7.43816 64.6175 7.70586 65.6656 8.03026C65.8153 8.07564 65.8789 8.14595 65.9038 8.30702C66.0921 9.53206 66.2963 10.7548 66.4914 11.9776C66.5231 12.1818 66.5435 12.3859 66.573 12.6264H66.5798Z" fill="white"/>
<path d="M82.2285 26.1518V26.7983H76.0194V26.1087C76.2667 26.0792 76.4981 26.052 76.7295 26.0247C76.7748 26.0202 76.8202 26.0202 76.8656 26.0134C77.3556 25.934 77.5711 25.6459 77.4486 25.1672C77.3511 24.7838 77.2059 24.4118 77.0561 24.0443C76.768 23.3297 76.464 22.6219 76.1668 21.9118C76.1396 21.846 76.1079 21.7825 76.0784 21.719H71.7272C71.3393 22.8533 70.9446 23.9875 70.5612 25.1264C70.4228 25.5393 70.6655 25.8727 71.0308 25.9589C71.3098 26.0247 71.6025 26.0406 71.8906 26.0769C71.9881 26.0883 72.0857 26.0883 72.2036 26.0951V26.796H66.7976C66.7976 26.6236 66.8022 26.4467 66.7976 26.2697C66.7931 26.1336 66.8475 26.0814 66.9905 26.0746C67.1787 26.0678 67.3693 26.0361 67.5553 25.9998C68.2155 25.875 68.6896 25.4871 68.9959 24.9063C69.2772 24.3709 69.5426 23.8242 69.7808 23.2684C70.3661 21.9118 70.931 20.5484 71.5049 19.1872C72.3987 17.0684 73.2903 14.9518 74.1955 12.8057C74.4269 12.749 74.6809 12.6878 74.9622 12.6174C75.0802 12.9078 75.1982 13.1891 75.3116 13.4727C76.1351 15.5121 76.9609 17.5516 77.7821 19.591C78.381 21.077 78.9685 22.5674 79.5833 24.0488C79.7626 24.4798 79.9962 24.895 80.248 25.2897C80.5384 25.7412 80.9967 25.9521 81.5207 26.0293C81.7521 26.0633 81.9789 26.1109 82.2285 26.1563V26.1518ZM73.93 15.9704C73.8983 15.9704 73.8665 15.9749 73.8325 15.9772C73.2608 17.5312 72.6891 19.0851 72.1061 20.6686H75.7154C75.112 19.0806 74.5199 17.5266 73.93 15.9727V15.9704Z" fill="white"/>
<path d="M77.8433 13.6814V13.0122H84.1113C84.1023 13.23 84.0909 13.4387 84.0796 13.6837C83.8323 13.7222 83.5873 13.7608 83.34 13.7994C83.2062 13.8198 83.0701 13.8311 82.9385 13.8629C82.4712 13.9763 82.3396 14.2168 82.5233 14.6592C83.1926 16.2721 83.8663 17.8851 84.5469 19.4935C85.0664 20.7185 85.5995 21.939 86.1281 23.1618C86.1803 23.2843 86.2393 23.4045 86.3255 23.5928C86.4003 23.4454 86.4525 23.3569 86.4911 23.2639C86.6862 22.7875 86.8767 22.3088 87.0696 21.8324C87.453 20.8773 87.8477 19.9245 88.2152 18.9627C88.6984 17.6968 89.1589 16.4219 89.6263 15.1492C89.6898 14.9745 89.7374 14.793 89.7737 14.6093C89.844 14.2644 89.7125 14.0126 89.3722 13.9128C89.0795 13.8266 88.771 13.7926 88.467 13.7381C88.3513 13.7177 88.2356 13.7041 88.1018 13.6859V13.0054H93.6144V13.6701C93.4057 13.7086 93.2038 13.7585 92.9996 13.7835C92.2555 13.881 91.7247 14.2917 91.3821 14.9337C90.9443 15.7572 90.5223 16.5897 90.1276 17.4359C89.6399 18.484 89.1771 19.5434 88.7234 20.6074C87.8409 22.6809 86.9743 24.7611 86.1009 26.8369C86.0759 26.8936 86.0442 26.9481 86.0101 27.0138H85.1572C84.9915 26.6214 84.8282 26.2312 84.6603 25.841C84.3722 25.1672 84.075 24.498 83.7915 23.822C82.8183 21.5012 81.8541 19.1782 80.8786 16.8574C80.6019 16.1973 80.3137 15.5439 80.0143 14.8951C79.8441 14.5299 79.6173 14.1828 79.2384 14.0172C78.9231 13.8788 78.5715 13.8198 78.2335 13.7336C78.1132 13.7018 77.9862 13.695 77.8433 13.6746V13.6814Z" fill="white"/>
<path d="M119.64 36.8253H118.979C118.977 36.7595 118.97 36.6824 118.97 36.603C118.97 35.4505 118.97 34.2981 118.97 33.1457C118.97 33.1094 118.97 33.0731 118.97 33.0368C118.961 32.8076 118.966 32.5354 118.723 32.4515C118.462 32.3607 118.158 32.3607 117.918 32.549C117.7 32.7169 117.562 32.9097 117.568 33.2319C117.596 34.3299 117.58 35.4279 117.58 36.5258C117.58 36.6257 117.58 36.7232 117.58 36.8366H116.917V31.9274H117.507C117.514 32.0794 117.521 32.2201 117.53 32.422C117.639 32.329 117.718 32.2632 117.795 32.1951C118.033 31.9864 118.306 31.8526 118.625 31.8254C118.988 31.7959 119.311 31.9955 119.549 32.4038C119.658 32.3222 119.767 32.2473 119.869 32.1611C120.168 31.9138 120.499 31.7936 120.896 31.8367C121.323 31.8821 121.575 32.245 121.649 32.5899C121.704 32.8417 121.706 33.1094 121.708 33.368C121.715 34.4206 121.708 35.4732 121.708 36.5258C121.708 36.6166 121.708 36.7051 121.708 36.8162H121.026C121.026 36.73 121.026 36.6438 121.026 36.5553C121.026 35.4029 121.026 34.2505 121.026 33.098C121.026 33.0164 121.03 32.9347 121.021 32.853C120.987 32.5195 120.871 32.4424 120.536 32.4106C120.155 32.3743 119.919 32.5785 119.705 32.8349C119.651 32.9007 119.644 33.0186 119.642 33.1139C119.637 34.2573 119.64 35.4006 119.637 36.544C119.637 36.6325 119.637 36.7209 119.637 36.8253H119.64Z" fill="white"/>
<path d="M75.9242 36.8275H75.2981V31.9342C75.475 31.9433 75.6497 31.9501 75.8403 31.9592C75.8539 32.0794 75.8698 32.1996 75.8902 32.3698C76.024 32.2745 76.1329 32.2042 76.2373 32.1225C76.5572 31.873 76.8997 31.7981 77.3035 31.8888C77.6052 31.9569 77.7572 32.1611 77.9228 32.4106C78.0227 32.3244 78.1157 32.245 78.2087 32.1679C78.4991 31.9319 78.8167 31.7845 79.2046 31.8389C79.6379 31.9002 79.8965 32.118 80.0009 32.5377C80.0304 32.6602 80.0485 32.7872 80.0485 32.9142C80.053 34.1847 80.053 35.4528 80.053 36.7232C80.053 36.7572 80.044 36.7935 80.0394 36.8275H79.3815C79.3815 36.7187 79.3815 36.6211 79.3815 36.5258C79.3815 35.3915 79.3815 34.2595 79.3793 33.1252C79.3793 32.9642 79.3634 32.7963 79.3135 32.6466C79.284 32.5581 79.1864 32.4605 79.1002 32.4333C78.7373 32.3176 78.2291 32.5286 78.0363 32.8666C77.9909 32.946 77.9886 33.0572 77.9886 33.1524C77.9864 34.2051 77.9886 35.2554 77.9886 36.308C77.9886 36.4714 77.9886 36.6324 77.9886 36.8185H77.3126C77.3126 36.7255 77.3126 36.637 77.3126 36.5485C77.3126 35.4233 77.3126 34.3003 77.3149 33.1751C77.3149 33.1388 77.3149 33.1025 77.3149 33.0662C77.3103 32.828 77.3307 32.5422 77.063 32.4605C76.7931 32.3766 76.4936 32.3675 76.2373 32.5785C76.0218 32.7554 75.9061 32.9437 75.9129 33.2455C75.9333 34.3253 75.922 35.4029 75.922 36.4827C75.922 36.5893 75.922 36.6982 75.922 36.8343L75.9242 36.8275Z" fill="white"/>
<path d="M90.062 30.6595C90.6042 30.6595 91.1328 30.6164 91.6523 30.6708C92.385 30.7457 92.8297 31.2198 93.0565 31.8981C93.3061 32.64 93.3265 33.4136 93.2811 34.1826C93.2562 34.6182 93.1768 35.0583 93.0724 35.4825C92.8705 36.3083 92.3034 36.7665 91.4481 36.83C90.9921 36.8641 90.5361 36.8799 90.0643 36.9049V30.6595H90.062ZM90.7018 36.2969C90.9059 36.2969 91.0783 36.3083 91.2485 36.2969C91.7498 36.2561 92.1582 36.0633 92.3692 35.5755C92.4304 35.4349 92.4758 35.2874 92.5098 35.1377C92.6868 34.3596 92.6051 33.5701 92.5869 32.7852C92.5824 32.5628 92.5166 32.3383 92.4486 32.1227C92.2149 31.3673 91.4549 30.9771 90.704 31.2244V36.2969H90.7018Z" fill="white"/>
<path d="M113.172 36.5349V38.4428H112.503V31.9297H113.034C113.045 32.0499 113.054 32.1792 113.07 32.3425C113.303 32.0998 113.526 31.9047 113.832 31.8457C114.422 31.7323 114.96 32.0045 115.193 32.617C115.338 32.9914 115.42 33.3997 115.468 33.8012C115.554 34.5158 115.499 35.2304 115.279 35.9156C115.205 36.1492 115.068 36.3783 114.907 36.5644C114.515 37.0158 113.97 37.0612 113.467 36.7277C113.381 36.671 113.292 36.6143 113.17 36.5349H113.172ZM113.161 34.3956C113.161 34.7949 113.195 35.1964 113.149 35.5911C113.108 35.9428 113.301 36.1084 113.537 36.2672C113.832 36.4668 114.274 36.4215 114.456 36.1333C114.603 35.8974 114.724 35.6161 114.755 35.3416C114.814 34.8403 114.819 34.3298 114.808 33.8262C114.801 33.5494 114.733 33.2704 114.656 33.0027C114.529 32.5649 114.225 32.3788 113.778 32.4242C113.451 32.4582 113.163 32.769 113.163 33.0912C113.163 33.5267 113.163 33.96 113.163 34.3956H113.161Z" fill="white"/>
<path d="M148.612 32.4197C148.845 32.2473 149.009 32.1044 149.19 31.9955C149.569 31.7686 149.966 31.7369 150.342 31.9932C150.669 32.2133 150.769 32.5717 150.778 32.937C150.798 33.7899 150.787 34.6407 150.789 35.4936C150.789 35.9269 150.789 36.3625 150.789 36.8162H150.127C150.122 36.7255 150.113 36.6302 150.113 36.5349C150.113 35.4188 150.113 34.3049 150.109 33.1888C150.109 33.0277 150.073 32.8666 150.045 32.7078C150.018 32.5445 149.902 32.456 149.75 32.4333C149.508 32.397 149.265 32.3925 149.052 32.5581C148.764 32.7827 148.584 33.0254 148.598 33.4406C148.634 34.5545 148.612 35.6706 148.612 36.8117H147.983V30.0105H148.614V32.422L148.612 32.4197Z" fill="white"/>
<path d="M138.761 35.0059H137.157C137.033 35.6298 136.915 36.2287 136.795 36.8299H136.132C136.588 34.7587 137.04 32.7147 137.491 30.6616H138.43C138.882 32.7124 139.333 34.7587 139.787 36.8208H139.124C139.002 36.2151 138.882 35.6139 138.759 35.0059H138.761ZM138.668 34.432C138.439 33.3249 138.219 32.261 138.001 31.1993C137.979 31.1993 137.954 31.197 137.931 31.1947C137.695 32.2632 137.477 33.3363 137.26 34.432H138.671H138.668Z" fill="white"/>
<path d="M126.008 34.4979H123.678C123.655 34.9448 123.66 35.3668 123.782 35.7797C123.873 36.0859 124.054 36.306 124.392 36.3649C124.839 36.4398 125.109 36.2719 125.313 35.8341C125.359 35.7366 125.372 35.6277 125.402 35.521H126.035C125.914 36.7982 124.56 37.2724 123.741 36.7279C123.53 36.5873 123.331 36.34 123.253 36.1018C122.886 34.9607 122.866 33.8015 123.258 32.6581C123.464 32.0569 123.92 31.821 124.517 31.8233C125.114 31.8255 125.522 32.134 125.751 32.6785C125.992 33.2502 126.019 33.8536 126.005 34.5024L126.008 34.4979ZM125.32 33.9126C125.341 33.4861 125.325 33.0937 125.13 32.7307C124.896 32.2974 124.156 32.2792 123.914 32.7012C123.7 33.071 123.662 33.4793 123.682 33.9126H125.322H125.32Z" fill="white"/>
<path d="M105.044 34.4866H102.714C102.702 34.9834 102.691 35.4575 102.879 35.9112C103.013 36.2334 103.265 36.374 103.605 36.3763C103.93 36.3786 104.159 36.2288 104.297 35.9407C104.367 35.7955 104.417 35.6413 104.49 35.4575C104.678 35.4756 104.878 35.4938 105.08 35.5142C105.016 36.408 104.222 37.0614 103.288 36.9185C102.755 36.8368 102.412 36.5101 102.262 36.0224C101.931 34.9539 101.931 33.8695 102.242 32.7942C102.369 32.3564 102.623 31.9934 103.093 31.889C103.88 31.7121 104.524 31.9299 104.835 32.7602C105.039 33.3069 105.066 33.8718 105.046 34.4843L105.044 34.4866ZM104.365 33.9149C104.365 33.7924 104.374 33.7039 104.365 33.6154C104.338 33.4044 104.299 33.1957 104.265 32.9848C104.213 32.6445 104.034 32.4834 103.603 32.3972C103.335 32.3427 103.086 32.4607 102.936 32.7307C102.734 33.0982 102.721 33.4997 102.716 33.9149H104.365Z" fill="white"/>
<path d="M97.2645 34.4934H94.9733C94.9642 34.963 94.9392 35.4054 95.0912 35.8319C95.2228 36.1971 95.4519 36.3627 95.8195 36.3718C96.1983 36.3809 96.4456 36.2175 96.5908 35.8523C96.6407 35.7275 96.6792 35.5982 96.7269 35.453C96.9197 35.4734 97.1057 35.4938 97.3099 35.5165C97.3303 35.8568 97.1806 36.12 96.9923 36.365C96.5295 36.9729 95.5631 37.1295 94.9687 36.6894C94.6443 36.4489 94.5037 36.0927 94.4107 35.7207C94.2337 34.9993 94.2587 34.2575 94.3086 33.5292C94.3335 33.1572 94.5014 32.7806 94.6625 32.4335C94.8893 31.9481 95.3385 31.8074 95.8399 31.8187C96.3684 31.8301 96.7518 32.0932 96.9878 32.5583C97.1738 32.9258 97.2691 33.3205 97.2623 33.738C97.2577 33.9739 97.2623 34.2098 97.2623 34.4911L97.2645 34.4934ZM96.6316 33.9126C96.5953 33.586 96.5704 33.2933 96.525 33.0052C96.5091 32.9008 96.4524 32.801 96.4002 32.708C96.1529 32.2861 95.5109 32.2407 95.2342 32.6468C94.9755 33.0256 94.9392 33.4612 94.9892 33.9126H96.6316Z" fill="white"/>
<path d="M163.491 31.9638H164.188C164.489 33.1616 164.798 34.3775 165.104 35.5935C165.125 35.5912 165.145 35.5889 165.165 35.5867C165.413 34.3662 165.66 33.148 165.907 31.9207H166.586C166.543 32.1271 166.504 32.3177 166.461 32.506C166.116 33.9783 165.776 35.4506 165.415 36.9183C165.342 37.2132 165.213 37.5013 165.063 37.7668C164.737 38.343 164.254 38.5449 163.562 38.4315V37.9778C163.745 37.9279 163.936 37.8802 164.12 37.8235C164.415 37.7327 164.551 37.4855 164.675 37.2337C164.78 37.025 164.807 36.8162 164.744 36.578C164.362 35.1806 163.995 33.7809 163.621 32.3812C163.584 32.2451 163.537 32.1112 163.489 31.9638H163.491Z" fill="white"/>
<path d="M55.0737 36.8187V30.6504H57.8573V31.1654H55.7293V33.3046H57.306V33.8718H55.7271V36.2946H57.9526V36.8187H55.0737Z" fill="white"/>
<path d="M66.9246 31.9208H67.5235C67.5326 32.0614 67.544 32.2089 67.5576 32.4062C67.6687 32.3268 67.7527 32.2679 67.8343 32.2043C68.1996 31.9185 68.5852 31.7574 69.0662 31.8935C69.3021 31.9616 69.4904 32.075 69.5743 32.2951C69.6605 32.5197 69.7422 32.7624 69.7467 33.0006C69.7626 34.2688 69.7535 35.5369 69.7535 36.8277H69.0798C69.0798 36.712 69.0798 36.6144 69.0798 36.5192C69.0798 35.4053 69.0866 34.2892 69.073 33.1753C69.0707 32.9779 69.0049 32.7738 68.9391 32.5855C68.8847 32.4335 68.6374 32.3473 68.4423 32.3836C68.0793 32.4493 67.8275 32.6807 67.6234 32.9643C67.578 33.0278 67.5848 33.1367 67.5848 33.2229C67.5825 34.3187 67.5825 35.4166 67.5802 36.5124C67.5802 36.6099 67.5802 36.7075 67.5802 36.8209H66.9224V31.9208H66.9246Z" fill="white"/>
<path d="M70.9219 34.4977C70.9604 33.8104 70.9809 33.1933 71.2281 32.6171C71.4391 32.1271 71.7975 31.8685 72.3556 31.839C73.2744 31.7891 73.6737 32.2745 73.8234 33.0095C74.0162 33.9692 74.0593 34.9469 73.7803 35.9065C73.4763 36.9546 72.5847 37.1202 71.8066 36.7958C71.6229 36.7187 71.4618 36.5327 71.3438 36.358C71.1329 36.0472 71.0489 35.6797 71.0058 35.3076C70.9695 35.0127 70.9446 34.7178 70.9219 34.4955V34.4977ZM73.2857 34.3389C73.2857 34.2119 73.2993 34.0826 73.2835 33.9578C73.2358 33.5835 73.1927 33.2069 73.1201 32.8349C73.0838 32.642 72.9523 32.4855 72.7549 32.4265C72.2195 32.2677 71.8316 32.5014 71.7295 33.0481C71.5775 33.8466 71.5866 34.6497 71.6887 35.4528C71.7136 35.6547 71.7817 35.8589 71.8656 36.0472C72.0085 36.367 72.3012 36.3943 72.6052 36.3648C72.8638 36.3398 73.0339 36.1561 73.1247 35.8838C73.2948 35.3779 73.288 34.8584 73.288 34.3367L73.2857 34.3389Z" fill="white"/>
<path d="M65.72 34.2937C65.6678 34.7792 65.6406 35.2578 65.5567 35.7252C65.4773 36.1607 65.2777 36.5441 64.867 36.7823C64.2137 37.1589 63.2995 36.898 62.9955 36.2129C62.8616 35.9112 62.7799 35.5777 62.7323 35.251C62.6756 34.879 62.637 34.4933 62.6733 34.1213C62.7187 33.6313 62.814 33.1413 62.9433 32.6671C63.0612 32.2293 63.4832 31.8187 64.1139 31.8391C64.5041 31.8527 64.8761 31.8845 65.1551 32.1907C65.3775 32.4357 65.5159 32.7352 65.568 33.0619C65.6338 33.4725 65.6724 33.8854 65.7223 34.2937H65.72ZM65.0009 34.3686C65.0009 34.1326 65.0168 33.8967 64.9963 33.663C64.9759 33.4203 64.9487 33.173 64.8761 32.9439C64.8262 32.7806 64.7309 32.5628 64.5971 32.5061C64.1706 32.3269 63.6352 32.3132 63.4855 32.9462C63.4741 32.9983 63.4582 33.0505 63.4469 33.1027C63.3085 33.747 63.3357 34.4003 63.3652 35.0514C63.3788 35.3373 63.4424 35.6254 63.5218 35.8999C63.6239 36.2538 63.8303 36.3763 64.216 36.3717C64.5472 36.3672 64.7241 36.2288 64.8444 35.8885C65.0168 35.394 65.0122 34.8813 65.0009 34.3686Z" fill="white"/>
<path d="M111.244 34.3754C111.192 34.8269 111.146 35.2738 111.083 35.7207C111.062 35.8613 111.003 35.9997 110.944 36.129C110.674 36.7257 110.261 36.9729 109.61 36.9389C109.025 36.9072 108.612 36.5918 108.417 35.9997C108.349 35.7956 108.299 35.58 108.276 35.3668C108.231 34.929 108.158 34.4843 108.19 34.051C108.233 33.4998 108.272 32.9326 108.571 32.4335C108.803 32.0456 109.134 31.8301 109.594 31.8482C109.755 31.855 109.919 31.8505 110.075 31.8845C110.704 32.0161 110.971 32.4834 111.083 33.0551C111.167 33.4884 111.191 33.9331 111.246 34.3777L111.244 34.3754ZM110.549 34.2484C110.513 33.9058 110.491 33.4135 110.4 32.9371C110.318 32.5175 110.13 32.4131 109.708 32.4199C109.653 32.4199 109.599 32.4222 109.545 32.4199C109.372 32.404 109.243 32.4834 109.166 32.6241C109.089 32.7647 108.996 32.9167 108.98 33.0687C108.927 33.6268 108.878 34.1871 108.882 34.7452C108.882 35.1218 108.948 35.5029 109.034 35.8681C109.123 36.2425 109.334 36.3695 109.708 36.374C110.071 36.3786 110.246 36.2561 110.377 35.8976C110.42 35.7797 110.459 35.6549 110.47 35.5301C110.502 35.1513 110.52 34.7724 110.552 34.2461L110.549 34.2484Z" fill="white"/>
<path d="M155.032 34.4117C154.966 34.9017 154.923 35.3985 154.825 35.8817C154.744 36.2832 154.528 36.6167 154.138 36.8073C153.36 37.1907 152.473 36.8345 152.21 35.9883C151.883 34.9448 151.922 33.8831 152.196 32.8327C152.314 32.379 152.568 31.9707 153.069 31.8845C153.875 31.7461 154.515 31.8436 154.819 32.8441C154.893 33.0936 154.943 33.3545 154.968 33.6131C154.993 33.874 154.973 34.1372 154.973 34.4003C154.993 34.4026 155.014 34.4048 155.032 34.4071V34.4117ZM154.392 34.4117C154.376 34.4117 154.358 34.4071 154.342 34.4049C154.342 34.2597 154.356 34.1122 154.34 33.9716C154.294 33.604 154.251 33.2365 154.176 32.8758C154.149 32.7488 154.052 32.5923 153.943 32.5333C153.525 32.3132 152.947 32.3178 152.809 32.9393C152.788 33.0369 152.75 33.1322 152.745 33.2297C152.725 33.8808 152.693 34.5296 152.702 35.1807C152.704 35.4371 152.777 35.7002 152.858 35.9475C152.947 36.2129 153.142 36.3762 153.448 36.3785C153.875 36.383 154.099 36.256 154.192 35.825C154.294 35.3599 154.331 34.8835 154.394 34.4094L154.392 34.4117Z" fill="white"/>
<path d="M130.043 36.821H129.408C129.408 36.7144 129.408 36.6191 129.408 36.5215C129.408 35.4871 129.41 34.4526 129.408 33.4204C129.408 33.223 129.383 33.0234 129.356 32.8283C129.295 32.3905 128.859 32.3315 128.512 32.4744C128.319 32.5538 128.154 32.7171 128.004 32.8714C127.936 32.944 127.913 33.0824 127.911 33.1913C127.904 34.3346 127.906 35.4757 127.906 36.6191C127.906 36.6803 127.906 36.7416 127.906 36.821H127.249V31.9277H127.845C127.854 32.066 127.863 32.2135 127.877 32.4063C127.997 32.3201 128.09 32.2566 128.181 32.1885C128.453 31.9821 128.734 31.8256 129.097 31.8437C129.624 31.8687 129.973 32.1749 130.034 32.708C130.048 32.8328 130.052 32.9621 130.052 33.0892C130.052 34.2779 130.052 35.4644 130.052 36.6531C130.052 36.7053 130.048 36.7575 130.043 36.8232V36.821Z" fill="white"/>
<path d="M142.911 31.9638C143.14 31.9479 143.333 31.9343 143.544 31.9207V36.8185H142.927C142.917 36.6801 142.906 36.5485 142.895 36.3784C142.82 36.4283 142.772 36.4601 142.727 36.4918C142.616 36.5712 142.511 36.6574 142.398 36.73C142.028 36.9682 141.643 37.0272 141.243 36.8117C140.848 36.5985 140.746 36.2219 140.742 35.8226C140.728 34.6702 140.737 33.52 140.737 32.3676C140.737 32.2246 140.737 32.0817 140.737 31.9252H141.393C141.397 31.9955 141.407 32.0658 141.407 32.1339C141.409 33.3226 141.407 34.5091 141.42 35.6978C141.42 35.868 141.488 36.0517 141.57 36.206C141.679 36.4124 141.847 36.4646 142.067 36.3716C142.264 36.2877 142.457 36.1879 142.632 36.0631C142.829 35.9224 142.922 35.7296 142.917 35.4596C142.899 34.3821 142.911 33.3022 142.911 32.2224C142.911 32.143 142.911 32.0636 142.911 31.9615V31.9638Z" fill="white"/>
<path d="M100.656 31.9253H101.332C100.931 33.5564 100.531 35.1784 100.128 36.8186H99.211C98.814 35.2125 98.4147 33.6018 98.0132 31.9752H98.6824C98.9977 33.3182 99.3153 34.6771 99.6352 36.036C99.6556 36.0382 99.676 36.0428 99.6987 36.045C99.9029 35.3826 100.016 34.6952 100.182 34.0215C100.35 33.3364 100.495 32.6467 100.658 31.9253H100.656Z" fill="white"/>
<path d="M85.9716 35.3441H86.5637C86.4956 36.7846 85.3613 37.2361 84.4358 36.7665C84.1045 36.5986 83.9367 36.2969 83.8414 35.9611C83.6372 35.2443 83.5442 34.5138 83.669 33.7697C83.7166 33.4839 83.7348 33.1935 83.8051 32.9144C83.9072 32.5106 84.0887 32.1182 84.5038 31.9662C85.3545 31.6554 86.144 31.8459 86.4457 32.7874C86.5047 32.9712 86.5251 33.1663 86.5682 33.3704C86.4888 33.384 86.4548 33.3977 86.4208 33.3954C86.2756 33.3954 86.1054 33.434 85.9965 33.3682C85.9126 33.3183 85.9103 33.1345 85.874 33.0075C85.7357 32.5242 85.3137 32.2747 84.8486 32.429C84.7352 32.4675 84.6309 32.5878 84.5605 32.6944C84.3473 33.0188 84.3337 33.4022 84.3246 33.7674C84.311 34.3368 84.3427 34.9063 84.3745 35.4757C84.3836 35.6345 84.4403 35.7955 84.4947 35.9475C84.5946 36.222 84.7942 36.365 85.0936 36.3763C85.3931 36.3876 85.6358 36.2901 85.7583 36.0065C85.8468 35.8001 85.8967 35.58 85.9716 35.3441Z" fill="white"/>
<path d="M61.0991 35.3394H61.7229C61.7025 35.9088 61.5346 36.4011 61.056 36.7232C60.5977 37.0317 60.0986 37.0159 59.6086 36.7708C59.2683 36.5984 59.1095 36.2876 58.9984 35.9428C58.7579 35.1919 58.7761 34.4229 58.835 33.6538C58.8532 33.4111 58.9008 33.1683 58.9643 32.9324C59.1232 32.3403 59.4793 31.7958 60.3867 31.8435C61.1558 31.8821 61.7638 32.5354 61.6912 33.3362C61.512 33.3612 61.3305 33.3884 61.1286 33.4156C61.0855 33.2432 61.0514 33.0957 61.0083 32.9506C60.8745 32.4991 60.5524 32.3154 60.0941 32.4106C59.8604 32.4583 59.7266 32.6193 59.6608 32.819C59.5746 33.0821 59.4907 33.3589 59.4839 33.6311C59.4702 34.2096 59.4975 34.7904 59.5292 35.3689C59.5406 35.564 59.5927 35.7636 59.6585 35.9474C59.8491 36.485 60.414 36.4532 60.7157 36.2695C60.9289 36.1379 60.9312 35.8861 61.0242 35.6887C61.0719 35.5889 61.0719 35.4664 61.0968 35.3439L61.0991 35.3394Z" fill="white"/>
<path d="M161.413 32.4811H160.737V31.9684C160.946 31.9366 161.164 31.9048 161.411 31.8685V30.2874H162.055V31.9003H162.963V32.4652H162.06C162.06 32.5945 162.06 32.6898 162.06 32.7873C162.06 33.7832 162.06 34.7814 162.06 35.7773C162.06 36.3377 162.273 36.5078 162.829 36.3898C162.863 36.383 162.899 36.3785 162.958 36.3671V36.8798C162.709 36.898 162.457 36.9366 162.207 36.9275C161.726 36.9071 161.445 36.6144 161.422 36.1312C161.411 35.8862 161.413 35.6412 161.413 35.3962C161.413 34.5341 161.413 33.6743 161.413 32.8123C161.413 32.7147 161.413 32.6149 161.413 32.4765V32.4811Z" fill="white"/>
<path d="M130.996 32.488V31.9843C131.223 31.9594 131.448 31.9367 131.693 31.9095V30.2852H132.328V31.8959H133.235V32.4675H132.357C132.35 32.5855 132.339 32.6626 132.339 32.742C132.339 33.7493 132.339 34.7565 132.339 35.7638C132.339 35.8613 132.348 35.9634 132.369 36.0587C132.423 36.3173 132.539 36.4194 132.795 36.4285C132.938 36.433 133.081 36.4103 133.242 36.3967V36.8754C133.022 36.8958 132.8 36.9366 132.577 36.9344C132.01 36.9321 131.706 36.6304 131.699 36.0564C131.69 35.267 131.695 34.4775 131.695 33.688C131.695 33.2978 131.695 32.9099 131.695 32.4857H130.996V32.488Z" fill="white"/>
<path d="M145.195 30.2782H145.821V31.8912H146.742V32.4651H145.842C145.842 32.5899 145.842 32.6852 145.842 32.7805C145.842 33.7786 145.842 34.7745 145.842 35.7727C145.842 36.3149 146.05 36.4941 146.584 36.4102C146.627 36.4034 146.67 36.3898 146.738 36.3739V36.8752C146.511 36.8957 146.286 36.9365 146.064 36.932C145.526 36.9251 145.229 36.6302 145.202 36.0903C145.188 35.8362 145.197 35.5821 145.197 35.3281C145.197 34.4751 145.197 33.6221 145.197 32.7714C145.197 32.6829 145.197 32.5944 145.197 32.4833H144.515V31.9797C144.723 31.8844 144.987 32.0432 145.197 31.839V30.2737L145.195 30.2782Z" fill="white"/>
<path d="M106.334 30.0083H106.938V36.8208H106.334V30.0083Z" fill="white"/>
<path d="M156.833 36.8117C156.615 36.8412 156.424 36.8684 156.209 36.8979V31.932H156.824C156.831 32.0885 156.84 32.2541 156.851 32.4923C157.2 32.1067 157.513 31.7369 158.071 31.8707V32.4129C158.044 32.4356 158.031 32.456 158.017 32.4583C157.536 32.4742 157.219 32.7396 156.967 33.123C156.874 33.2636 156.831 33.4066 156.831 33.579C156.837 34.6475 156.833 35.716 156.833 36.814V36.8117Z" fill="white"/>
<path d="M81.7454 31.9254H82.3874V36.8073C82.1809 36.83 81.9722 36.855 81.7454 36.8799V31.9231V31.9254Z" fill="white"/>
<path d="M159.102 31.9207H159.735V36.814H159.102V31.9207Z" fill="white"/>
<path d="M159.09 30.7728V30.0151H159.739V30.7728H159.09Z" fill="white"/>
<path d="M82.3783 30.7795H81.7454V30.0105H82.3783V30.7795Z" fill="white"/>
</svg>
