<svg width="81" height="46" viewBox="0 0 81 46" fill="none" xmlns="http://www.w3.org/2000/svg">
<path d="M50.0995 15.668C50.8523 15.1719 51.4356 14.6032 51.9046 13.9116C52.8452 12.5283 53.2944 11.0132 52.9865 9.30854C52.7336 7.90156 51.7633 7.06034 50.4117 7.03072C49.8156 7.01739 49.2379 7.11366 48.6786 7.31804C46.6759 8.05263 44.6773 8.7961 42.6774 9.53958C42.4825 9.61215 42.2946 9.70545 42.1223 9.78098V24.0803C43.0615 23.7278 43.9499 23.4005 44.8327 23.0539C44.9104 23.0243 44.9683 22.8762 44.9909 22.7725C45.0191 22.6407 45.0008 22.4985 45.0008 22.3623C45.0008 21.0249 44.9993 19.6875 45.0022 18.3502C45.0036 17.9281 45.029 17.897 45.4019 17.7578C45.6632 17.66 45.9287 17.5712 46.1914 17.4793C46.4979 17.3712 46.803 17.2631 47.1292 17.1476C48.0374 18.5205 48.9258 19.8623 49.817 21.2115C50.9512 20.7865 52.019 20.3866 53.1475 19.9645C52.1136 18.5086 51.1249 17.1135 50.0995 15.668ZM48.988 13.5369C48.6066 13.8168 48.1617 14.0123 47.7267 14.19C46.8637 14.5425 45.9866 14.8564 45.1166 15.1867C44.9753 14.8135 44.9316 12.706 45.0304 11.3775C45.7479 11.1035 46.4471 10.8281 47.1533 10.5689C47.6137 10.4 48.0741 10.2208 48.5473 10.1068C49.4653 9.88465 50.0995 10.4282 50.0868 11.4116C50.0755 12.315 49.6758 13.0318 48.988 13.5369Z" fill="white"/>
<path d="M45.0104 26.4194C45.0104 27.2373 45.0088 27.9531 45.0113 28.6689C45.0122 28.8865 44.8791 28.9493 44.7106 29.0089C43.8444 29.3163 42.983 29.6385 42.1168 29.9461C40.5247 30.5116 38.9296 31.0676 37.3374 31.6327C35.7923 32.1811 34.2503 32.7383 32.7057 33.2879C28.9959 34.608 25.2847 35.9232 21.5756 37.2451C17.837 38.5774 14.1 39.9153 10.3625 41.2509C8.06133 42.0733 5.76039 42.8968 3.45861 43.7176C3.32344 43.7657 3.1822 43.7949 3 43.8448V41.3869C16.9408 36.42 30.9167 31.4408 45.0104 26.4194Z" fill="white"/>
<path d="M49.9045 24.3645C50.8611 24.0112 51.8087 23.6614 52.8269 23.2855C52.8356 23.5614 52.8473 23.7606 52.8473 23.9598C52.8486 26.4631 52.8403 28.9664 52.8554 31.4695C52.8582 31.9436 52.8985 32.4328 53.0161 32.8879C53.3204 34.0644 54.3508 34.342 55.109 34.1919C56.0378 34.0083 56.8958 33.669 57.6306 33.0221C58.7122 32.0696 59.2425 30.8595 59.2387 29.3789C59.2322 26.8585 59.2372 24.3381 59.2373 21.8177C59.2373 21.6634 59.236 21.509 59.2377 21.3547C59.2412 21.0404 59.3788 20.8334 59.6506 20.7339C60.3891 20.4606 61.1268 20.1849 61.8655 19.9122C61.9546 19.8793 62.0481 19.8595 62.1884 19.8196C62.2063 20.0005 62.2329 20.1449 62.233 20.2896C62.2353 22.9815 62.2532 25.6735 62.2282 28.3651C62.2067 30.6767 61.4474 32.684 59.836 34.299C58.7928 35.3446 57.569 36.0817 56.216 36.595C55.2276 36.97 54.2222 37.2553 53.1602 37.2233C52.5319 37.2043 51.9317 37.063 51.3914 36.6987C50.5427 36.1264 50.1739 35.2486 49.9971 34.2624C49.922 33.8437 49.8899 33.411 49.8884 32.9845C49.8789 30.2755 49.8833 27.5664 49.8843 24.8575C49.8843 24.7054 49.8966 24.5534 49.9045 24.3645Z" fill="white"/>
<path d="M75.7868 18.3783C75.5989 17.3771 75.1258 16.5937 74.171 16.2219C73.6385 16.0161 73.0806 15.9509 72.5312 16.0872C71.866 16.2516 71.2036 16.4441 70.5581 16.6781C68.8138 17.309 67.0794 17.9651 65.3421 18.6168C64.8873 18.7871 64.8887 18.796 64.8887 19.3114C64.8873 23.7174 64.8873 28.1249 64.8887 32.531C64.8887 32.6954 64.9029 32.8598 64.9113 33.0597C65.037 33.0316 65.1161 33.0241 65.1896 32.996C65.8986 32.7368 66.6048 32.4732 67.3124 32.2125C67.8082 32.0304 67.811 32.0319 67.8124 31.4987C67.8138 30.1273 67.811 28.7558 67.8138 27.3844C67.8152 26.952 67.8166 26.9401 68.2036 26.7935C69.2319 26.4055 70.2671 26.0396 71.294 25.6442C72.8617 25.0414 74.1385 24.0388 74.9916 22.5133C75.7049 21.2382 76.0664 19.8682 75.7868 18.3783ZM72.2035 22.1801C71.8194 22.6081 71.3674 22.9325 70.8236 23.122C70.0186 23.4019 69.2248 23.7159 68.4254 24.0121C68.2601 24.0728 68.0878 24.1188 67.8392 24.1958V20.3925C68.1302 20.2785 68.4155 20.1615 68.705 20.0548C69.4126 19.7912 70.1188 19.5261 70.8307 19.2758C71.2163 19.1396 71.6033 19.0122 72.0256 19.1173C72.4945 19.2343 72.7657 19.5335 72.8532 20.0163C73.0072 20.8575 72.7473 21.5729 72.2035 22.1801Z" fill="white"/>
<path d="M3.03828 35.949C3.50931 35.0126 3.97046 34.0955 4.40025 33.2411C4.97298 33.4633 5.47339 33.7453 6.00502 33.8464C7.40386 34.1127 8.65891 33.7072 9.73205 32.7342C10.1073 32.3938 10.3806 31.9594 10.4285 31.4198C10.4854 30.7774 10.2681 30.459 9.65621 30.4235C9.02345 30.3866 8.38448 30.4258 7.75018 30.467C6.93438 30.5197 6.11843 30.6098 5.30842 30.4365C4.21862 30.2034 3.63911 29.5486 3.4651 28.3945C3.29222 27.2474 3.52047 26.1678 4.03543 25.1655C5.15504 22.9868 6.94638 21.7596 9.22034 21.2476C10.0289 21.0656 10.8419 21.0157 11.6439 21.2593C12.0288 21.3764 12.3939 21.5652 12.8237 21.7448C12.36 22.747 11.8915 23.6528 11.3689 24.5641C10.6822 24.1521 9.97569 23.9735 9.22387 24.0355C8.36429 24.1065 7.55046 24.3328 6.855 24.8973C6.42393 25.2473 6.15177 25.7042 6.09513 26.2834C6.05262 26.7182 6.19795 27.0051 6.60486 27.0881C6.9992 27.1685 7.41417 27.1774 7.81755 27.159C8.48604 27.1288 9.15198 27.0205 9.82033 27.0047C10.29 26.9936 10.7727 27.0297 11.2305 27.1355C12.3956 27.4046 12.984 28.1258 13.0653 29.4617C13.1909 31.5233 12.5022 33.251 11.0103 34.612C9.33658 36.1387 7.39369 36.8914 5.16973 36.8181C4.43034 36.7938 3.7062 36.5023 3.03828 35.949Z" fill="white"/>
<path d="M39.981 24.7282C38.977 25.1047 38.03 25.4597 37.0214 25.8379C35.702 22.5049 34.3982 19.2115 33.0945 15.9182C33.0588 15.9214 33.0231 15.9249 32.9873 15.9281C32.8666 16.2936 32.738 16.6566 32.6263 17.0251C31.5374 20.6136 30.4292 24.1959 29.3826 27.7979C29.1689 28.5334 28.8395 28.9586 28.1322 29.1502C27.5023 29.321 26.8996 29.6021 26.2837 29.8309C26.1516 29.8799 26.0143 29.913 25.8036 29.9762C25.9469 29.522 26.0653 29.1387 26.1887 28.7572C27.3798 25.0777 28.5717 21.3986 29.7634 17.7194C30.1309 16.5846 30.509 15.4536 30.8603 14.3134C30.9909 13.8892 31.1954 13.6479 31.633 13.5124C32.539 13.2318 33.4178 12.8547 34.3089 12.5206C34.4287 12.4757 34.5549 12.4499 34.7298 12.4008C36.4727 16.4921 38.209 20.5682 39.981 24.7282Z" fill="white"/>
<path d="M75.8532 32.6983V32.765L52.4271 41.0468C60.2052 38.2744 68.0087 35.4945 75.8532 32.6983Z" fill="white"/>
<path d="M21.8804 19.6865V20.3195C21.8804 23.8005 21.8805 27.2816 21.8802 30.7626C21.8802 31.3282 21.8775 31.3238 21.3633 31.5108C20.8082 31.7127 20.2571 31.9269 19.7023 32.1298C19.4914 32.2069 19.2752 32.2675 18.9963 32.3562V20.7554C17.6269 21.262 16.3337 21.7404 14.9879 22.2382V19.5495C18.5735 18.213 22.1785 16.8694 25.8402 15.5047C25.8571 15.7353 25.8765 15.8829 25.8775 16.0306C25.8813 16.5793 25.8804 17.128 25.8786 17.6768C25.8769 18.1816 25.8753 18.1818 25.405 18.3591C24.2532 18.793 23.1011 19.2268 21.8804 19.6865Z" fill="white"/>
<path d="M66.1742 3.65044C66.1742 3.68006 66.1564 3.70642 66.1298 3.7162L62.1812 5.1793L62.1713 5.18374V7.84217C62.1727 10.6309 62.1755 13.4197 62.1755 16.207C62.1755 16.7875 62.1713 16.7876 61.6233 16.9934C60.8733 17.2763 60.1219 17.5592 59.2829 17.8746V6.23838C57.9327 6.74044 56.6389 7.22326 55.2943 7.72236V5.03134L66.174 1L66.1742 3.65044Z" fill="white"/>
<path d="M59.2829 6.23838L59.2829 6.25319L55.2943 7.73125V7.72236C56.6389 7.22326 57.9327 6.74044 59.2829 6.23838Z" fill="white"/>
<path d="M75.8532 32.765V35.0828C75.8532 35.1316 75.8249 35.1746 75.7811 35.1924C75.5679 35.2723 75.3504 35.3568 75.1314 35.4352C71.1598 36.8526 67.1881 38.2714 63.2165 39.6858C61.6346 40.2486 60.0499 40.8128 58.4666 41.3756L49.9032 44.4028V41.9458C50.7111 41.657 51.5204 41.3697 52.3297 41.0809L52.4271 41.0468L75.8532 32.765Z" fill="white"/>
<path d="M49.9032 41.9384L52.3297 41.0809C51.5204 41.3697 50.7111 41.657 49.9032 41.9458V41.9384Z" fill="white"/>
<path d="M75.8532 35.0828V35.2309L58.4666 41.3756C60.0499 40.8128 61.6346 40.2486 63.2165 39.6858C67.1881 38.2714 71.1598 36.8526 75.1314 35.4352C75.3504 35.3568 75.5679 35.2723 75.7811 35.1924C75.8249 35.1746 75.8532 35.1316 75.8532 35.0828Z" fill="white"/>
</svg>
