<svg width="36" height="22" viewBox="0 0 36 22" fill="none" xmlns="http://www.w3.org/2000/svg">
<g id="Sub Brands">
<g id="Vector">
<path d="M22.9133 7.33402C23.2795 7.08595 23.5633 6.8016 23.7914 6.45578C24.249 5.76414 24.4675 5.0066 24.3177 4.15427C24.1947 3.45078 23.7227 3.03017 23.0651 3.01536C22.7752 3.0087 22.4941 3.05683 22.222 3.15902C21.2477 3.52631 20.2755 3.89805 19.3025 4.26979C19.2077 4.30607 19.1163 4.35272 19.0325 4.39049V11.5401C19.4894 11.3639 19.9216 11.2002 20.351 11.027C20.3888 11.0121 20.417 10.9381 20.428 10.8863C20.4417 10.8204 20.4328 10.7493 20.4328 10.6811C20.4328 10.0125 20.4321 9.34377 20.4335 8.67509C20.4342 8.46404 20.4465 8.44849 20.6279 8.37888C20.7551 8.33001 20.8842 8.28558 21.012 8.23967C21.1611 8.18561 21.3096 8.13155 21.4683 8.07379C21.9101 8.76025 22.3423 9.43115 22.7759 10.1058C23.3276 9.89323 23.8471 9.69329 24.3961 9.48225C23.8931 8.75432 23.4121 8.05676 22.9133 7.33402ZM22.3725 6.26843C22.187 6.40838 21.9706 6.50613 21.7589 6.59499C21.3391 6.77124 20.9124 6.92822 20.4891 7.09336C20.4204 6.90675 20.3991 5.853 20.4472 5.18876C20.7963 5.05177 21.1364 4.91403 21.48 4.78444C21.704 4.70002 21.928 4.61042 22.1581 4.5534C22.6048 4.44233 22.9133 4.71409 22.9071 5.20579C22.9016 5.65751 22.7071 6.01591 22.3725 6.26843Z" fill="white"/>
<path d="M20.4375 12.7097C20.4375 13.1187 20.4367 13.4766 20.438 13.8345C20.4384 13.9432 20.3736 13.9746 20.2917 14.0045C19.8703 14.1581 19.4512 14.3193 19.0298 14.4731C18.2553 14.7558 17.4792 15.0338 16.7047 15.3164C15.953 15.5906 15.2028 15.8692 14.4514 16.144C12.6466 16.804 10.8412 17.4616 9.03677 18.1225C7.21798 18.7887 5.40002 19.4577 3.58178 20.1255C2.46227 20.5367 1.34289 20.9484 0.223105 21.3588C0.157349 21.3829 0.0886375 21.3974 0 21.4224V20.1934C6.78201 17.71 13.5811 15.2204 20.4375 12.7097Z" fill="white"/>
<path d="M22.8184 11.6822C23.2838 11.5056 23.7448 11.3307 24.2401 11.1428C24.2444 11.2807 24.2501 11.3803 24.2501 11.4799C24.2507 12.7315 24.2466 13.9832 24.254 15.2348C24.2553 15.4718 24.2749 15.7164 24.3322 15.9439C24.4802 16.5322 24.9815 16.671 25.3503 16.596C25.8022 16.5041 26.2196 16.3345 26.577 16.011C27.1032 15.5348 27.3612 14.9297 27.3594 14.1895C27.3562 12.9293 27.3586 11.669 27.3587 10.4088C27.3587 10.3317 27.3581 10.2545 27.3589 10.1774C27.3606 10.0202 27.4275 9.9167 27.5597 9.86694C27.919 9.73032 28.2779 9.59243 28.6373 9.45611C28.6806 9.43967 28.7261 9.42974 28.7943 9.40982C28.8031 9.50024 28.816 9.57244 28.8161 9.64479C28.8172 10.9907 28.8259 12.3368 28.8137 13.6826C28.8033 14.8384 28.4339 15.842 27.65 16.6495C27.1425 17.1723 26.5471 17.5409 25.8889 17.7975C25.408 17.985 24.9189 18.1276 24.4023 18.1116C24.0966 18.1022 23.8046 18.0315 23.5418 17.8494C23.1289 17.5632 22.9495 17.1243 22.8635 16.6312C22.8269 16.4219 22.8113 16.2055 22.8106 15.9922C22.806 14.6378 22.8081 13.2832 22.8086 11.9287C22.8086 11.8527 22.8145 11.7767 22.8184 11.6822Z" fill="white"/>
<path d="M35.4098 8.68916C35.3184 8.18857 35.0882 7.79684 34.6237 7.61097C34.3647 7.50804 34.0933 7.47546 33.826 7.54359C33.5024 7.62578 33.1801 7.72205 32.8661 7.83905C32.0175 8.15451 31.1737 8.48256 30.3286 8.80838C30.1073 8.89354 30.108 8.89798 30.108 9.15568C30.1073 11.3587 30.1073 13.5625 30.108 15.7655C30.108 15.8477 30.1149 15.9299 30.119 16.0298C30.1802 16.0158 30.2187 16.0121 30.2544 15.998C30.5993 15.8684 30.9429 15.7366 31.2871 15.6063C31.5283 15.5152 31.5297 15.5159 31.5304 15.2493C31.531 14.5636 31.5297 13.8779 31.531 13.1922C31.5317 12.976 31.5324 12.9701 31.7207 12.8967C32.2209 12.7027 32.7246 12.5198 33.2241 12.3221C33.9868 12.0207 34.6079 11.5194 35.0229 10.7567C35.3699 10.1191 35.5458 9.43411 35.4098 8.68916ZM33.6666 10.59C33.4797 10.8041 33.2598 10.9662 32.9953 11.061C32.6036 11.201 32.2175 11.358 31.8286 11.5061C31.7482 11.5364 31.6643 11.5594 31.5434 11.5979V9.69625C31.685 9.63923 31.8238 9.58073 31.9646 9.52742C32.3089 9.39561 32.6524 9.26305 32.9987 9.13791C33.1863 9.06978 33.3746 9.0061 33.58 9.05867C33.8081 9.11717 33.9401 9.26676 33.9827 9.50816C34.0576 9.92877 33.9311 10.2864 33.6666 10.59Z" fill="white"/>
<path d="M0.0186207 17.4745C0.247773 17.0063 0.472115 16.5478 0.681203 16.1206C0.959827 16.2316 1.20327 16.3726 1.4619 16.4232C2.14242 16.5564 2.75299 16.3536 3.27505 15.8671C3.45762 15.6969 3.59057 15.4797 3.61387 15.2099C3.64156 14.8887 3.53581 14.7295 3.23816 14.7117C2.93033 14.6933 2.61948 14.7129 2.3109 14.7335C1.91402 14.7599 1.51708 14.8049 1.12302 14.7183C0.592841 14.6017 0.310918 14.2743 0.226266 13.6972C0.142163 13.1237 0.253201 12.5839 0.503722 12.0828C1.0484 10.9934 1.91986 10.3798 3.02611 10.1238C3.41948 10.0328 3.81499 10.0079 4.20513 10.1297C4.39237 10.1882 4.56998 10.2826 4.77907 10.3724C4.55349 10.8735 4.32558 11.3264 4.07135 11.7821C3.73727 11.576 3.39358 11.4867 3.02783 11.5178C2.60965 11.5532 2.21374 11.6664 1.8754 11.9487C1.6657 12.1236 1.53329 12.3521 1.50574 12.6417C1.48506 12.8591 1.55576 13.0026 1.75372 13.044C1.94556 13.0842 2.14743 13.0887 2.34367 13.0795C2.66888 13.0644 2.99286 13.0103 3.318 13.0023C3.54646 12.9968 3.78132 13.0149 4.00401 13.0677C4.57081 13.2023 4.85706 13.5629 4.89664 14.2308C4.95772 15.2616 4.62269 16.1255 3.89689 16.806C3.08266 17.5694 2.13747 17.9457 1.05554 17.909C0.695839 17.8969 0.343556 17.7512 0.0186207 17.4745Z" fill="white"/>
<path d="M17.9907 11.8641C17.5023 12.0523 17.0416 12.2298 16.551 12.419C15.9091 10.7524 15.2748 9.10577 14.6406 7.45909C14.6232 7.46072 14.6058 7.46243 14.5884 7.46406C14.5297 7.64681 14.4672 7.82831 14.4128 8.01255C13.883 9.80681 13.3439 11.598 12.8348 13.399C12.7308 13.7667 12.5706 13.9793 12.2265 14.0751C11.92 14.1605 11.6268 14.301 11.3272 14.4155C11.2629 14.44 11.1962 14.4565 11.0936 14.4881C11.1634 14.261 11.221 14.0693 11.281 13.8786C11.8605 12.0389 12.4403 10.1993 13.02 8.3597C13.1988 7.79232 13.3828 7.2268 13.5536 6.65668C13.6172 6.44459 13.7167 6.32397 13.9296 6.25621C14.3703 6.11588 14.7979 5.92735 15.2314 5.76029C15.2896 5.73785 15.3511 5.72497 15.4361 5.70038C16.284 7.74604 17.1287 9.78408 17.9907 11.8641Z" fill="white"/>
<path d="M35.4421 15.8492V15.8825L24.0456 20.0234C27.8296 18.6372 31.6259 17.2472 35.4421 15.8492Z" fill="white"/>
<path d="M9.18504 9.34325V9.65975C9.18504 11.4002 9.18511 13.1408 9.18498 14.8813C9.18498 15.1641 9.18367 15.1619 8.93349 15.2554C8.66346 15.3563 8.39535 15.4634 8.12545 15.5649C8.02286 15.6035 7.91767 15.6337 7.78196 15.6781V9.87768C7.11581 10.131 6.48668 10.3702 5.83193 10.6191V9.27475C7.57631 8.60652 9.3301 7.93472 11.1114 7.25234C11.1197 7.36764 11.1291 7.44147 11.1296 7.5153C11.1314 7.78966 11.131 8.06402 11.1301 8.33838C11.1293 8.59082 11.1285 8.59089 10.8997 8.67953C10.3394 8.8965 9.77892 9.1134 9.18504 9.34325Z" fill="white"/>
<path d="M30.7334 1.32522C30.7334 1.34003 30.7247 1.35321 30.7118 1.3581L28.7908 2.08965L28.786 2.09187V3.42109C28.7867 4.81547 28.7881 6.20985 28.7881 7.60349C28.7881 7.89377 28.786 7.89378 28.5194 7.99671C28.1546 8.13814 27.789 8.27958 27.3809 8.43731V2.61919C26.724 2.87022 26.0946 3.11163 25.4405 3.36118V2.01567L30.7333 0L30.7334 1.32522Z" fill="white"/>
<path d="M27.3809 2.61919L27.3809 2.62659L25.4405 3.36562V3.36118C26.0946 3.11163 26.724 2.87022 27.3809 2.61919Z" fill="white"/>
<path d="M35.4421 15.8825V17.0414C35.4421 17.0658 35.4283 17.0873 35.407 17.0962C35.3033 17.1362 35.1975 17.1784 35.091 17.2176C33.1588 17.9263 31.2267 18.6357 29.2945 19.3429C28.5249 19.6243 27.754 19.9064 26.9837 20.1878L22.8178 21.7014V20.4729C23.2108 20.3285 23.6045 20.1849 23.9982 20.0405L24.0456 20.0234L35.4421 15.8825Z" fill="white"/>
<path d="M22.8178 20.4692L23.9982 20.0405C23.6045 20.1849 23.2108 20.3285 22.8178 20.4729V20.4692Z" fill="white"/>
<path d="M35.4421 17.0414V17.1154L26.9837 20.1878C27.754 19.9064 28.5249 19.6243 29.2945 19.3429C31.2267 18.6357 33.1588 17.9263 35.091 17.2176C35.1975 17.1784 35.3033 17.1362 35.407 17.0962C35.4283 17.0873 35.4421 17.0658 35.4421 17.0414Z" fill="white"/>
</g>
</g>
</svg>
