<svg width="22" height="21" viewBox="0 0 22 21" fill="none" xmlns="http://www.w3.org/2000/svg">
<path fill-rule="evenodd" clip-rule="evenodd" d="M3.76673 3.59388C5.6783 1.68231 8.27094 0.608398 10.9743 0.608398C13.6777 0.608398 16.2703 1.68231 18.1819 3.59388C20.0935 5.50545 21.1674 8.09809 21.1674 10.8015C21.1674 12.14 20.9037 13.4655 20.3915 14.7022C19.8792 15.9389 19.1284 17.0625 18.1819 18.009C17.2354 18.9555 16.1117 19.7064 14.875 20.2186C13.6383 20.7309 12.3129 20.9945 10.9743 20.9945C9.63574 20.9945 8.31027 20.7309 7.07359 20.2186C5.83691 19.7064 4.71324 18.9556 3.76673 18.009C2.82021 17.0625 2.0694 15.9389 1.55715 14.7022C1.0449 13.4655 0.78125 12.14 0.78125 10.8015C0.78125 8.09809 1.85516 5.50545 3.76673 3.59388ZM10.9743 2.64701C8.81161 2.64701 6.7375 3.50614 5.20824 5.03539C4.69991 5.54372 4.26563 6.11226 3.91233 6.72423H18.0363C17.683 6.11226 17.2487 5.54372 16.7404 5.03539C15.2111 3.50614 13.137 2.64701 10.9743 2.64701ZM18.8698 8.76285H3.07878C2.90825 9.42323 2.81986 10.1078 2.81986 10.8015C2.81986 11.4907 2.90724 12.1756 3.0788 12.8401H18.8698C19.0414 12.1756 19.1288 11.4907 19.1288 10.8015C19.1288 10.1078 19.0404 9.42323 18.8698 8.76285ZM18.0363 14.8787H3.91235C4.2679 15.4945 4.70326 16.0625 5.20824 16.5675C5.96546 17.3247 6.86439 17.9254 7.85374 18.3352C8.84308 18.745 9.90345 18.9559 10.9743 18.9559C12.0452 18.9559 13.1055 18.745 14.0949 18.3352C15.0842 17.9254 15.9832 17.3247 16.7404 16.5675C17.2454 16.0625 17.6807 15.4945 18.0363 14.8787Z" fill="white"/>
<path fill-rule="evenodd" clip-rule="evenodd" d="M10.9691 0.745083C10.4955 0.471263 9.88651 0.620554 9.59468 1.08821C7.77648 4.00181 6.81255 7.36723 6.81255 10.8016C6.81255 14.236 7.77648 17.6014 9.59468 20.515C9.88651 20.9826 10.4955 21.1319 10.9691 20.8581C11.4427 21.1319 12.0516 20.9826 12.3435 20.515C14.1617 17.6014 15.1256 14.236 15.1256 10.8016C15.1256 7.36723 14.1617 4.00181 12.3435 1.08821C12.0516 0.620554 11.4427 0.471263 10.9691 0.745083ZM10.9691 18.8388C12.3554 16.3911 13.087 13.6225 13.087 10.8016C13.087 7.9807 12.3554 5.21214 10.9691 2.76443C9.58277 5.21214 8.85116 7.9807 8.85116 10.8016C8.85116 13.6225 9.58277 16.3911 10.9691 18.8388Z" fill="white"/>
</svg>
